<svg width="268" height="153" viewBox="0 0 268 153" fill="none" xmlns="http://www.w3.org/2000/svg">
<path d="M135.058 151.443C176.499 150.884 209.64 116.836 209.08 75.3948C208.521 33.9539 174.473 0.812925 133.032 1.37243C91.5917 1.93193 58.4511 35.98 59.0106 77.421C59.5701 118.862 93.6179 152.003 135.058 151.443Z" fill="#F58220"/>
<path d="M0 80.4724L37.92 28.9635H59.3735V80.4724H66.5816V92.798H59.3735V110.314H37.9177V92.798H0V80.4724ZM37.9177 80.4724V55.0651L20.1986 80.4724H37.9177Z" fill="#F58220"/>
<path d="M200.65 80.4724L238.568 28.9635H260.023V80.4724H267.661V92.798H260.023V110.314H238.568V92.798H200.65V80.4724ZM238.568 80.4724V55.0651L220.848 80.4724H238.568Z" fill="#F58220"/>
</svg>
