<svg xmlns="http://www.w3.org/2000/svg" width="130" height="165" viewBox="0 0 130 165" fill="none">
  <g clip-path="url(#clip0_22_5720)">
    <path opacity="0.23" d="M34.8889 139.666C38.0309 139.666 41.0211 139.781 43.7344 139.989C43.3889 139.813 43.2091 139.631 43.2091 139.447C43.2091 137.618 60.7981 136.136 82.4951 136.136C104.192 136.136 121.781 137.618 121.781 139.447C121.781 141.275 104.192 142.757 82.4951 142.757C71.6209 142.757 61.7786 142.385 54.6652 141.783C56.3259 142.34 57.2682 142.975 57.2682 143.649C57.2682 145.848 47.2486 147.631 34.8889 147.631C22.5292 147.631 12.5096 145.848 12.5096 143.649C12.5096 141.449 22.5292 139.666 34.8889 139.666Z" fill="#AA9E79"/>
    <path d="M66.8816 75.7482C66.8816 75.7482 67.5431 76.3157 67.1829 78.4069C66.8228 80.4982 66.3966 80.6346 66.3966 80.6346C66.3966 80.6346 64.7749 79.6483 64.9163 78.5745C65.0573 77.5005 66.8816 75.7482 66.8816 75.7482Z" fill="#944A6E"/>
    <path d="M63.8137 75.5168C64.6065 75.5367 67.7238 76.0927 67.7238 76.0927C67.7238 76.0927 68.7552 74.4274 70.1286 74.0974C71.5025 73.7634 74.2147 72.5948 74.9775 71.6668C75.7408 70.7373 75.8154 72.3562 73.9438 73.7726C72.0705 75.1876 72.2725 75.8304 72.2725 75.8304C72.2725 75.8304 79.4545 78.7726 79.7879 79.4917C80.1206 80.2122 74.7544 79.3415 74.7544 79.3415C74.7544 79.3415 80.3574 80.9157 80.173 81.497C79.9915 82.0774 74.5031 81.2997 74.5031 81.2997C74.5031 81.2997 78.7278 82.1487 78.6143 82.8529C78.5017 83.5562 73.9317 82.7059 73.9317 82.7059C73.9317 82.7059 76.9649 83.7454 76.6692 84.1459C76.2326 84.7423 71.289 83.9949 69.2035 82.6575C67.1186 81.3198 67.3011 80.7386 67.3011 80.7386C67.3011 80.7386 65.5829 79.6083 63.1024 79.9837L63.8137 75.5168Z" fill="#FDDCBE"/>
    <path d="M46.2758 59.4119C47.4836 58.8002 48.9598 59.283 49.5717 60.4913L56.1414 73.3304L66.8816 75.7482C66.3331 77.2292 66.1777 78.9632 66.3966 80.6346L54.4681 78.1547C53.5904 78.109 52.8049 77.5974 52.4078 76.8138L45.1965 62.7078C44.5843 61.4996 45.0678 60.0241 46.2758 59.4119Z" fill="#EE7DA0"/>
    <path d="M46.2759 59.4119C46.5038 59.2965 46.7411 59.2204 46.9804 59.1804C50.5416 61.9953 51.5433 66.9613 51.7234 71.5492C51.7604 72.7049 53.5121 74.6068 53.6606 76.4711C57.5061 75.1035 62.8092 78.0781 66.3256 79.8977C66.3414 80.1439 66.3645 80.3899 66.3966 80.6346L54.4681 78.1547C53.5904 78.109 52.8049 77.5974 52.4078 76.8138L45.1966 62.7078C44.5843 61.4996 45.0678 60.0241 46.2759 59.4119Z" fill="#DA5B84"/>
    <path d="M41.0413 139.054C38.7862 139.128 36.6722 140.328 36.8115 142.772C34.521 142.401 32.2535 141.652 30.1529 140.541C30.1418 140.728 30.1546 140.905 30.1946 141.066C30.5301 142.37 32.6611 142.784 33.8727 143.144C37.3051 144.122 42.6938 145.008 46.1559 143.711C46.7113 142.563 44.0355 140.715 41.0413 139.054Z" fill="#8C6439"/>
    <path d="M41.0413 139.054C39.0045 137.924 36.8196 136.88 35.4043 136.202C36.9354 132.822 37.4941 128.498 38.4222 124.886C39.7494 119.714 40.2629 114.397 40.266 109.055C40.3051 108.364 40.2484 107.57 40.2948 106.781L33.4264 110.169C33.6449 118.79 34.4524 127.839 31.8118 136.206C31.4778 137.315 30.2308 139.211 30.153 140.541C32.2536 141.652 34.5211 142.401 36.8117 142.772C36.6722 140.328 38.7862 139.128 41.0413 139.054Z" fill="#FDDCBE"/>
    <path opacity="0.89" d="M39.7981 117.391C40.1219 114.631 40.2645 111.846 40.2661 109.055C40.3052 108.364 40.2485 107.57 40.2949 106.781L33.4265 110.169C33.5246 114.051 33.7416 118.02 33.7105 121.974C33.8226 120.918 33.9521 119.866 34.1324 118.825C36.1136 118.737 38.0273 118.286 39.7981 117.391Z" fill="#FDDCBE"/>
    <path d="M33.705 141.95C31.3562 142.001 29.1341 143.175 29.2358 145.606C26.8579 145.214 24.5107 144.449 22.3435 143.323C22.3283 143.509 22.3389 143.685 22.3789 143.845C22.704 145.146 24.9159 145.576 26.1691 145.948C29.7252 146.954 35.3188 147.887 38.9459 146.63C39.5446 145.495 36.7924 143.631 33.705 141.95Z" fill="#8C6439"/>
    <path d="M33.705 141.95C31.6038 140.806 29.3492 139.747 27.8866 139.059C29.5407 135.712 30.1993 131.418 31.2294 127.836C32.7021 122.705 33.3313 117.424 33.4291 112.111C33.4824 111.424 33.4373 110.633 33.4999 109.849L26.2893 113.152C26.3641 121.726 27.0449 130.733 24.1477 139.028C23.7795 140.128 22.4471 142.001 22.3434 143.323C24.5106 144.449 26.8577 145.215 29.2357 145.606C29.1341 143.175 31.3561 142.001 33.705 141.95Z" fill="#FDDCBE"/>
    <path opacity="0.89" d="M33.1429 117.389C33.3038 115.636 33.3966 113.875 33.4292 112.111C33.4825 111.424 33.4374 110.633 33.5 109.848L26.2894 113.152C26.3423 119.233 26.6989 125.531 25.8688 131.639C27.065 126.859 27.3958 121.903 26.7868 117.013C28.7272 117.699 31.0994 118.271 33.1429 117.389Z" fill="#FDDCBE"/>
    <path d="M25.2187 85.6972L40.183 83.5465C40.183 83.5465 43.8751 103.603 41.7398 113.995C34.9362 118.132 25.1098 116.014 25.1098 116.014C25.1098 116.014 25.9934 114.551 24.4362 103.629C23.5228 97.2219 22.6404 92.3498 22.067 89.4165C22.4727 87.7917 23.6419 86.4109 25.2187 85.6972Z" fill="#716558"/>
    <path d="M25.2188 85.6972L40.1831 83.5465C40.1831 83.5465 40.58 85.7035 41.0387 88.97C36.6463 92.7652 29.8265 93.7072 24.1995 91.6286C27.1025 99.1128 28.256 107.699 25.2758 115.275C25.4263 114.062 25.4873 111 24.4363 103.629C23.5228 97.2219 22.6404 92.3498 22.0671 89.4165C22.4728 87.7917 23.6419 86.4109 25.2188 85.6972Z" fill="#655B4F"/>
    <path d="M43.1306 59.8205C41.5804 59.2203 40.6121 57.6686 40.5782 55.9602C42.7726 56.3379 44.6726 57.1009 44.6726 57.1009C44.6726 57.1009 45.8824 57.5507 47.0725 58.2439C47.0376 58.6092 46.9184 58.9526 46.661 59.2372C45.8289 60.3857 44.3503 60.2848 43.1306 59.8205Z" fill="#FDDCBE"/>
    <path d="M27.9142 76.5849C32.2878 74.0941 32.3463 59.8996 34.8114 57.017C35.827 55.8265 37.6829 55.633 39.5129 55.816C39.5265 55.8173 39.5399 55.8188 39.5534 55.8202C39.6539 55.8305 39.754 55.8415 39.8543 55.854C39.8708 55.856 39.8871 55.8584 39.9036 55.8605C40.2572 57.6324 41.4794 59.1736 43.2073 59.8688C44.4945 60.266 46.8921 60.0747 46.6144 57.9896C46.7657 58.0702 46.9191 58.1555 47.0724 58.2448C47.0724 58.2444 47.0726 58.2441 47.0726 58.2439C47.0878 58.2527 47.1026 58.2623 47.118 58.2712C47.2193 58.3308 47.3204 58.3918 47.4205 58.455C47.4208 58.4552 47.4212 58.4554 47.4216 58.4556C48.2912 59.0028 49.0855 59.6724 49.3077 60.3817C49.8592 62.1481 50.773 67.9705 49.5676 71.1995C48.3643 74.429 42.2436 76.869 41.08 81.0898C40.5595 82.9822 40.8753 86.7758 41.5011 89.3888C35.7954 92.1663 25.0801 92.8409 21.6109 89.6077C21.3711 82.8828 24.6148 78.464 27.9142 76.5849Z" fill="#EE7DA0"/>
    <path d="M39.0713 80.1897C39.2469 81.6203 37.8226 82.0828 36.6658 81.6781C33.388 80.6983 30.6627 78.6828 28.2494 76.3631C32.2918 73.3549 32.4113 59.8238 34.8115 57.0169C35.4565 56.2605 36.4414 55.9077 37.5428 55.797C41.1216 61.0897 37.8773 66.6639 36.011 71.6504C38.194 73.036 41.1955 72.5384 43.7894 73.0543C44.8112 70.4804 47.4026 69.08 50.0529 69.023C49.9614 69.8156 49.8067 70.5592 49.5676 71.1994C48.4105 74.3047 42.7087 76.681 41.2378 80.6121C40.5123 80.3507 39.8281 80.0642 39.0713 80.1897Z" fill="#DA5B84"/>
    <path d="M39.9684 55.869C40.0162 55.8753 40.0643 55.8818 40.1122 55.8886C40.2684 55.9107 40.424 55.9339 40.5782 55.9602C40.5782 55.9607 40.5782 55.9613 40.5782 55.9618C41.0494 56.043 41.5069 56.1417 41.9349 56.2467C42.3078 54.9398 43.4197 55.309 43.5117 53.628L46.5905 55.8478C46.5905 55.8478 45.8208 55.6138 45.4816 57.4377C45.8066 57.5826 46.2013 57.769 46.6142 57.9896C46.892 60.0747 44.4944 60.266 43.2071 59.8688C41.4792 59.1736 40.2571 57.6324 39.9034 55.8605C39.925 55.8634 39.9466 55.8661 39.9684 55.869Z" fill="#FDDCBE"/>
    <path opacity="0.89" d="M43.5117 53.6281L46.5905 55.8479C46.5905 55.8479 45.8429 55.6221 45.4965 57.3626C44.3456 56.918 43.2608 56.2947 42.3738 55.4716C42.8425 54.9882 43.445 54.8468 43.5117 53.6281Z" fill="#FDDCBE"/>
    <path d="M39.9311 73.7491C39.9311 73.7491 41.3169 74.3955 40.7196 76.3577C40.122 78.3168 38.5449 79.0871 38.5449 79.0871L36.1923 77.601L39.9311 73.7491Z" fill="#944A6E"/>
    <path d="M35.8215 73.1944C37.555 74.0384 41.0262 74.2464 41.0262 74.2464C43.3712 71.892 45.618 68.7693 48.9066 67.927C49.5791 67.7582 50.9819 67.2052 51.2801 67.828C50.9916 69.0375 47.6467 70.2346 46.2975 72.0529C47.6348 71.5735 49.3205 71.2918 50.7517 71.4432C53.6194 71.8171 50.6719 72.7863 49.5352 73.1859C48.6668 73.5043 47.7285 73.8249 46.8626 74.2136C47.4772 74.3287 51.7081 74.856 51.6057 75.6354C51.499 76.3444 47.4271 76.3733 46.753 76.473C47.7456 77.4877 49.7144 77.4761 50.577 78.6382C49.2469 79.3283 47.0265 78.1515 45.5415 78.3563C43.5855 78.6485 42.1468 79.9767 40.1873 78.5799C39.3482 77.9786 39.0917 78.0088 37.9628 77.3512C37.9628 77.3512 34.5347 76.4894 33.2075 75.6304L35.8215 73.1944Z" fill="#FDDCBE"/>
    <path d="M27.8797 73.4602C31.4871 60.3727 34.3439 55.6769 37.1488 55.8243C39.9517 55.9718 34.3493 72.0465 34.3493 72.0465L38.3452 73.2427L40.0159 73.7449C40.0159 73.7449 37.2708 75.0034 38.6281 79.0838C38.6281 79.0838 38.049 78.9626 37.1565 78.7387C34.1158 77.9724 27.4597 75.9959 27.8797 73.4602Z" fill="#EE7DA0"/>
    <path d="M41.4015 52.3131C36.2889 54.168 29.1651 51.5768 26.9666 46.2043C29.7908 46.1039 30.3737 43.7666 30.6763 41.3626C31.1382 36.9505 30.3752 32.1886 32.4321 28.1807C33.5677 25.8815 37.747 21.1817 41.5826 22.0213C41.5826 22.0213 52.1646 14.5753 62.7272 24.027C73.0978 33.3062 68.1675 44.0623 68.1675 44.0623L63.2037 43.8129C63.2037 43.8129 58.9978 54.4937 60.5829 57.4631C59.5502 58.991 50.3782 58.6994 47.4256 55.7765L41.4015 52.3131Z" fill="#552B16"/>
    <path d="M65.0303 42.5349C65.0303 42.5349 51.7314 38.9963 47.0191 31.762C47.0191 31.762 43.2395 38.2817 38.7316 39.0319L37.2882 41.6321C37.2882 41.6321 35.7145 38.9808 34.0037 40.3107C32.2931 41.6403 32.0974 44.4025 33.8517 46.1684C35.3611 47.5292 35.933 47.1094 35.933 47.1094L36.0518 47.6027C36.0518 47.6027 36.9089 54.6842 48.2093 57.4186C62.6128 58.7866 63.7035 48.9455 63.7066 47.6467C63.7084 46.9677 65.097 42.5286 65.097 42.5286L65.0303 42.5349Z" fill="#FDDCBE"/>
    <path opacity="0.89" d="M47.3319 32.3813C47.3598 34.8733 45.9081 36.9802 44.2994 38.8204C43.0125 40.2927 40.6213 40.7996 38.9382 39.4579C38.286 41.0949 38.5357 42.7414 37.4598 44.2679C37.3611 43.3264 37.3309 42.3444 37.1406 41.4099C37.2352 41.5445 37.2882 41.6323 37.2882 41.6323L38.7316 39.032C43.2395 38.2818 47.0191 31.7621 47.0191 31.7621C51.7314 38.9965 65.0303 42.535 65.0303 42.535L65.0969 42.5289C65.0969 42.5289 65.0039 42.8272 64.8665 43.2787C57.8966 41.9153 50.4778 38.8296 47.3319 32.3813Z" fill="#FDDCBE"/>
    <path opacity="0.89" d="M52.0828 50.0399C51.7982 49.966 51.6843 49.6287 51.5274 49.3187C51.926 49.2717 52.3199 49.1237 52.7817 49.092C52.5149 49.2492 52.3501 49.8836 52.0828 50.0399Z" fill="#FDDCBE"/>
    <path opacity="0.89" d="M35.1044 41.1707C36.1535 42.347 37.3492 44.6919 35.1151 45.465C36.0255 44.5729 35.7762 42.9265 34.8844 42.0167C34.7741 42.4401 34.5072 42.596 34.1849 42.9637C34.3022 42.5128 34.1018 41.9778 34.1286 41.4228C34.3654 41.0293 34.6457 40.7697 35.1044 41.1707Z" fill="#FDDCBE"/>
    <path d="M47.8271 38.8889C47.1897 38.0093 46.2002 37.4327 45.093 37.5168C43.9051 37.608 43.0963 38.5443 42.7154 39.6043C42.593 39.9413 42.0872 39.7094 42.2079 39.3727C42.6655 38.1042 43.6568 37.1119 45.0372 36.9629C46.3243 36.8256 47.5416 37.5464 48.2773 38.5597C48.4887 38.8516 48.0372 39.179 47.8271 38.8889Z" fill="#552614"/>
    <path d="M62.3164 46.4186C62.953 45.3622 62.7388 43.4372 61.4256 43.0025C61.0854 42.8893 61.3189 42.384 61.6545 42.4941C63.2388 43.0209 63.6061 45.35 62.8225 46.6492C62.6399 46.9526 62.1304 46.7269 62.3164 46.4186Z" fill="#552614"/>
    <path d="M60.0078 45.3049C60.1136 45.5976 60.124 45.8248 60.0335 46.156C59.9415 46.4825 59.7386 46.9814 59.4183 47.1121C59.1114 47.2413 58.8227 46.9478 59.0343 46.6082C59.1723 46.3969 59.4005 46.2871 59.5723 46.1128C59.7526 45.9348 59.9242 45.5965 59.9158 45.3447C59.9173 45.2911 59.9867 45.2533 60.0078 45.3049Z" fill="#552A14"/>
    <path opacity="0.89" d="M59.6527 49.1172C58.984 50.278 57.8155 50.6755 57.0434 49.9967C56.2751 49.3183 56.1933 47.8266 56.8614 46.6625C57.5321 45.5023 58.7035 45.1098 59.4729 45.7873C60.2472 46.4629 60.3276 47.9544 59.6527 49.1172Z" fill="#FDDBBD"/>
    <path d="M59.4963 49.2409C58.778 50.315 57.6443 50.6194 56.9699 49.9211C56.2952 49.2225 56.3275 47.7847 57.0457 46.7104C57.7627 45.6363 58.8953 45.3333 59.5729 46.0333C60.2468 46.7312 60.2126 48.1698 59.4963 49.2409Z" fill="white"/>
    <path d="M57.6463 50.0198C58.1042 50.4227 58.8316 50.0815 59.2633 49.2672C59.6959 48.4486 59.6797 47.4638 59.2164 47.068C58.7597 46.6687 58.037 47.0065 57.5974 47.8254C57.1657 48.6389 57.1847 49.6228 57.6463 50.0198Z" fill="#88402A"/>
    <path d="M57.9184 49.7645C58.1896 49.9968 58.6196 49.7979 58.8761 49.3116C59.1304 48.8332 59.1217 48.2512 58.8466 48.0142C58.579 47.7793 58.1486 47.9794 57.8898 48.4607C57.6349 48.9449 57.647 49.5301 57.9184 49.7645Z" fill="#4A1E11"/>
    <path d="M58.9064 48.6805C59.0114 48.8025 59.2012 48.7192 59.3279 48.4947C59.4524 48.2648 59.4686 47.9774 59.3581 47.8534C59.2531 47.7322 59.0655 47.8124 58.94 48.038C58.8119 48.2679 58.7997 48.555 58.9064 48.6805Z" fill="white"/>
    <path opacity="0.61" d="M58.189 48.9116C58.1742 49.3559 58.1903 49.8243 58.3542 50.145C58.0972 50.2294 57.8446 50.1976 57.6463 50.0198C57.6394 50.0165 57.6333 50.0116 57.6288 50.0035C57.6619 49.5081 57.7736 49.0007 58.189 48.9116Z" fill="#88402A"/>
    <path d="M47.5925 41.0812C47.7017 41.3749 47.7117 41.601 47.6182 41.9342C47.522 42.2602 47.3128 42.758 46.9838 42.8907C46.6668 43.0196 46.3703 42.7269 46.589 42.386C46.731 42.1742 46.9667 42.0644 47.1432 41.8908C47.3275 41.7121 47.5057 41.3731 47.4979 41.122C47.5 41.0674 47.5714 41.0302 47.5925 41.0812Z" fill="#552A14"/>
    <path opacity="0.89" d="M47.2227 44.895C46.5337 46.0569 45.3291 46.4548 44.5349 45.7767C43.7459 45.0987 43.6617 43.6066 44.3515 42.4432C45.042 41.2817 46.2493 40.8883 47.0415 41.5638C47.8375 42.2414 47.9187 43.7294 47.2227 44.895Z" fill="#FDDBBD"/>
    <path d="M47.0621 45.0189C46.3216 46.0929 45.1545 46.3995 44.461 45.7002C43.7654 45.0033 43.7999 43.5659 44.5408 42.4918C45.2808 41.4148 46.4483 41.1118 47.1446 41.8105C47.8374 42.5068 47.8029 43.9474 47.0621 45.0189Z" fill="white"/>
    <path d="M45.1561 45.7991C45.6259 46.2012 46.374 45.8594 46.8207 45.0452C47.2676 44.2257 47.2516 43.2411 46.7746 42.8454C46.3048 42.447 45.5606 42.7863 45.1087 43.6044C44.6619 44.4183 44.6834 45.4031 45.1561 45.7991Z" fill="#88402A"/>
    <path d="M45.4906 45.4909C45.7699 45.7229 46.2099 45.5235 46.4757 45.0382C46.7387 44.5578 46.7288 43.9761 46.4474 43.7415C46.171 43.5038 45.7263 43.7044 45.461 44.1879C45.1982 44.6718 45.2101 45.2571 45.4906 45.4909Z" fill="#4A1E11"/>
    <path d="M46.4554 44.459C46.5645 44.5814 46.759 44.4973 46.8892 44.2721C47.0183 44.042 47.0332 43.7557 46.9217 43.632C46.8132 43.5094 46.6194 43.5898 46.4899 43.8173C46.3582 44.0456 46.3445 44.3329 46.4554 44.459Z" fill="white"/>
    <path opacity="0.61" d="M45.7153 44.6897C45.7003 45.1354 45.7168 45.6023 45.8848 45.9237C45.6208 46.0086 45.36 45.9763 45.156 45.799C45.1487 45.7954 45.1417 45.7907 45.1383 45.7828C45.173 45.2881 45.289 44.7793 45.7153 44.6897Z" fill="#88402A"/>
    <path d="M46.757 52.1827C46.7423 51.9826 46.7412 51.7795 46.7487 51.5794C46.8114 50.1784 47.3684 48.8788 47.3684 48.8788C50.0231 51.5544 53.5518 51.839 53.5518 51.839C53.5518 51.839 52.8092 53.2069 51.6076 54.1136C51.2564 54.38 50.8643 54.6041 50.4408 54.7444C49.933 53.0047 48.394 51.9798 46.757 52.1827Z" fill="#C42A48"/>
    <path d="M50.4409 54.7442C49.8176 54.9525 49.126 54.9755 48.3862 54.6625C47.238 54.1793 46.8287 53.2003 46.757 52.1827C48.394 51.9798 49.933 53.0047 50.4409 54.7442Z" fill="#F2808D"/>
    <path d="M114.635 139.785H51.6648L51.6648 99.9626H114.635V139.785Z" fill="#EDEAED"/>
    <path d="M98.6894 110.593C104.108 110.051 109.44 109.221 114.635 107.852V99.9626H51.6649V108.623C51.7034 108.634 51.7419 108.645 51.7804 108.653C67.1354 113.462 82.9968 112.196 98.6894 110.593Z" fill="#DCDADD"/>
    <path d="M87.3685 92.2593C79.669 92.3146 69.1795 92.632 61.9403 91.9729C60.7792 91.8672 59.5697 91.743 58.4717 92.0807C57.7118 92.3144 57.0667 92.7525 56.4428 93.189C54.5319 94.526 52.6471 95.9466 51.3369 97.7314C50.0265 99.5161 49.3442 101.733 50.0207 103.757C50.3359 104.701 50.9652 105.597 51.9278 106.138C52.6158 106.524 53.4301 106.709 54.2322 106.871C61.528 108.346 69.0965 108.454 76.5943 108.555C78.6627 108.583 80.7311 108.611 82.7995 108.639C91.4431 108.756 100.164 108.867 108.642 107.433C110.542 107.111 112.434 106.71 114.211 106.053C114.678 105.881 115.16 105.674 115.439 105.311C115.701 104.971 115.744 104.545 115.774 104.138C115.863 102.936 115.905 101.731 115.9 100.527C115.898 99.9526 115.882 99.3619 115.619 98.8329C115.218 98.028 114.32 97.4967 113.466 97.0099C111.003 95.6057 108.492 94.1819 105.65 93.4622C103.546 92.9293 101.334 92.802 99.1434 92.6779C96.3746 92.521 93.6059 92.364 90.8371 92.2072L87.3685 92.2593Z" fill="#D6EBD8"/>
    <path d="M115.184 101.537C114.841 100.052 113.622 98.5732 112.085 98.0264C110.547 97.3866 108.69 97.6789 107.166 98.3407C102.373 100.328 97.6865 101.942 92.4421 102.537C81.8431 103.636 70.796 103.715 60.5921 100.721C57.7396 99.9044 52.8022 98.4524 51.4102 101.345C50.8223 102.655 50.8116 104.377 51.4679 105.833C51.6119 105.943 51.7646 106.046 51.9277 106.137C52.6157 106.524 53.43 106.708 54.2321 106.87C61.528 108.345 69.0964 108.454 76.5942 108.555C78.6627 108.583 80.731 108.611 82.7994 108.639C91.443 108.756 100.164 108.867 108.642 107.432C110.237 107.162 111.826 106.836 113.347 106.35C114.746 105.028 115.611 103.492 115.184 101.537Z" fill="#ADD7CF"/>
    <g opacity="0.6">
      <path d="M68.5976 96.6381C66.5599 97.1849 64.3184 96.3647 62.4845 97.3672C62.077 97.6406 61.16 98.5519 61.7713 99.0076C65.7448 101.468 71.6542 101.468 75.5259 98.4608C76.7485 97.5494 78.7862 97.1849 80.4164 96.9115C82.1484 96.6382 84.4918 96.6382 85.9182 97.185C87.956 97.9141 90.503 97.5495 92.4389 98.6432C92.6426 98.7342 92.6426 99.5545 93.0502 99.6456C96.9219 100.921 100.895 99.8279 104.36 98.0052C105.073 97.6406 105.378 96.4559 104.461 95.8179C103.137 94.9978 101.507 95.2711 100.08 94.9066C100.895 94.4508 100.794 93.6307 100.59 92.9016C100.572 92.8474 100.551 92.7932 100.528 92.7393C100.202 92.7178 99.8769 92.6977 99.5519 92.6779C96.9752 92.521 94.3987 92.364 91.822 92.2072L88.5942 92.2593C84.5238 92.2908 79.6157 92.4066 74.9 92.3801C74.7991 92.4618 74.7019 92.545 74.6088 92.6282C72.775 94.2686 71.0429 96.0913 68.5976 96.6381Z" fill="#ADD7CF"/>
    </g>
    <path opacity="0.23" d="M99.6733 145.056C99.4007 144.824 99.2564 144.584 99.2564 144.338C99.2564 142.274 109.362 140.6 121.828 140.6C134.294 140.6 144.4 142.274 144.4 144.338C144.4 146.403 134.294 148.077 121.828 148.077C121.375 148.077 120.926 148.074 120.48 148.07C119.025 149.299 113.604 150.212 107.137 150.212C99.5556 150.212 93.4096 148.957 93.4096 147.409C93.4095 146.423 95.9035 145.556 99.6733 145.056Z" fill="#AA9E79"/>
    <path d="M94.0668 82.0127C92.9897 81.9392 85.3945 79.6649 84.5813 78.9237C83.7681 78.1825 83.0086 77.342 82.0585 76.8329C81.1009 76.3199 80.0055 76.1737 78.9295 76.0374C77.0292 75.7966 75.0227 75.584 73.1882 76.4744C73.0674 76.533 72.9211 76.6592 72.9661 76.7903C72.9925 76.8673 73.0738 76.893 73.1459 76.9089C75.0397 77.3258 77.117 76.9162 78.917 77.6392C77.1353 77.6995 75.3537 77.7597 73.572 77.8199C73.1174 77.8353 72.5978 77.8852 72.2889 78.2957C72.2459 78.3529 72.2072 78.4198 72.2025 78.492C72.1896 78.6863 72.4022 78.7598 72.5702 78.7767C74.3025 78.9521 76.0348 79.1274 77.767 79.3026C76.0957 79.4188 74.3612 79.7234 72.69 79.8395C72.4505 79.8562 72.1223 79.9785 72.1378 80.2483C72.1484 80.4345 72.3295 80.5202 72.4851 80.5683C73.9242 81.0134 75.491 81.0593 77.0134 81.0759C75.8492 81.3217 74.6899 81.6237 73.5398 81.9811C73.2062 82.0848 72.629 82.1208 72.6874 82.6063C74.2655 83.2064 76.1177 82.5806 77.7351 83.0609C78.6041 83.3189 79.3561 83.8825 80.182 84.2619C80.8936 84.5887 81.6721 84.7788 82.4651 84.7096C82.8476 84.6762 83.23 84.5832 83.612 84.5669C83.9791 84.5512 84.3399 84.6066 84.6986 84.6618C85.7597 84.8253 92.4331 86.191 93.4943 86.3545L94.0668 82.0127Z" fill="#FBDABD"/>
    <g opacity="0.89">
      <path d="M77.9388 81.5648C78.6074 84.1546 81.4975 84.6525 84.0267 83.941C85.2764 83.6172 86.462 84.6677 87.8618 84.9537L87.8819 85.152C86.8206 84.9885 85.7594 84.8251 84.6982 84.6617C84.3395 84.6065 83.9787 84.5512 83.6116 84.5668C83.2296 84.5831 82.8472 84.6761 82.4648 84.7095C81.6718 84.7786 80.8931 84.5886 80.1816 84.2618C79.3557 83.8825 78.6036 83.3188 77.7348 83.0608C76.7917 82.7807 75.7692 82.876 74.7675 82.8858C75.9473 82.7182 77.0514 82.324 77.9388 81.5648Z" fill="#FDDBBD"/>
    </g>
    <g opacity="0.89">
      <path d="M77.476 80.1188C77.5254 80.2102 77.6096 80.2578 77.6461 80.2784C78.1924 80.5873 78.8562 80.6055 79.4675 80.3282C79.546 80.2925 79.6253 80.2518 79.7047 80.2109C79.9632 80.078 80.2075 79.9524 80.4173 80.0112C80.5303 80.0429 80.6349 80.1295 80.7457 80.2211L80.7973 80.2636C81.6513 80.959 82.9693 81.2494 83.9883 80.3309C84.048 80.2771 84.0547 80.1872 84.0027 80.1302C83.9509 80.0731 83.8604 80.0704 83.8007 80.1243C82.911 80.9262 81.7453 80.6602 80.9845 80.0408L80.9344 79.9997C80.8067 79.8941 80.6748 79.7849 80.5059 79.7376C80.1872 79.6482 79.8655 79.8138 79.5814 79.9599C79.5064 79.9985 79.4316 80.037 79.3575 80.0706C78.832 80.3091 78.2626 80.2943 77.7955 80.0302C77.7423 80.0001 77.7289 79.9825 77.7255 79.9652C77.7164 79.9203 77.7582 79.8448 77.8375 79.7633C78.3582 79.2283 78.9696 78.8495 79.5018 78.5364C79.8853 78.3109 80.2941 78.0816 80.7066 77.9743C81.1273 77.8647 81.5555 77.8822 81.9449 78.0248C82.018 78.0515 82.1018 78.0134 82.1319 77.9397C82.1621 77.8659 82.1272 77.7844 82.054 77.7577C81.6103 77.5952 81.1231 77.5751 80.6451 77.6995C80.1955 77.8166 79.7655 78.0571 79.3636 78.2935C78.8144 78.6166 78.1826 79.0084 77.6355 79.5704C77.4791 79.7311 77.4149 79.8866 77.4446 80.0328C77.4514 80.0649 77.4624 80.0935 77.476 80.1188Z" fill="#FDDBBD"/>
    </g>
    <path d="M89.3775 80.4277L87.5715 79.9566L86.4816 85.1631L88.3605 85.6533L89.3775 80.4277Z" fill="#7CC1CB"/>
    <path d="M115.32 75.7287C114.329 74.4633 112.532 74.2634 111.305 75.2825L101.85 83.1387L88.5301 79.8268L87.405 85.6079L102.223 89.1528C102.494 89.1964 102.766 89.1993 103.032 89.1638C103.548 89.0948 104.041 88.8809 104.454 88.5377L114.892 79.865C116.119 78.846 116.31 76.9942 115.32 75.7287Z" fill="#F5FBFD"/>
    <path d="M92.7632 83.6398C92.475 83.3516 91.8025 83.0633 91.322 83.3516C92.0833 82.5903 93.0291 81.9213 93.7939 81.1356L88.5301 79.8268L87.405 85.6079L95.2136 87.476C94.552 86.1271 93.7391 84.8388 92.7632 83.6398Z" fill="#D7E9F2"/>
    <path d="M115.32 75.7287C114.656 74.8804 113.629 74.5117 112.655 74.6675C111.614 76.1734 111.987 78.4786 111.306 80.181C110.154 82.7751 108.712 85.2731 106.214 86.8104C105.452 87.2982 104.68 87.7373 103.899 88.1436C103.535 88.4963 103.166 88.8427 102.794 89.184C102.874 89.1803 102.953 89.1742 103.032 89.1637C103.548 89.0947 104.042 88.8808 104.454 88.5376L114.893 79.8648C116.119 78.846 116.31 76.9942 115.32 75.7287Z" fill="#D7E9F2"/>
    <path d="M123.768 127.653L126.928 127.667L126.892 135.909L123.732 135.895L123.768 127.653Z" fill="#999999"/>
    <path d="M125.672 127.663L126.936 127.669L126.9 135.911L125.636 135.906L125.672 127.663Z" fill="#666666"/>
    <path d="M124.863 127.657L124.827 135.899L124.462 135.898L124.413 127.655L124.863 127.657Z" fill="#7B7B7B"/>
    <path d="M122.331 128.583C122.324 130.106 123.57 130.533 125.11 130.539L125.683 130.542C127.222 130.549 128.472 130.133 128.479 128.61L128.508 121.961C128.514 120.438 127.272 119.198 125.732 119.191L125.159 119.189C123.619 119.182 122.366 120.411 122.36 121.934L122.331 128.583Z" fill="#666666"/>
    <path d="M125.159 119.189L125.732 119.191C125.859 119.192 125.984 119.204 126.106 119.22L126.064 129.019C125.726 129.674 125.116 130.179 124.415 130.501C123.213 130.371 122.325 129.869 122.33 128.583L122.36 121.934C122.366 120.411 123.62 119.182 125.159 119.189Z" fill="#808080"/>
    <path opacity="0.53" d="M122.345 125.186L122.36 121.934C122.366 120.411 123.62 119.182 125.159 119.189L125.732 119.191C125.806 119.191 125.879 119.196 125.951 119.203C126.003 119.207 126.054 119.213 126.104 119.22C126.105 119.22 126.106 119.22 126.106 119.22V119.221C127.468 119.408 128.514 120.564 128.508 121.961L128.497 124.505C126.509 125.254 124.422 125.403 122.345 125.186Z" fill="#808080"/>
    <path d="M126.898 135.45L136.958 139.341C136.958 139.341 138.558 140.346 138.367 141.99L138.323 142.592L126.873 142.339L126.898 135.45Z" fill="#666666"/>
    <path d="M123.711 135.493L113.148 138.791C113.148 138.791 111.946 139.661 111.855 140.621C111.764 141.58 112.019 143.152 112.019 143.152L112.968 143.473L124.574 141.651L124.778 135.45L123.711 135.493Z" fill="#999999"/>
    <path d="M124.575 135.446L114.098 139.169C114.098 139.169 112.896 140.039 112.805 140.998C112.715 141.958 112.969 143.53 112.969 143.53L125.524 142.029L125.728 135.828L124.575 135.446Z" fill="#7B7B7B"/>
    <path d="M129.939 143.329C129.862 142.28 125.742 137.014 124.583 135.551L124.583 135.44L126.867 135.445C126.867 135.445 132.809 141.638 133.479 142.847C134.15 144.057 133.399 145.18 133.399 145.18L129.765 145.428C129.865 144.951 129.998 144.127 129.939 143.329Z" fill="#999999"/>
    <path d="M124.585 142.113L124.583 135.551C125.742 137.014 129.862 142.28 129.939 143.329C129.998 144.127 129.865 144.951 129.765 145.428L129.725 145.431L124.585 142.113Z" fill="#757575"/>
    <path d="M112.793 114.738L140.631 114.06C140.631 114.06 141.396 115.115 141.385 116.643C141.378 117.542 141.152 118.515 141.013 118.947C140.772 120.826 134.579 122.452 126.939 122.611C119.201 122.772 113.455 121.563 112.715 119.464C112.527 118.994 112.281 118.195 112.261 117.421C112.224 115.969 112.793 114.738 112.793 114.738Z" fill="#884930"/>
    <path d="M112.793 114.738L132.721 114.253C128.799 115.545 124.685 116.158 120.651 117.331C118.041 118.102 119.343 120.324 120.064 122.342C115.967 121.88 113.212 120.873 112.715 119.464C112.527 118.994 112.281 118.195 112.261 117.421C112.224 115.969 112.793 114.738 112.793 114.738Z" fill="#753E27"/>
    <path d="M112.703 115.156C112.741 116.989 119.065 118.344 126.828 118.182C134.591 118.02 140.853 116.403 140.815 114.571C140.777 112.738 134.453 111.384 126.689 111.545C118.927 111.707 112.665 113.324 112.703 115.156Z" fill="#C69C6D"/>
    <path d="M112.752 115.05C112.79 116.86 119.068 118.196 126.775 118.036C134.482 117.875 140.7 116.279 140.662 114.469C140.624 112.66 134.346 111.323 126.639 111.483C118.931 111.644 112.714 113.241 112.752 115.05Z" fill="#926647"/>
    <path opacity="0.58" d="M112.752 115.05C112.714 113.241 118.932 111.644 126.639 111.483C130.037 111.413 133.157 111.633 135.587 112.057C136.268 112.598 136.683 113.234 136.061 113.802C131.86 117.796 125.956 116.589 120.772 117.843C116.055 117.415 112.779 116.356 112.752 115.05Z" fill="#623B29"/>
    <path d="M111.208 138.656L112.275 138.009L112.169 140.353C111.993 140.343 110.735 139.891 110.735 139.891L111.208 138.656Z" fill="#4A211C"/>
    <path d="M113.413 137.319L113.209 139.862C113.209 139.862 112.58 140.37 112.174 140.354C112.172 140.354 112.17 140.353 112.169 140.353L112.275 138.009L113.413 137.319Z" fill="#5E2F2A"/>
    <path d="M105.137 139.911C106.002 139.152 106.734 138.221 107.21 137.175C107.686 136.129 108.107 134.779 107.739 133.713L107.721 133.654C106.878 131.058 101.1 113.264 100.933 112.243C100.753 111.14 102.473 109.351 103.533 109.681C104.593 110.011 107.741 113.898 107.741 113.898C107.741 113.898 108.688 116.057 109.37 119.467C109.723 121.231 110.697 131.198 110.879 133.083C110.985 133.701 111.021 134.012 111.539 134.566C112.1 135.167 112.511 135.573 112.986 136.244C113.461 136.915 113.514 137.61 113.246 138.388C112.934 139.297 111.993 139.801 111.177 140.31C109.702 141.231 108.633 142.559 107.055 143.287C105.476 144.015 104.461 144.707 102.818 143.261L102.729 143.181C102.651 143.112 102.533 142.975 102.496 142.878C102.19 142.063 104.08 140.839 105.137 139.911Z" fill="#FDDCBE"/>
    <g opacity="0.89">
      <path d="M107.739 133.713L107.721 133.654C107.714 133.632 107.706 133.609 107.699 133.585C106.954 128.342 105.595 123.168 104.77 117.748C104.541 115.838 106.18 114.482 107.807 114.056C108.033 114.61 108.796 116.594 109.37 119.466C109.723 121.231 110.696 131.198 110.879 133.082C110.984 133.701 111.02 134.011 111.538 134.566C112.1 135.167 112.511 135.572 112.986 136.244C113.46 136.915 113.513 137.61 113.246 138.388C112.933 139.297 111.993 139.8 111.176 140.31C110.27 140.876 109.516 141.596 108.704 142.236C108.389 141.691 108.201 141.098 108.227 140.427C108.227 138.554 108.09 136.707 107.868 134.872C107.896 134.468 107.864 134.074 107.739 133.713Z" fill="#FDDCBE"/>
    </g>
    <path d="M105.137 139.911C105.464 139.623 105.773 139.311 106.056 138.977C106.115 139.388 106.256 139.76 106.587 140.029C107.129 140.38 107.84 140.159 108.345 139.83C109.776 138.609 112.744 137.083 111.836 134.882C112.254 135.326 112.599 135.697 112.986 136.244C113.46 136.915 113.514 137.61 113.246 138.388C112.934 139.297 111.993 139.8 111.176 140.31C109.702 141.231 108.633 142.559 107.055 143.287C106.352 143.611 105.623 144.048 104.833 144.102C104.052 144.156 102.981 143.676 102.567 142.99C102.212 142.402 102.96 141.753 103.348 141.398C103.92 140.874 104.554 140.423 105.137 139.911Z" fill="#5E2F2A"/>
    <path d="M119.347 111.51C119.347 111.51 108.461 114.711 105.784 115.097C102.666 115.545 101.106 111.913 101.916 110.403C102.726 108.893 116.056 101.33 118.302 101.332C120.548 101.333 122.38 109.603 119.347 111.51Z" fill="#FDDCBE"/>
    <g opacity="0.8">
      <path d="M102.569 109.734C105.429 107.374 116.295 101.33 118.302 101.332C120.548 101.333 122.38 109.603 119.347 111.51C119.347 111.51 112.427 113.545 108.265 114.565C108.143 114.193 107.988 113.843 107.805 113.532C106.724 111.64 104.776 109.912 102.569 109.734Z" fill="#FEDCC6"/>
    </g>
    <path d="M125.398 117.66C125.398 117.66 112.945 120.162 109.905 120.452C106.364 120.789 104.827 116.817 105.838 114.962C106.85 113.107 122.363 104.508 124.892 104.677C127.421 104.845 128.939 115.468 125.398 117.66Z" fill="#FDDCBE"/>
    <path opacity="0.89" d="M114.128 117.495C112.639 115.535 110.858 112.628 108.243 112.975C112.94 109.805 122.908 104.544 124.892 104.677C127.421 104.845 128.939 115.468 125.398 117.66C125.398 117.66 119.2 118.905 114.482 119.74C114.68 118.987 114.67 118.216 114.128 117.495Z" fill="#FDDCBE"/>
    <path d="M116.289 75.7965C116.171 75.28 116.061 74.7622 115.958 74.2433L115.518 72.6624C115.518 72.6624 116.663 72.0017 116.873 71.9256L116.928 72.0314C117.454 71.8235 117.925 71.6729 118.501 71.3898C118.501 71.3898 119.267 71.1352 120.597 70.9727L120.828 70.154L122.559 70.7379L122.544 70.8425C122.591 70.8419 122.637 70.841 122.685 70.8407C122.434 72.2876 122.186 73.743 121.969 75.2038L122.718 75.8139C122.718 75.8139 122.398 82.4403 122.391 82.2901C122.383 82.14 121.861 89.432 121.861 89.432C121.861 89.432 119.296 86.9592 119.214 86.9111C119.131 86.863 116.506 79.0611 116.506 79.0611L116.208 76.6712L116.289 75.7965Z" fill="#7CC1CB"/>
    <path d="M116.289 75.7965C116.171 75.28 116.061 74.7622 115.958 74.2433L115.518 72.6624C115.518 72.6624 116.663 72.0017 116.873 71.9256L116.928 72.0314C117.454 71.8235 117.925 71.6729 118.501 71.3898C118.501 71.3898 119.267 71.1352 120.596 70.9727L120.828 70.154L122.559 70.7379L122.544 70.8425C122.591 70.8419 122.637 70.841 122.685 70.8407C122.433 72.2876 122.186 73.743 121.969 75.2038L122.251 75.4332L121.909 77.3732L119.688 75.1527L119.127 75.7936L118.278 75.2729L116.311 77.496L116.208 76.6711L116.289 75.7965Z" fill="#64B3C1"/>
    <path d="M116.659 72.1628C116.763 72.1195 116.881 72.0721 117.011 72.0223L115.794 69.5401C115.363 68.6606 115.855 67.5348 116.894 67.0258C117.932 66.517 119.123 66.8173 119.555 67.6967L120.614 69.8592C119.697 71.0594 118.255 71.785 116.679 72.2655C116.672 72.2311 116.665 72.1971 116.659 72.1628Z" fill="#FDDCBE"/>
    <path d="M120.615 69.8591L121.178 70.9524C121.507 70.9201 121.826 70.9319 122.159 70.9304C122.111 71.8732 121.775 73.3501 121.244 74.5978L120.09 73.4329L119.058 75.3138L117.578 73.9456L117.295 74.2943C117 73.5213 116.782 72.751 116.679 72.2655C118.256 71.7848 119.697 71.0593 120.615 69.8591Z" fill="#FDDCBE"/>
    <g opacity="0.89">
      <path d="M116.659 72.1628C116.763 72.1195 116.881 72.0721 117.011 72.0223L115.794 69.5401C115.363 68.6606 115.855 67.5348 116.894 67.0258C117.932 66.517 119.123 66.8173 119.555 67.6967L120.614 69.8592C119.697 71.0594 118.255 71.785 116.679 72.2655C116.672 72.2311 116.665 72.1971 116.659 72.1628Z" fill="#FDDCBE"/>
    </g>
    <path d="M114.724 102.102C116.979 101.03 119.117 99.4378 120.378 97.5302C120.685 97.7254 120.993 97.9238 121.304 98.1182C127.11 101.805 133.548 106.392 140.352 104.205C140.72 105.546 140.794 107.048 140.38 108.777C138.687 115.852 117.334 119.838 117.334 119.838C116.587 119.945 112.959 114.023 104.209 108.634C103.49 108.191 114.724 102.102 114.724 102.102Z" fill="#286D79"/>
    <path d="M132.845 112.268C132.423 111.677 131.496 111.425 130.737 111.425C126.69 111.087 122.559 110.834 119.018 108.727C119.44 108.136 119.693 107.378 120.198 106.788C119.608 107.293 118.765 107.799 118.259 107.799C115.772 107.407 113.692 105.642 112.136 103.531C113.625 102.698 114.724 102.102 114.724 102.102C116.979 101.03 119.117 99.4377 120.378 97.5301C120.685 97.7253 120.993 97.9236 121.304 98.1181C127.11 101.805 133.547 106.392 140.351 104.205C140.719 105.545 140.794 107.048 140.38 108.777C139.709 111.58 135.953 113.898 131.661 115.675C131.718 115.636 131.776 115.597 131.833 115.556C132.845 114.797 133.688 113.364 132.845 112.268Z" fill="#245C70"/>
    <g opacity="0.21">
      <path d="M119.378 96.7304C119.711 96.8778 120.045 97.0283 120.381 97.1742C126.671 99.9569 133.718 103.536 140.122 100.363C140.353 100.884 140.538 101.439 140.667 102.035C137.875 104.057 134.338 105.254 130.899 105.054C128.988 104.703 127.112 103.936 125.321 102.874C122.998 101.603 120.577 103.076 118.154 102.843C117.035 102.797 116.176 102.196 115.406 101.412C117.093 100.108 118.563 98.4849 119.378 96.7304Z" fill="#1F6570"/>
    </g>
    <path d="M117.577 98.4337C118.432 97.3906 118.662 96.9188 119.006 95.7465C119.655 93.3586 118.249 90.0498 116.885 88.3472C114.156 84.9411 109.382 80.8317 110.594 76.3744C111.012 74.8377 114.358 73.5108 115.667 72.6459C116.615 78.3044 118.413 83.9431 121.639 88.7196C120.701 82.7573 121.661 76.7286 122.685 70.8405C123.753 70.8332 124.989 70.9133 126.351 71.1549C131.009 71.982 130.71 74.7424 130.848 77.6789C130.987 80.6156 132.489 86.4941 134.429 90.0184C136.064 92.9892 139.884 97.0926 141.092 102.018C141.092 102.018 141.868 104.63 140.889 106.908C140.889 106.908 125.401 109.364 120.956 107.304C120.956 107.304 124.098 100.693 123.845 99.5802C123.845 99.5802 120.483 106.139 119.293 106.445C119.293 106.445 113.779 104.077 112.943 103.052C112.957 102.581 117.577 98.4337 117.577 98.4337Z" fill="#F5FBFD"/>
    <path d="M130.848 77.6791C130.773 76.0751 130.827 74.5237 130.134 73.3113C127.88 77.6619 124.786 81.463 121.28 84.8782C121.325 86.1605 121.438 87.4416 121.639 88.7198C121.059 87.8602 120.525 86.9723 120.034 86.0617C119.08 86.944 118.1 87.8 117.103 88.6337C118.059 89.9441 118.981 91.9785 119.144 93.865C124.399 90.1154 128.668 84.8855 130.959 78.8822C130.903 78.4436 130.865 78.0391 130.848 77.6791Z" fill="#D7E9F2"/>
    <path d="M114.723 80.705L114.262 74.0589C114.669 73.489 115.144 72.9919 115.667 72.646C116.615 78.3045 118.413 83.9432 121.639 88.7197C120.701 82.7574 121.661 76.7287 122.685 70.8407C123.254 70.8367 123.873 70.8588 124.532 70.9159L125.827 78.6006L122.722 79.7013L125.321 80.4753L121.627 88.7787L115.299 81.6484L116.903 80.594L114.723 80.705Z" fill="#E7F5FD"/>
    <path d="M123.396 79.9019L122.722 79.7013L125.537 78.7035L125.665 79.226L123.396 79.9019Z" fill="#CEE1EA"/>
    <path d="M121.858 89.2495L121.648 88.7313L125.211 80.7217L125.915 80.9313L121.858 89.2495Z" fill="#CEE1EA"/>
    <path d="M114.966 80.6927L116.903 80.594L116.108 81.1166L114.974 81.2313L114.966 80.6927Z" fill="#CEE1EA"/>
    <path d="M120.745 70.0312L119.696 74.1614L122.149 76.6943L123.056 70.8181L120.745 70.0312Z" fill="#78CCD2"/>
    <path d="M118.172 74.5071C118.172 74.5071 116.183 77.165 116.152 77.1031C116.12 77.0411 115.495 72.6348 115.495 72.6348L116.829 71.6479L118.172 74.5071Z" fill="#78CCD2"/>
    <path d="M122.359 92.0473C122.419 92.4482 122.641 92.748 122.856 92.7159C123.07 92.6837 123.195 92.3316 123.135 91.9307C123.074 91.5277 122.851 91.2269 122.637 91.2591C122.422 91.2913 122.298 91.6443 122.359 92.0473Z" fill="#78B1DD"/>
    <path d="M123.588 97.9583C123.648 98.3591 123.871 98.659 124.085 98.6269C124.3 98.5945 124.424 98.2425 124.364 97.8417C124.304 97.4387 124.081 97.1378 123.866 97.17C123.652 97.2023 123.527 97.5553 123.588 97.9583Z" fill="#78B1DD"/>
    <path d="M120.757 103.048C121.435 102.147 121.81 101.05 122.185 99.9903L120.954 103.8C120.954 103.8 120.343 104.738 118.698 104.412C117.053 104.085 116.848 102.707 116.848 102.707L116.869 102.642C116.936 102.815 117.009 102.974 117.11 103.065C118.058 103.886 119.782 104.396 120.757 103.048Z" fill="#E7F5FD"/>
    <path d="M122.284 99.6873L118.138 98.6869C118.138 98.6869 121.595 100.079 122.284 99.6873Z" fill="#CBE3EE"/>
    <path d="M127.578 103.568C126.833 102.323 126.628 100.896 126.41 99.5172L127.007 104.454C127.007 104.454 127.635 105.733 130.321 105.658C133.007 105.585 133.809 103.928 133.809 103.928L133.799 103.845C133.633 104.043 133.463 104.225 133.274 104.318C131.506 105.141 128.633 105.423 127.578 103.568Z" fill="#E7F5FD"/>
    <path d="M126.363 99.125L133.192 98.7193C133.192 98.7193 127.304 99.7433 126.363 99.125Z" fill="#CBE3EE"/>
    <path d="M127.451 97.7331C127.387 97.684 127.299 97.6589 127.207 97.669C127.032 97.6876 126.903 97.8226 126.919 97.9748L127.064 99.2574C127.081 99.4085 127.237 99.5149 127.412 99.497C127.43 99.4943 127.447 99.4911 127.463 99.4863L127.533 100.078C127.542 100.154 127.614 100.21 127.694 100.201C127.773 100.192 127.831 100.123 127.822 100.045L127.561 97.854C127.554 97.7938 127.508 97.7464 127.451 97.7331Z" fill="#776C6D"/>
    <path d="M134.071 48.353C134.463 49.7923 134.63 63.6543 139.427 58.5701C138.917 61.1125 136.968 64.0472 133.859 63.3481C134.106 65.5134 136.328 66.1102 138.043 65.4713C135.077 67.8241 131.968 69.0133 128.248 67.9649C128.698 68.358 128.713 69.0412 129.207 69.5931C125.879 69.9831 121.926 71.2294 119.022 68.7589C115.883 70.4719 111.1 74.3486 107.295 72.9813C107.6 72.2103 107.702 71.3238 107.644 70.4815C106.175 73.2859 102.064 72.6872 99.4481 72.5403C104.2 71.0747 104.611 63.7536 103.378 60.4821L134.071 48.353Z" fill="#552B16"/>
    <path d="M101.221 54.3201C101.115 53.5977 100.974 52.8832 100.779 52.1833C100.462 50.532 100.312 48.8798 101.031 47.2107C102.387 43.8659 104.917 41.0187 108.613 39.9447C115.08 38.0643 122.204 37.6989 127.373 42.3433C130.801 45.1842 131.461 50.0017 130.951 54.2799C131.301 54.233 131.654 54.2627 131.983 54.3815C133.96 54.9427 135.044 57.363 134.166 59.3776C133.807 60.3766 133.309 61.5498 132.284 62.3085C131.444 62.7926 130.264 63.0062 129.378 62.7103C128.253 64.9437 127.186 67.052 124.429 68.652C118.72 71.5595 111.436 73.2184 105.694 69.1175C100.929 65.4835 102.011 59.658 101.221 54.3201Z" fill="#FDDCBE"/>
    <path opacity="0.89" d="M127.259 58.9218C127.018 56.8802 126.461 54.8745 126.063 52.8517C121.658 57.3549 114.162 54.5774 110.776 50.1991C110.899 52.5754 112.213 55.605 115.077 55.5836C109.848 57.1589 103.812 53.2536 102.255 48.1834C101.564 49.4852 101.105 50.8742 100.805 52.2876C100.796 52.2533 100.788 52.219 100.779 52.1832C100.462 50.5319 100.312 48.8797 101.031 47.2106C102.387 43.8658 104.917 41.0186 108.612 39.9446C115.079 38.0642 122.204 37.6988 127.372 42.3432C130.801 45.184 131.461 50.0016 130.951 54.2798C130.985 54.2738 131.02 54.2743 131.056 54.272C129.269 55.2314 127.939 57.0353 127.259 58.9218Z" fill="#FDDCBE"/>
    <path opacity="0.89" d="M111.96 61.225C112.271 61.5754 112.549 61.9775 112.384 62.4339C112.245 62.609 111.718 62.1944 111.385 62.0742C111.514 61.7196 111.79 61.4827 111.96 61.225Z" fill="#FDDCBE"/>
    <path opacity="0.89" d="M116.737 67.7823C116.659 68.1938 116.503 68.5574 116.15 68.8047C115.698 69.019 115.349 68.8623 114.973 68.5266C115.78 68.6639 116.372 68.3374 116.737 67.7823Z" fill="#FDDCBE"/>
    <path d="M101.702 59.8102C97.8236 56.1908 97.4645 49.5922 97.4645 49.5922C96.5469 38.3041 103.423 38.9249 103.423 38.9249C107.196 31.1153 120.288 33.9251 120.288 33.9251C136.986 37.1797 136.711 53.4864 134.105 56.1994C131.165 52.575 128.148 57.0449 128.148 57.0449C127.88 54.7775 126.397 51.0826 126.397 51.0826C124.897 57.8472 110.387 50.9906 108.836 45.8406C108.836 45.8406 110.657 55.0374 114.606 53.942C114.606 53.942 106.576 56.7759 102.88 46.7551C102.88 46.7551 100.667 51.1436 101.354 54.3014L101.702 59.8102Z" fill="#552B16"/>
    <g opacity="0.3">
      <path d="M121.305 42.1719C121.082 42.1274 120.691 42.2338 120.522 42.385C119.364 43.5409 119.31 45.6582 117.77 46.1822C114.647 47.4527 110.742 45.4664 109.276 42.3963C112.078 43.421 115.476 44.704 118.111 42.4103C119.125 41.5034 118.77 39.8128 119.367 38.9147C119.839 37.9453 121.6 38.6223 122.721 38.1071C123.673 37.7429 124.395 36.9159 124.324 35.8839C124.318 35.5891 124.287 35.3014 124.217 35.033C127.202 36.1705 129.46 37.805 131.14 39.672C128.562 42.0233 124.733 42.7361 121.305 42.1719Z" fill="#552B16"/>
    </g>
    <path opacity="0.3" d="M101.088 52.1468C101.282 52.8459 101.424 53.5603 101.53 54.2851C101.39 53.5696 101.224 52.8602 101.088 52.1468Z" fill="#FDDCBE"/>
    <path d="M122.323 54.6437C122.165 52.8812 120.415 51.2867 118.609 51.5509C118.292 51.5964 118.218 51.1085 118.537 51.0617C120.597 50.7602 122.633 52.5349 122.815 54.57C122.844 54.8844 122.352 54.9625 122.323 54.6437Z" fill="#603813"/>
    <path d="M105.5 52.4938C103.735 52.5425 102.645 53.637 102.847 55.1994C102.881 55.4576 102.417 55.3956 102.384 55.1406C102.161 53.4124 103.399 52.1502 105.355 52.0983C105.643 52.0882 105.792 52.4866 105.5 52.4938Z" fill="#603813"/>
    <path d="M105.025 56.8359C104.863 57.1255 104.881 57.6045 105.013 57.9402C105.16 58.3107 105.523 58.7073 105.857 58.593C105.912 58.573 105.942 58.4969 105.92 58.4273C105.833 58.147 105.604 57.9358 105.457 57.6985C105.292 57.4287 105.212 57.1082 105.054 56.8407C105.048 56.8303 105.032 56.8247 105.025 56.8359Z" fill="#552A14"/>
    <path d="M108.375 59.3824C108.77 60.7511 108.358 62.1046 107.456 62.4059C106.555 62.7076 105.505 61.8454 105.112 60.476C104.719 59.1076 105.13 57.7545 106.031 57.4537C106.932 57.1532 107.983 58.0184 108.375 59.3824Z" fill="white"/>
    <path d="M107.039 62.0348C107.605 61.7428 107.781 60.7673 107.43 59.8614C107.079 58.9548 106.335 58.455 105.768 58.7517C105.203 59.0425 105.029 60.0132 105.378 60.9206C105.727 61.8271 106.471 62.3259 107.039 62.0348Z" fill="#883F2A"/>
    <path d="M106.573 61.554C106.908 61.3821 107.011 60.8062 106.806 60.2689C106.596 59.7312 106.157 59.4383 105.821 59.6099C105.485 59.7839 105.381 60.3584 105.589 60.8957C105.796 61.434 106.239 61.7285 106.573 61.554Z" fill="#4B1C0D"/>
    <path d="M106.555 60.1912C106.711 60.1391 106.761 59.8898 106.665 59.6321C106.569 59.3746 106.367 59.2061 106.211 59.2577C106.055 59.3073 106.005 59.5573 106.1 59.8169C106.196 60.0745 106.4 60.243 106.555 60.1912Z" fill="white"/>
    <path opacity="0.7" d="M106.243 60.721C105.942 60.8854 105.802 61.2028 105.736 61.556C106.116 62.0375 106.623 62.2444 107.039 62.0348C107.05 62.0298 107.06 62.0209 107.07 62.0149C106.945 61.6524 106.888 61.2182 106.804 60.9097C106.743 60.6731 106.447 60.5905 106.243 60.721Z" fill="#883F2A"/>
    <path d="M117.747 54.3622C117.562 54.6408 117.556 55.1131 117.676 55.4485C117.81 55.8167 118.167 56.2193 118.52 56.1176C118.578 56.1016 118.615 56.0285 118.596 55.9579C118.52 55.6795 118.292 55.4651 118.152 55.2274C117.992 54.956 117.927 54.6373 117.776 54.3693C117.771 54.3585 117.754 54.3521 117.747 54.3622Z" fill="#552A14"/>
    <path d="M121.101 56.9869C121.44 58.3447 120.94 59.6618 119.985 59.9239C119.032 60.1876 117.985 59.3023 117.647 57.9416C117.308 56.5854 117.807 55.2703 118.761 55.0048C119.716 54.7428 120.763 55.6288 121.101 56.9869Z" fill="white"/>
    <path d="M119.456 59.3822C120.06 59.1171 120.294 58.1656 119.976 57.261C119.658 56.3588 118.91 55.8396 118.304 56.1125C117.7 56.3754 117.468 57.3254 117.784 58.2288C118.101 59.1315 118.85 59.6507 119.456 59.3822Z" fill="#883F2A"/>
    <path d="M119.028 58.8735C119.385 58.7137 119.522 58.1517 119.338 57.6181C119.148 57.081 118.706 56.7788 118.347 56.934C117.988 57.0941 117.85 57.6564 118.037 58.1901C118.225 58.7254 118.67 59.0316 119.028 58.8735Z" fill="#4B1C0D"/>
    <path d="M119.272 57.3619C119.437 57.317 119.502 57.0745 119.416 56.8155C119.328 56.5577 119.127 56.3876 118.962 56.431C118.797 56.4742 118.732 56.72 118.817 56.9776C118.903 57.2333 119.107 57.4067 119.272 57.3619Z" fill="white"/>
    <path opacity="0.7" d="M118.695 58.0635C118.374 58.216 118.211 58.5219 118.124 58.8654C118.494 59.3526 119.011 59.575 119.456 59.3823C119.467 59.3785 119.477 59.3701 119.488 59.3645C119.377 59.0049 119.34 58.5744 119.27 58.2696C119.218 58.0346 118.915 57.9437 118.695 58.0635Z" fill="#883F2A"/>
    <path d="M113.276 67.0485C111.91 66.073 110.764 64.483 110.764 64.483C110.764 64.483 113.303 64.5759 116.482 63.1379C116.482 63.1379 116.596 63.6679 116.66 64.3709C115.256 64.7812 114.124 65.7989 113.276 67.0485Z" fill="#C42A48"/>
    <path d="M116.66 64.3709C116.776 65.6753 116.71 67.5687 115.39 67.7701C114.708 67.8757 113.965 67.5407 113.276 67.0485C114.124 65.7989 115.256 64.7812 116.66 64.3709Z" fill="#F2808D"/>
    <g opacity="0.89">
      <path d="M131.871 56.7115C132.492 56.7114 132.938 57.38 133.15 58.0441C132.753 57.4944 132.163 57.0267 131.618 57.2602C131.113 57.4467 130.811 57.7763 130.612 58.1802C130.942 57.9171 131.183 57.5076 131.634 57.6346C132.06 57.812 132.484 58.2204 132.516 58.734C131.999 58.1411 130.98 58.0317 130.454 58.5787C130.335 58.7035 130.243 58.8611 130.184 59.0529C130.237 59.0184 130.294 58.9879 130.352 58.9604C130.708 58.7954 131.117 58.7982 131.038 59.177C130.983 59.4435 130.484 59.6218 130.553 59.9587C130.62 60.5266 131.422 60.456 131.814 60.1194C131.421 60.6878 130.654 60.8106 130.123 60.4738C130.111 60.4654 130.098 60.4531 130.085 60.4425C130.039 60.6641 129.982 60.8769 129.906 61.0775C129.471 59.3717 129.558 56.7128 131.871 56.7115Z" fill="#FDDCBE"/>
    </g>
    <path d="M111.363 144.29L112.542 143.814L112.051 146.154C111.876 146.116 110.684 145.455 110.684 145.455L111.363 144.29Z" fill="#4A211C"/>
    <path d="M113.8 143.307L113.178 145.831C113.178 145.831 112.461 146.239 112.056 146.156C112.054 146.155 112.052 146.155 112.051 146.155L112.542 143.814L113.8 143.307Z" fill="#5E2F2A"/>
    <path d="M105.051 144.556C106.045 143.935 106.935 143.119 107.585 142.145C108.236 141.171 108.88 139.882 108.685 138.749L108.676 138.687C108.254 135.938 105.362 117.095 105.362 116.04C105.362 114.902 107.385 113.384 108.397 113.89C109.408 114.396 111.937 118.822 111.937 118.822C111.937 118.822 112.536 121.148 112.662 124.689C112.728 126.522 112.072 136.705 111.946 138.63C111.951 139.27 111.936 139.588 112.366 140.231C112.832 140.927 113.179 141.402 113.546 142.156C113.914 142.908 113.853 143.616 113.457 144.354C112.993 145.217 111.965 145.57 111.06 145.949C109.426 146.633 108.133 147.793 106.426 148.266C104.719 148.74 103.584 149.269 102.169 147.546L102.093 147.45C102.026 147.368 101.929 147.211 101.908 147.108C101.735 146.237 103.836 145.316 105.051 144.556Z" fill="#FDDCBE"/>
    <path d="M105.051 144.556C105.427 144.321 105.789 144.057 106.128 143.768C106.12 144.19 106.201 144.588 106.49 144.913C106.978 145.355 107.729 145.25 108.29 145.001C109.931 144.008 113.165 142.96 112.613 140.598C112.961 141.113 113.247 141.542 113.546 142.156C113.914 142.908 113.853 143.616 113.457 144.354C112.993 145.217 111.964 145.57 111.06 145.949C109.426 146.633 108.133 147.793 106.426 148.266C105.666 148.477 104.861 148.797 104.058 148.722C103.263 148.647 102.265 147.989 101.961 147.232C101.7 146.582 102.559 146.052 103.007 145.759C103.669 145.325 104.381 144.975 105.051 144.556Z" fill="#5E2F2A"/>
    <path d="M89.8864 82.8865C92.94 81.8177 93.8431 79.5173 93.8431 79.5173C95.9662 77.8279 96.1669 75.5453 96.1669 75.5453C97.2139 76.0159 98.2447 75.3852 99.1817 75.1603C99.6933 75.083 100.44 75.4445 100.726 74.8123C101.065 74.1001 100.297 73.9688 99.6946 73.7866C100.067 73.72 100.919 73.4252 100.901 72.8549C100.825 72.1748 99.8874 72.3995 99.4454 72.4713C99.7595 72.2951 100.803 71.9093 100.449 71.2504C100.197 70.7363 98.9562 71.0228 98.6259 71.1245C99.2579 70.4654 100.538 69.2232 98.5461 69.4533C97.4115 69.5788 96.4288 70.5694 95.3897 70.6494C94.3775 70.6893 94.4304 68.8173 93.3384 68.9782C92.3849 69.128 93.5168 71.5943 93.6528 72.3846C93.6528 72.3846 92.1426 73.0359 90.4157 75.9168C90.4157 75.9168 89.0325 76.2997 86.8949 78.8054C86.8949 78.8054 85.4916 80.3297 86.7444 82.0387C87.9974 83.7481 89.8864 82.8865 89.8864 82.8865Z" fill="#FFDEBF"/>
    <g opacity="0.64">
      <path d="M93.4806 73.0722C93.8411 72.2791 94.6888 71.3033 94.6859 70.2477C94.299 69.7184 94.0896 68.8676 93.3386 68.9783C92.3851 69.128 93.517 71.5943 93.653 72.3846C93.653 72.3846 92.1428 73.0359 90.4159 75.9168C90.4159 75.9168 89.0327 76.2997 86.8952 78.8054C86.8952 78.8054 86.4304 79.3115 86.2749 80.0668C89.5188 79.2629 91.9604 76.2447 93.4806 73.0722Z" fill="#FFC494"/>
    </g>
    <g opacity="0.64">
      <path d="M95.9744 73.0433C95.8242 73.3431 95.6599 73.5148 95.3728 73.6732C95.4476 73.0391 95.7882 72.4726 95.7446 71.842C95.9756 72.2212 96.0867 72.6569 95.9744 73.0433Z" fill="#FFC494"/>
    </g>
    <g opacity="0.64">
      <path d="M98.299 73.7387C98.1135 72.9663 97.7494 72.1753 97.2167 71.4432C98.0255 72.04 98.8299 72.962 98.299 73.7387Z" fill="#FFC494"/>
    </g>
    <path d="M78.0897 84.1906C75.5714 86.2658 73.1322 85.8366 73.1322 85.8366C70.5728 86.7821 68.5181 85.7557 68.5181 85.7557C68.2308 87.0746 67.2892 87.4659 66.6046 88.1573C66.2695 88.5579 66.1853 89.3931 65.4956 89.3075C64.7091 89.2262 65.0004 88.4939 65.1618 87.8777C64.9086 88.1648 64.2093 88.7454 63.7318 88.4302C63.191 88.0065 63.8756 87.315 64.1698 86.9712C63.8539 87.15 62.9762 87.8481 62.5992 87.196C62.2927 86.708 63.1899 85.7873 63.4503 85.5556C62.5549 85.755 60.8212 86.2079 62.065 84.608C62.7688 83.6943 64.1315 83.3662 64.7461 82.511C65.3124 81.6578 63.686 80.7194 64.397 79.861C65.0261 79.1163 66.5376 81.3903 67.1408 81.9229C67.1408 81.9229 68.4911 80.961 71.8594 80.9845C71.8594 80.9845 72.9136 79.9911 76.177 79.4621C76.177 79.4621 78.2168 79.0513 79.0176 81.0315C79.8186 83.0121 78.0897 84.1906 78.0897 84.1906Z" fill="#FFDEBF"/>
    <g opacity="0.64">
      <path d="M75.2458 81.7979C73.3741 82.0096 71.6362 81.4881 69.8226 81.1044C70.3973 81.0272 71.0735 80.9791 71.8595 80.9846C71.8595 80.9846 72.9136 79.9912 76.1771 79.4622C76.1771 79.4622 77.7954 79.1364 78.715 80.4647C77.7132 81.1963 76.5121 81.6768 75.2458 81.7979Z" fill="#FFC494"/>
    </g>
    <g opacity="0.64">
      <path d="M66.4828 84.2742C66.8178 84.3018 67.0506 84.2504 67.3372 84.0859C66.7562 83.817 66.0933 83.8133 65.5779 83.4444C65.7802 83.8431 66.0937 84.1683 66.4828 84.2742Z" fill="#FFC494"/>
    </g>
    <g opacity="0.64">
      <path d="M65.8547 86.6474C65.2928 86.0812 64.8084 85.3511 64.4634 84.5061C64.5478 85.5182 64.912 86.6973 65.8547 86.6474Z" fill="#FFC494"/>
    </g>
    <path d="M85.6175 80.1021C85.6175 80.1021 92.8614 83.6398 90.1754 90.6123C88.6087 94.8659 83.9621 95.2856 83.9621 95.2856C83.9621 95.2856 77.8264 95.9291 76.093 90.7474C74.3595 85.5657 77.3854 81.0842 80.2732 80.1014C82.7914 79.2444 84.4952 79.565 85.6175 80.1021Z" fill="#FFDEBF"/>
    <path opacity="0.64" d="M78.3489 81.5686C78.2836 81.5315 78.2176 81.4945 78.1515 81.457C78.816 80.8147 79.5489 80.3478 80.2731 80.1016C82.7913 79.2444 84.4953 79.565 85.6174 80.1022C85.6174 80.1022 85.722 80.1535 85.9003 80.2546C84.0052 82.2678 80.8458 82.6321 78.3489 81.5686Z" fill="#FFC494"/>
    <path opacity="0.64" d="M87.9581 83.7477C87.7123 84.2714 87.2332 84.6404 86.7051 84.7684C85.9305 85.0246 85.2764 84.7031 84.6222 84.3818C85.8098 84.5229 87.0069 84.4296 87.9581 83.7477Z" fill="#FFC494"/>
    <path opacity="0.64" d="M76.6503 83.4572C76.6708 83.7005 76.7786 83.9355 76.998 84.1312C78.1988 85.0607 79.909 85.2359 81.2717 84.6177C80.1781 85.6369 78.2772 85.4532 77.0599 84.9116C75.3492 88.5069 77.1439 92.2615 79.9417 94.7176C78.4034 94.1303 76.8397 92.9797 76.0929 90.7475C75.1649 87.9734 75.6014 85.4006 76.6503 83.4572Z" fill="#FFC494"/>
    <path d="M70.397 73.6181C69.5502 72.4775 67.9445 72.3561 67.9895 74.0902C68.019 75.9915 69.754 77.3912 71.5121 76.7685L70.397 73.6181Z" fill="#FFDEBF"/>
    <path d="M91.7013 69.3004C91.7908 67.8571 93.7653 67.1282 94.1757 68.8022C94.5039 70.1417 94.086 73.0881 92.0444 72.768L91.7013 69.3004Z" fill="#FFDEBF"/>
    <path d="M91.8427 67.5406C92.4089 68.9587 93.5067 71.2655 92.7469 73.2499C90.132 80.0792 83.1256 81.6743 77.5905 81.1239C73.2022 80.6563 69.059 77.373 69.5807 71.3008C69.5807 71.3008 65.3311 60.2469 78.4508 57.5229C90.9786 54.9217 91.8427 67.5406 91.8427 67.5406Z" fill="#FFDEBF"/>
    <path d="M71.5926 69.836C71.7029 69.5279 71.9342 69.2017 72.1315 68.9447C72.3895 68.6086 72.7176 68.5055 73.054 68.2883C73.1433 68.2308 73.1032 68.0883 73.0055 68.0696C72.6055 67.9929 72.2413 68.2541 71.9837 68.5404C71.6513 68.9107 71.6412 69.3624 71.547 69.8213C71.5415 69.8482 71.5831 69.8625 71.5926 69.836Z" fill="#C56037"/>
    <path d="M88.4327 66.5716C88.2871 65.7669 87.5936 65.2531 86.7853 65.3954C86.6848 65.4129 86.6742 65.552 86.7768 65.5775C87.3871 65.7303 87.9689 66.0634 88.3182 66.6138C88.3511 66.6656 88.4442 66.635 88.4327 66.5716Z" fill="#C56037"/>
    <path d="M78.7249 76.751C79.4138 77.5229 80.4996 78.1785 82.0969 77.7377C83.4326 77.3786 84.0733 76.2736 84.3804 75.2545C82.5767 74.8746 80.3475 75.5747 78.7249 76.751Z" fill="#F05B80"/>
    <path d="M77.7361 75.0651C77.7361 75.0651 78.0263 75.968 78.725 76.751C80.3476 75.5747 82.5768 74.8746 84.3805 75.2544C84.6901 74.2271 84.6602 73.2872 84.6602 73.2872C81.2534 74.8146 77.7361 75.0651 77.7361 75.0651Z" fill="#C52A47"/>
    <path d="M84.2583 72.7302C84.3509 73.0124 84.4482 73.2169 84.7397 73.3649C85.0618 73.5286 85.4141 73.5864 85.7977 73.5519C85.8475 73.5474 85.8468 73.4877 85.8056 73.4786C85.2284 73.3506 84.5416 73.2695 84.285 72.7203C84.2784 72.7062 84.2534 72.715 84.2583 72.7302Z" fill="#FFC494"/>
    <path d="M77.0484 75.7617C77.5745 75.4982 78.1402 74.9891 78.1158 74.4245C78.1135 74.3709 78.0363 74.3779 78.0185 74.4246C77.8244 74.9323 77.5367 75.4122 77.0407 75.7478C77.0324 75.7534 77.0388 75.7665 77.0484 75.7617Z" fill="#FFC494"/>
    <path d="M80.6706 78.4483C81.4991 79.1217 82.8577 78.6788 83.4464 77.8186C83.4735 77.7789 83.4138 77.7369 83.3758 77.7658C83.0424 78.0179 82.5447 78.173 82.1476 78.3047C81.7191 78.4467 81.1118 78.5675 80.7003 78.4067C80.6731 78.396 80.6495 78.4309 80.6706 78.4483Z" fill="#FFC494"/>
    <path d="M80.2731 73.129C80.3925 73.2747 80.5409 73.3516 80.7261 73.374C80.9051 73.3955 81.1409 73.3318 81.2257 73.1591C81.2553 73.0989 81.225 73.023 81.1664 72.9948C80.9275 72.8797 80.6278 73.0373 80.3723 72.9695C80.2891 72.9475 80.2176 73.0615 80.2731 73.129Z" fill="#FCC495"/>
    <path opacity="0.73" d="M77.3839 75.5522C77.3396 76.6586 76.0025 77.702 74.3972 77.8831C72.792 78.064 71.5263 77.3144 71.5705 76.2081C71.6146 75.1018 72.9519 74.0586 74.5571 73.8772C76.1626 73.6965 77.428 74.4462 77.3839 75.5522Z" fill="#FFDEBF"/>
    <path opacity="0.7243" d="M77.333 75.5472C77.2893 76.6366 75.971 77.6642 74.388 77.8427C72.8051 78.0212 71.5571 77.2832 71.6005 76.194C71.644 75.1048 72.9626 74.0774 74.5455 73.8985C76.1285 73.7202 77.3764 74.4583 77.333 75.5472Z" fill="#FFDDC0"/>
    <path opacity="0.7185" d="M77.282 75.5423C77.239 76.6147 75.9394 77.6263 74.3788 77.8023C72.8182 77.9783 71.5879 77.2521 71.6307 76.1799C71.6735 75.1078 72.9733 74.0962 74.5339 73.9199C76.0945 73.7441 77.3248 74.4704 77.282 75.5423Z" fill="#FFDCC0"/>
    <path opacity="0.7128" d="M77.2313 75.5373C77.1889 76.5927 75.908 77.5885 74.3697 77.762C72.8315 77.9354 71.6187 77.2211 71.6609 76.1659C71.703 75.1107 72.9842 74.115 74.5223 73.9412C76.0605 73.7679 77.2733 74.4824 77.2313 75.5373Z" fill="#FEDBC1"/>
    <path opacity="0.707" d="M77.1803 75.5323C77.1387 76.5706 75.8764 77.5506 74.3605 77.7215C72.8447 77.8924 71.6494 77.1899 71.6909 76.1517C71.7324 75.1136 72.9948 74.1337 74.5106 73.9625C76.0265 73.7917 77.2217 74.4945 77.1803 75.5323Z" fill="#FEDAC1"/>
    <path opacity="0.7013" d="M77.1294 75.5273C77.0885 76.5486 75.8448 77.5127 74.3513 77.6811C72.8579 77.8495 71.6802 77.1587 71.721 76.1376C71.7618 75.1166 73.0056 74.1525 74.4991 73.9838C75.9924 73.8155 77.1701 74.5066 77.1294 75.5273Z" fill="#FED9C2"/>
    <path opacity="0.6955" d="M77.0784 75.5224C77.0382 76.5266 75.8132 77.4749 74.3421 77.6408C72.8709 77.8066 71.7109 77.1276 71.7509 76.1235C71.7911 75.1194 73.0161 74.1714 74.4873 74.0051C75.9584 73.8394 77.1185 74.5186 77.0784 75.5224Z" fill="#FED8C2"/>
    <path opacity="0.6898" d="M77.0276 75.5174C76.988 76.5046 75.7816 77.437 74.3329 77.6004C72.8842 77.7638 71.7417 77.0965 71.7811 76.1094C71.8204 75.1224 73.0269 74.1902 74.4756 74.0265C75.9244 73.8632 77.0669 74.5307 77.0276 75.5174Z" fill="#FED7C3"/>
    <path opacity="0.684" d="M76.9767 75.5125C76.9378 76.4826 75.7501 77.3992 74.3237 77.56C72.8973 77.7209 71.7724 77.0653 71.8111 76.0954C71.8498 75.1254 73.0376 74.209 74.464 74.0478C75.8904 73.887 77.0153 74.5428 76.9767 75.5125Z" fill="#FDD6C3"/>
    <path opacity="0.6783" d="M76.9258 75.5075C76.8876 76.4606 75.7186 77.3614 74.3146 77.5196C72.9106 77.678 71.8032 77.0342 71.8412 76.0813C71.8793 75.1284 73.0484 74.2278 74.4524 74.0692C75.8564 73.9109 76.9637 74.5548 76.9258 75.5075Z" fill="#FDD5C4"/>
    <path opacity="0.6725" d="M76.8748 75.5025C76.8373 76.4386 75.6869 77.3234 74.3053 77.4792C72.9237 77.635 71.834 77.003 71.8713 76.0671C71.9087 75.1312 73.059 74.2465 74.4408 74.0904C75.8224 73.9346 76.9121 74.5669 76.8748 75.5025Z" fill="#FDD4C4"/>
    <path opacity="0.6668" d="M76.8239 75.4975C76.787 76.4166 75.6555 77.2855 74.2961 77.4387C72.9368 77.592 71.8646 76.9717 71.9013 76.0529C71.938 75.1341 73.0697 74.2652 74.429 74.1116C75.7884 73.9585 76.8605 74.579 76.8239 75.4975Z" fill="#FDD3C5"/>
    <path opacity="0.661" d="M76.7731 75.4926C76.7369 76.3946 75.6239 77.2476 74.287 77.3984C72.95 77.5493 71.8955 76.9407 71.9314 76.0389C71.9675 75.1371 73.0805 74.2841 74.4174 74.1331C75.7544 73.9824 76.809 74.5911 76.7731 75.4926Z" fill="#FDD2C5"/>
    <path opacity="0.6553" d="M76.7222 75.4876C76.6867 76.3726 75.5925 77.2098 74.2778 77.3579C72.9632 77.5063 71.9263 76.9096 71.9616 76.0247C71.9969 75.14 73.0913 74.3028 74.4059 74.1543C75.7203 74.0061 76.7574 74.6031 76.7222 75.4876Z" fill="#FCD1C6"/>
    <path opacity="0.6495" d="M76.6712 75.4827C76.6365 76.3506 75.5609 77.1719 74.2686 77.3176C72.9764 77.4634 71.957 76.8785 71.9915 76.0106C72.0262 75.1428 73.1018 74.3215 74.3941 74.1755C75.6863 74.03 76.7058 74.6152 76.6712 75.4827Z" fill="#FCD0C6"/>
    <path opacity="0.6438" d="M76.6203 75.4776C76.5862 76.3284 75.5292 77.134 74.2594 77.2771C72.9895 77.4204 71.9876 76.8472 72.0215 75.9964C72.0555 75.1456 73.1125 74.3402 74.3823 74.1968C75.6523 74.0538 76.6542 74.6273 76.6203 75.4776Z" fill="#FCCFC7"/>
    <path opacity="0.638" d="M76.5694 75.4727C76.536 76.3065 75.4977 77.0961 74.2502 77.2367C73.0026 77.3775 72.0184 76.8161 72.0516 75.9823C72.0849 75.1486 73.1232 74.359 74.3707 74.218C75.6183 74.0776 76.6026 74.6393 76.5694 75.4727Z" fill="#FCCEC7"/>
    <path opacity="0.6323" d="M76.5186 75.4677C76.4858 76.2845 75.4662 77.0583 74.241 77.1963C73.0159 77.3346 72.0491 76.785 72.0817 75.9682C72.1144 75.1516 73.134 74.3778 74.3591 74.2393C75.5842 74.1014 76.551 74.6514 76.5186 75.4677Z" fill="#FCCDC8"/>
    <path opacity="0.6265" d="M76.4676 75.4628C76.4356 76.2626 75.4346 77.0205 74.2319 77.156C73.0291 77.2918 72.0799 76.7538 72.1118 75.9541C72.1438 75.1545 73.1447 74.3966 74.3476 74.2607C75.5502 74.1253 76.4994 74.6635 76.4676 75.4628Z" fill="#FBCCC8"/>
    <path opacity="0.6208" d="M76.4167 75.4577C76.3853 76.2405 75.403 76.9825 74.2226 77.1155C73.0422 77.2488 72.1106 76.7226 72.1419 75.9399C72.1731 75.1574 73.1554 74.4153 74.3358 74.2819C75.5162 74.1491 76.4478 74.6755 76.4167 75.4577Z" fill="#FBCBC9"/>
    <path opacity="0.615" d="M76.3657 75.4527C76.3351 76.2185 75.3715 76.9447 74.2134 77.0751C73.0553 77.2059 72.1413 76.6915 72.1718 75.9259C72.2024 75.1604 73.166 74.4341 74.324 74.3032C75.4822 74.1729 76.3962 74.6876 76.3657 75.4527Z" fill="#FBCBC9"/>
    <path opacity="0.6093" d="M76.3149 75.4478C76.2848 76.1964 75.3399 76.9067 74.2042 77.0348C73.0685 77.163 72.1722 76.6603 72.2019 75.9118C72.2318 75.1633 73.1767 74.4529 74.3124 74.3246C75.4482 74.1968 76.3447 74.6997 76.3149 75.4478Z" fill="#FBCAC9"/>
    <path opacity="0.6035" d="M76.264 75.4428C76.2346 76.1745 75.3084 76.8689 74.1951 76.9944C73.0818 77.1201 72.203 76.6292 72.2321 75.8977C72.2613 75.1662 73.1875 74.4718 74.3009 74.3459C75.4141 74.2205 76.2931 74.7117 76.264 75.4428Z" fill="#FBC9CA"/>
    <path opacity="0.5978" d="M76.2131 75.4379C76.1845 76.1525 75.2769 76.831 74.1859 76.954C73.095 77.0772 72.2337 76.5981 72.2621 75.8836C72.2907 75.1692 73.1982 74.4906 74.2892 74.3673C75.3801 74.2444 76.2414 74.7238 76.2131 75.4379Z" fill="#FAC8CA"/>
    <path opacity="0.592" d="M76.1621 75.4328C76.1342 76.1303 75.2453 76.7931 74.1766 76.9135C73.1081 77.0343 72.2644 76.5669 72.2921 75.8694C72.3201 75.172 73.2089 74.5093 74.2775 74.3885C75.3462 74.2681 76.1899 74.7359 76.1621 75.4328Z" fill="#FAC7CB"/>
    <path opacity="0.5863" d="M76.1112 75.4279C76.0839 76.1083 75.2137 76.7552 74.1674 76.8732C73.1212 76.9914 72.2951 76.5358 72.3221 75.8553C72.3494 75.175 73.2195 74.5281 74.2658 74.4098C75.3121 74.292 76.1383 74.7479 76.1112 75.4279Z" fill="#FAC6CB"/>
    <path opacity="0.5805" d="M76.0604 75.4229C76.0338 76.0863 75.1823 76.7174 74.1584 76.8328C73.1345 76.9485 72.326 76.5047 72.3524 75.8413C72.379 75.178 73.2304 74.5469 74.2544 74.4312C75.2781 74.3159 76.0867 74.76 76.0604 75.4229Z" fill="#FAC5CC"/>
    <path opacity="0.5748" d="M76.0095 75.418C75.9835 76.0644 75.1507 76.6796 74.1491 76.7924C73.1477 76.9056 72.3567 76.4735 72.3824 75.8272C72.4083 75.1809 73.2411 74.5657 74.2426 74.4525C75.2441 74.3397 76.0351 74.7721 76.0095 75.418Z" fill="#FAC4CC"/>
    <path opacity="0.569" d="M75.9585 75.413C75.9333 76.0424 75.1191 76.6417 74.1399 76.7521C73.1608 76.8627 72.3874 76.4424 72.4123 75.8131C72.4375 75.1839 73.2516 74.5845 74.2309 74.4738C75.2101 74.3635 75.9835 74.7842 75.9585 75.413Z" fill="#F9C3CD"/>
    <path opacity="0.5633" d="M75.9076 75.408C75.883 76.0203 75.0875 76.6038 74.1306 76.7116C73.1739 76.8198 72.418 76.4112 72.4424 75.7989C72.4669 75.1868 73.2623 74.6032 74.2192 74.4951C75.176 74.3873 75.9319 74.7962 75.9076 75.408Z" fill="#F9C2CD"/>
    <path opacity="0.5575" d="M75.8567 75.403C75.8328 75.9983 75.056 76.5659 74.1215 76.6712C73.1872 76.7769 72.449 76.38 72.4725 75.7848C72.4964 75.1896 73.2731 74.622 74.2077 74.5164C75.142 74.4112 75.8803 74.8083 75.8567 75.403Z" fill="#F9C1CE"/>
    <path opacity="0.5518" d="M75.8059 75.3981C75.7827 75.9763 75.0245 76.528 74.1124 76.6308C73.2004 76.734 72.4798 76.3489 72.5027 75.7708C72.5259 75.1926 73.2839 74.6408 74.196 74.5378C75.108 74.4349 75.8287 74.8204 75.8059 75.3981Z" fill="#F9C0CE"/>
    <path opacity="0.546" d="M75.7549 75.3931C75.7324 75.9543 74.9929 76.4901 74.1032 76.5905C73.2135 76.6911 72.5105 76.3178 72.5327 75.7567C72.5552 75.1956 73.2945 74.6596 74.1843 74.5591C75.074 74.4588 75.7771 74.8323 75.7549 75.3931Z" fill="#F9BFCF"/>
    <path opacity="0.5403" d="M75.704 75.3882C75.6822 75.9323 74.9614 76.4523 74.0939 76.5501C73.2266 76.6482 72.5411 76.2866 72.5627 75.7426C72.5846 75.1985 73.3052 74.6785 74.1727 74.5804C75.0399 74.4827 75.7255 74.8444 75.704 75.3882Z" fill="#F8BECF"/>
    <path opacity="0.5345" d="M75.6531 75.3831C75.632 75.9102 74.9298 76.4144 74.0848 76.5096C73.2399 76.6052 72.572 76.2554 72.5929 75.7284C72.6141 75.2014 73.316 74.6971 74.1612 74.6017C75.006 74.5064 75.674 74.8565 75.6531 75.3831Z" fill="#F8BDD0"/>
    <path opacity="0.5288" d="M75.6021 75.3782C75.5817 75.8882 74.8983 76.3765 74.0756 76.4691C73.253 76.5622 72.6027 76.2243 72.6229 75.7142C72.6434 75.2042 73.3267 74.7158 74.1494 74.6228C74.972 74.5303 75.6224 74.8685 75.6021 75.3782Z" fill="#F8BCD0"/>
    <path opacity="0.523" d="M75.5513 75.3732C75.5315 75.8663 74.8668 76.3387 74.0664 76.4288C73.2662 76.5194 72.6335 76.1932 72.6529 75.7001C72.6727 75.2072 73.3373 74.7347 74.1377 74.6442C74.9378 74.554 75.5708 74.8806 75.5513 75.3732Z" fill="#F8BBD1"/>
    <path opacity="0.5173" d="M75.5004 75.3683C75.4812 75.8443 74.8352 76.3008 74.0572 76.3885C73.2794 76.4766 72.6641 76.1621 72.6829 75.6862C72.7021 75.2103 73.348 74.7536 74.126 74.6656C74.9038 74.5779 75.5192 74.8927 75.5004 75.3683Z" fill="#F8BAD1"/>
    <path opacity="0.5115" d="M75.4495 75.3633C75.4311 75.8223 74.8037 76.263 74.0481 76.348C73.2926 76.4336 72.695 76.1309 72.7131 75.672C72.7316 75.2131 73.3588 74.7723 74.1145 74.6868C74.8699 74.6017 75.4676 74.9047 75.4495 75.3633Z" fill="#F7B9D2"/>
    <path opacity="0.5058" d="M75.3985 75.3583C75.3808 75.8002 74.7721 76.2251 74.0388 76.3076C73.3057 76.3906 72.7258 76.0996 72.7431 75.6578C72.761 75.2159 73.3695 74.791 74.1027 74.708C74.8359 74.6255 75.416 74.9168 75.3985 75.3583Z" fill="#F7B8D2"/>
    <path opacity="0.5" d="M75.3477 75.3533C75.3307 75.7782 74.7406 76.1872 74.0297 76.2672C73.319 76.3477 72.7566 76.0685 72.7733 75.6437C72.7904 75.2189 73.3803 74.8098 74.0912 74.7294C74.8018 74.6493 75.3644 74.9289 75.3477 75.3533Z" fill="#F7B7D3"/>
    <path opacity="0.4" d="M74.2107 75.0266C74.219 75.1898 74.0169 75.3662 73.7591 75.4201C73.5012 75.4744 73.2855 75.3856 73.2772 75.2224C73.2688 75.0592 73.4711 74.8826 73.7288 74.8286C73.9865 74.7747 74.2021 74.8631 74.2107 75.0266Z" fill="white"/>
    <path d="M91.0006 72.8916C90.8829 74.063 89.6558 74.9768 88.26 74.9324C86.8643 74.888 85.8282 73.9027 85.9461 72.731C86.0638 71.5601 87.2907 70.6463 88.6865 70.6903C90.0822 70.7351 91.1183 71.7201 91.0006 72.8916Z" fill="#FFDEBF"/>
    <path opacity="0.9875" d="M90.9576 72.8787C90.8416 74.0321 89.6319 74.9317 88.2554 74.8881C86.8791 74.8443 85.8574 73.8741 85.9734 72.7204C86.0892 71.5675 87.299 70.668 88.6753 70.7113C90.0516 70.7554 91.0734 71.7254 90.9576 72.8787Z" fill="#FFDDC0"/>
    <path opacity="0.975" d="M90.9144 72.8661C90.8003 74.0014 89.6077 74.8869 88.2509 74.8439C86.894 74.8008 85.8866 73.8456 86.0007 72.71C86.1148 71.5751 87.3073 70.6896 88.6643 70.7324C90.021 70.7759 91.0285 71.7307 90.9144 72.8661Z" fill="#FFDCC0"/>
    <path opacity="0.9625" d="M90.8713 72.8533C90.759 73.9706 89.5836 74.8419 88.2462 74.7996C86.9088 74.757 85.9156 73.817 86.0279 72.6994C86.1402 71.5826 87.3154 70.7112 88.6529 70.7534C89.9904 70.7962 90.9836 71.7361 90.8713 72.8533Z" fill="#FEDBC1"/>
    <path opacity="0.95" d="M90.8283 72.8406C90.7178 73.9398 89.5597 74.797 88.2416 74.7552C86.9236 74.7133 85.9448 73.7885 86.0554 72.6889C86.1658 71.59 87.3239 70.7329 88.6419 70.7744C89.9597 70.8166 90.9386 71.7413 90.8283 72.8406Z" fill="#FEDAC1"/>
    <path opacity="0.9375" d="M90.7852 72.8278C90.6765 73.909 89.5356 74.752 88.237 74.7109C86.9385 74.6696 85.974 73.7599 86.0827 72.6784C86.1913 71.5976 87.3322 70.7545 88.6307 70.7954C89.9292 70.837 90.8938 71.7466 90.7852 72.8278Z" fill="#FED9C2"/>
    <path opacity="0.925" d="M90.7421 72.815C90.6352 73.8782 89.5115 74.7072 88.2324 74.6666C86.9533 74.6259 86.003 73.7313 86.11 72.6679C86.2168 71.605 87.3404 70.7761 88.6195 70.8165C89.8986 70.8574 90.8489 71.7519 90.7421 72.815Z" fill="#FED8C2"/>
    <path opacity="0.9125" d="M90.6991 72.8023C90.594 73.8474 89.4876 74.6623 88.2279 74.6222C86.9683 74.5822 86.0323 73.7028 86.1374 72.6573C86.2424 71.6125 87.3488 70.7977 88.6084 70.8375C89.868 70.8778 90.804 71.7572 90.6991 72.8023Z" fill="#FED7C3"/>
    <path opacity="0.9" d="M90.6559 72.7895C90.5527 73.8166 89.4635 74.6173 88.2233 74.578C86.983 74.5386 86.0614 73.6743 86.1646 72.6469C86.2678 71.6201 87.3569 70.8194 88.5973 70.8585C89.8373 70.8982 90.7591 71.7625 90.6559 72.7895Z" fill="#FDD6C3"/>
    <path opacity="0.8875" d="M90.6128 72.7768C90.5114 73.7858 89.4394 74.5724 88.2187 74.5337C86.9979 74.4949 86.0905 73.6457 86.1919 72.6363C86.2933 71.6276 87.3652 70.841 88.5861 70.8795C89.8067 70.9185 90.7142 71.7677 90.6128 72.7768Z" fill="#FDD5C4"/>
    <path opacity="0.875" d="M90.5698 72.764C90.4702 73.755 89.4155 74.5274 88.2142 74.4894C87.0129 74.4512 86.1198 73.6171 86.2193 72.6258C86.3189 71.6352 87.3735 70.8627 88.575 70.9006C89.7762 70.939 90.6694 71.773 90.5698 72.764Z" fill="#FDD4C4"/>
    <path opacity="0.8625" d="M90.5267 72.7513C90.4289 73.7242 89.3914 74.4825 88.2095 74.445C87.0277 74.4075 86.1489 73.5886 86.2466 72.6153C86.3444 71.6427 87.3818 70.8843 88.5637 70.9216C89.7456 70.9594 90.6245 71.7783 90.5267 72.7513Z" fill="#FDD3C5"/>
    <path opacity="0.85" d="M90.4835 72.7385C90.3875 73.6934 89.3673 74.4375 88.2049 74.4007C87.0424 74.3638 86.1779 73.56 86.2738 72.6047C86.3698 71.6502 87.39 70.9059 88.5525 70.9426C89.715 70.9798 90.5795 71.7836 90.4835 72.7385Z" fill="#FDD2C5"/>
    <path opacity="0.8375" d="M90.4406 72.7257C90.3464 73.6626 89.3434 74.3927 88.2004 74.3564C87.0574 74.3201 86.2072 73.5314 86.3014 72.5942C86.3955 71.6576 87.3985 70.9274 88.5416 70.9635C89.6843 71.0002 90.5346 71.7889 90.4406 72.7257Z" fill="#FCD1C6"/>
    <path opacity="0.825" d="M90.3974 72.713C90.305 73.6318 89.3193 74.3477 88.1958 74.3121C87.0722 74.2766 86.2363 73.5029 86.3286 72.5837C86.4209 71.6652 87.4067 70.9492 88.5304 70.9846C89.6537 71.0205 90.4897 71.7941 90.3974 72.713Z" fill="#FCD0C6"/>
    <path opacity="0.8125" d="M90.3543 72.7002C90.2638 73.601 89.2952 74.3028 88.191 74.2678C87.0869 74.2328 86.2653 73.4743 86.3558 72.5732C86.4463 71.6727 87.4149 70.9708 88.5191 71.0057C89.6231 71.041 90.4448 71.7994 90.3543 72.7002Z" fill="#FCCFC7"/>
    <path opacity="0.8" d="M90.3113 72.6874C90.2225 73.5702 89.2713 74.2579 88.1865 74.2235C87.1018 74.1891 86.2945 73.4457 86.3832 72.5627C86.4719 71.6803 87.4231 70.9925 88.508 71.0268C89.5926 71.0613 90.4 71.8047 90.3113 72.6874Z" fill="#FCCEC7"/>
    <path opacity="0.7875" d="M90.2682 72.6747C90.1813 73.5394 89.2472 74.2129 88.1819 74.1792C87.1167 74.1454 86.3237 73.4171 86.4105 72.5521C86.4974 71.6878 87.4314 71.014 88.4968 71.0477C89.5619 71.0818 90.3551 71.81 90.2682 72.6747Z" fill="#FCCDC8"/>
    <path opacity="0.775" d="M90.2251 72.6619C90.1399 73.5086 89.2232 74.168 88.1773 74.1348C87.1314 74.1017 86.3527 73.3886 86.4378 72.5416C86.5228 71.6952 87.4397 71.0357 88.4855 71.0687C89.5313 71.1021 90.3102 71.8153 90.2251 72.6619Z" fill="#FBCCC8"/>
    <path opacity="0.7625" d="M90.1819 72.6492C90.0987 73.4778 89.1991 74.1231 88.1727 74.0905C87.1463 74.058 86.3819 73.36 86.465 72.531C86.5483 71.7027 87.4479 71.0572 88.4744 71.0897C89.5007 71.1225 90.2652 71.8205 90.1819 72.6492Z" fill="#FBCBC9"/>
    <path opacity="0.75" d="M90.1389 72.6364C90.0574 73.447 89.1751 74.0782 88.1682 74.0463C87.1612 74.0144 86.4112 73.3315 86.4926 72.5206C86.574 71.7103 87.4564 71.0789 88.4634 71.1108C89.4701 71.1429 90.2203 71.8258 90.1389 72.6364Z" fill="#FBCBC9"/>
    <path opacity="0.7375" d="M90.0958 72.6237C90.0161 73.4162 89.151 74.0332 88.1635 74.0019C87.1761 73.9707 86.4402 73.3029 86.5198 72.51C86.5994 71.7178 87.4646 71.1006 88.4522 71.1317C89.4395 71.1633 90.1754 71.8311 90.0958 72.6237Z" fill="#FBCAC9"/>
    <path opacity="0.725" d="M90.0527 72.6109C89.9748 73.3854 89.1269 73.9883 88.1589 73.9576C87.1909 73.927 86.4693 73.2743 86.5471 72.4996C86.6249 71.7254 87.4729 71.1223 88.441 71.1528C89.4089 71.1837 90.1306 71.8364 90.0527 72.6109Z" fill="#FBC9CA"/>
    <path opacity="0.7125" d="M90.0097 72.5981C89.9337 73.3546 89.103 73.9433 88.1544 73.9133C87.2058 73.8833 86.4986 73.2457 86.5745 72.489C86.6505 71.7329 87.4812 71.1438 88.4299 71.1738C89.3783 71.2041 90.0857 71.8418 90.0097 72.5981Z" fill="#FAC8CA"/>
    <path opacity="0.7" d="M89.9666 72.5854C89.8923 73.3238 89.0789 73.8984 88.1498 73.869C87.2207 73.8396 86.5277 73.2171 86.6018 72.4785C86.6761 71.7404 87.4894 71.1655 88.4188 71.1949C89.3477 71.2245 90.0408 71.8469 89.9666 72.5854Z" fill="#FAC7CB"/>
    <path opacity="0.6875" d="M89.9234 72.5726C89.851 73.293 89.0548 73.8534 88.1451 73.8246C87.2354 73.7959 86.5567 73.1886 86.629 72.4679C86.7014 71.7478 87.4976 71.1871 88.4075 71.2158C89.3171 71.2449 89.9959 71.8523 89.9234 72.5726Z" fill="#FAC6CB"/>
    <path opacity="0.675" d="M89.8804 72.5598C89.8098 73.2622 89.0309 73.8086 88.1407 73.7803C87.2503 73.7521 86.586 73.16 86.6564 72.4573C86.727 71.7552 87.506 71.2086 88.3964 71.2368C89.2864 71.2653 89.951 71.8576 89.8804 72.5598Z" fill="#FAC5CC"/>
    <path opacity="0.6625" d="M89.8373 72.5471C89.7686 73.2314 89.0068 73.7637 88.1361 73.7361C87.2652 73.7086 86.6151 73.1315 86.6837 72.447C86.7525 71.7629 87.5142 71.2304 88.3852 71.258C89.2559 71.2857 89.9061 71.8629 89.8373 72.5471Z" fill="#FAC4CC"/>
    <path opacity="0.65" d="M89.7942 72.5343C89.7272 73.2006 88.9827 73.7187 88.1313 73.6917C87.2799 73.6649 86.6441 73.1029 86.711 72.4364C86.778 71.7704 87.5225 71.2521 88.374 71.279C89.2253 71.3061 89.8612 71.8682 89.7942 72.5343Z" fill="#F9C3CD"/>
    <path opacity="0.6375" d="M89.7512 72.5216C89.6859 73.1698 88.9587 73.6738 88.1268 73.6474C87.2949 73.6212 86.6734 73.0743 86.7384 72.4259C86.8035 71.7779 87.5308 71.2736 88.3629 71.2999C89.1947 71.3264 89.8163 71.8735 89.7512 72.5216Z" fill="#F9C2CD"/>
    <path opacity="0.625" d="M89.7081 72.5088C89.6447 73.139 88.9347 73.6288 88.1222 73.6031C87.3096 73.5775 86.7024 73.0457 86.7657 72.4153C86.829 71.7853 87.5391 71.2952 88.3518 71.3209C89.164 71.3469 89.7714 71.8787 89.7081 72.5088Z" fill="#F9C1CE"/>
    <path opacity="0.6125" d="M89.6649 72.496C89.6033 73.1082 88.9107 73.5839 88.1176 73.5588C87.3245 73.5338 86.7316 73.0171 86.793 72.4047C86.8544 71.7928 87.5473 71.3168 88.3405 71.3419C89.1334 71.3672 89.7265 71.884 89.6649 72.496Z" fill="#F9C0CE"/>
    <path opacity="0.6" d="M89.6219 72.4833C89.5622 73.0774 88.8867 73.539 88.1131 73.5144C87.3394 73.4901 86.7607 72.9886 86.8203 72.3942C86.8801 71.8003 87.5556 71.3384 88.3294 71.3629C89.1028 71.3877 89.6817 71.8893 89.6219 72.4833Z" fill="#F9BFCF"/>
    <path opacity="0.5875" d="M89.5788 72.4705C89.5208 73.0466 88.8626 73.4941 88.1084 73.4702C87.3542 73.4464 86.7898 72.9601 86.8476 72.3838C86.9055 71.808 87.5638 71.3602 88.3182 71.3841C89.0722 71.408 89.6368 71.8946 89.5788 72.4705Z" fill="#F8BECF"/>
    <path opacity="0.575" d="M89.5357 72.4578C89.4796 73.0158 88.8385 73.4491 88.1038 73.4259C87.369 73.4028 86.819 72.9315 86.8749 72.3733C86.931 71.8155 87.5721 71.3819 88.307 71.4051C89.0417 71.4285 89.5919 71.8998 89.5357 72.4578Z" fill="#F8BDD0"/>
    <path opacity="0.5625" d="M89.4927 72.445C89.4384 72.985 88.8146 73.4042 88.0993 73.3815C87.384 73.3591 86.8482 72.9029 86.9024 72.3627C86.9567 71.823 87.5806 71.4034 88.296 71.4261C89.011 71.4488 89.5469 71.9051 89.4927 72.445Z" fill="#F8BCD0"/>
    <path opacity="0.55" d="M89.4496 72.4322C89.3971 72.9542 88.7904 73.3592 88.0947 73.3372C87.3988 73.3153 86.8773 72.8743 86.9297 72.3522C86.9821 71.8304 87.5888 71.425 88.2849 71.4471C88.9804 71.4692 89.502 71.9104 89.4496 72.4322Z" fill="#F8BBD1"/>
    <path opacity="0.5375" d="M89.4064 72.4195C89.3557 72.9234 88.7665 73.3143 88.0901 73.2929C87.4136 73.2717 86.9065 72.8457 86.957 72.3416C87.0077 71.8379 87.5971 71.4465 88.2737 71.468C88.9498 71.4897 89.4572 71.9157 89.4064 72.4195Z" fill="#F8BAD1"/>
    <path opacity="0.525" d="M89.3634 72.4067C89.3146 72.8926 88.7425 73.2693 88.0856 73.2486C87.4285 73.228 86.9357 72.8171 86.9843 72.3312C87.0332 71.8455 87.6054 71.4683 88.2625 71.4891C88.9192 71.51 89.4123 71.921 89.3634 72.4067Z" fill="#F7B9D2"/>
    <path opacity="0.5125" d="M89.3203 72.394C89.2732 72.8618 88.7184 73.2245 88.081 73.2043C87.4434 73.1843 86.9648 72.7888 87.0116 72.3207C87.0587 71.8531 87.6137 71.49 88.2513 71.5102C88.8886 71.5305 89.3674 71.9263 89.3203 72.394Z" fill="#F7B8D2"/>
    <path opacity="0.5" d="M89.2772 72.3812C89.232 72.831 88.6943 73.1796 88.0763 73.16C87.4581 73.1406 86.9939 72.7602 87.0389 72.3101C87.0841 71.8606 87.6218 71.5117 88.2401 71.5312C88.858 71.5508 89.3225 71.9315 89.2772 72.3812Z" fill="#F7B7D3"/>
    <path opacity="0.4" d="M88.305 71.8628C88.3006 72.038 88.1136 72.1957 87.888 72.2155C87.662 72.2349 87.4825 72.1085 87.4872 71.9334C87.4916 71.7583 87.6786 71.6003 87.9045 71.5807C88.1302 71.5615 88.3099 71.6878 88.305 71.8628Z" fill="white"/>
    <path d="M73.9795 72.8589C74.2991 73.5789 75.0982 73.9159 75.7639 73.6086C76.4308 73.3025 76.7121 72.4705 76.3931 71.7507C76.0741 71.0295 75.2748 70.6949 74.6085 71.0015C73.9423 71.3065 73.6611 72.1395 73.9795 72.8589Z" fill="white"/>
    <path d="M75.8302 73.1841C75.3205 73.3401 74.7493 73.0154 74.5586 72.4619C74.3663 71.907 74.6225 71.3325 75.1347 71.1787C75.6423 71.0228 76.2114 71.3469 76.4053 71.9016C76.5969 72.4534 76.3406 73.0292 75.8302 73.1841Z" fill="#883E28"/>
    <path d="M75.8705 72.6386C75.5689 72.7305 75.2321 72.5383 75.1171 72.2102C75.0035 71.882 75.1563 71.543 75.4584 71.4509C75.7603 71.359 76.0977 71.5504 76.2124 71.8784C76.3249 72.2076 76.1723 72.5479 75.8705 72.6386Z" fill="#4D1700"/>
    <path d="M75.1037 72.2524C74.9775 72.3066 74.828 72.226 74.7696 72.0706C74.7127 71.914 74.7679 71.7438 74.8957 71.6893C75.0209 71.6342 75.1707 71.7157 75.229 71.8706C75.2869 72.0265 75.2304 72.1975 75.1037 72.2524Z" fill="white"/>
    <path opacity="0.61" d="M75.6106 72.4371C75.5171 72.701 75.3865 72.9739 75.1633 73.1338C75.3731 73.2282 75.6074 73.252 75.8303 73.1841C75.8369 73.1821 75.8431 73.1793 75.8502 73.1769C75.9388 72.8791 75.9637 72.5624 75.6106 72.4371Z" fill="#883E28"/>
    <path d="M84.8821 70.1925C85.0988 70.9221 85.8459 71.3369 86.5502 71.1154C87.2557 70.8956 87.6519 70.1263 87.4357 69.3967C87.2194 68.6663 86.472 68.254 85.767 68.4742C85.0623 68.6935 84.6662 69.4637 84.8821 70.1925Z" fill="white"/>
    <path d="M86.6169 70.7065C86.0888 70.7992 85.5666 70.4221 85.4544 69.868C85.341 69.3117 85.6761 68.7872 86.2067 68.6968C86.7329 68.6036 87.2528 68.98 87.3681 69.5361C87.4812 70.0889 87.1457 70.6146 86.6169 70.7065Z" fill="#883E28"/>
    <path d="M86.6475 70.2063C86.3347 70.2607 86.0268 70.0379 85.9589 69.7089C85.8917 69.3797 86.091 69.0707 86.404 69.016C86.7169 68.9614 87.0253 69.1836 87.0933 69.5126C87.1593 69.8423 86.9601 70.1525 86.6475 70.2063Z" fill="#4D1700"/>
    <path d="M85.8743 69.8023C85.7412 69.8401 85.604 69.7458 85.5679 69.5894C85.5333 69.4327 85.6119 69.2746 85.7466 69.2364C85.8788 69.1976 86.0161 69.2928 86.0524 69.4486C86.0881 69.6052 86.008 69.7639 85.8743 69.8023Z" fill="white"/>
    <path opacity="0.61" d="M86.5034 69.9623C86.3733 70.2057 86.2053 70.4541 85.9613 70.5833C86.1566 70.6976 86.3858 70.7469 86.6168 70.7065C86.6237 70.7056 86.6303 70.7035 86.6377 70.7019C86.7678 70.425 86.8367 70.1229 86.5034 69.9623Z" fill="#883E28"/>
    <path d="M78.9685 58.7735C78.6218 58.8424 78.238 58.9178 77.8479 58.9637C77.332 58.9586 76.8163 58.86 76.3547 58.6242C76.0007 58.4431 75.7386 58.1422 75.6372 57.7519C75.4677 57.0996 75.9575 56.0469 76.6659 56.76C76.6809 56.7748 76.7023 56.7518 76.688 56.7367C76.385 56.4121 75.8864 56.3224 75.6249 56.7608C75.3278 57.2584 75.3624 57.8933 75.6854 58.3701C75.8274 58.5796 76.0228 58.7493 76.2501 58.8813C75.7248 58.7177 75.283 58.3715 75.0308 57.717C74.7191 56.9089 75.2467 56.0937 76.0768 56.0348C76.8528 55.9797 77.3449 56.6017 77.2678 57.3466C77.2661 57.3652 77.2927 57.3659 77.2977 57.3504C77.5558 56.5749 77.0259 55.9371 76.2743 55.8241C75.4446 55.6997 74.77 56.3078 74.676 57.1252C74.5634 58.103 75.4292 58.9313 76.2582 59.2235C76.6413 59.3585 77.0674 59.396 77.4928 59.3599C77.2498 59.4297 76.9988 59.4837 76.7298 59.5107C75.8823 59.5956 74.9244 59.4242 74.3038 58.7846C74.2891 58.7695 74.268 58.7926 74.2818 58.808C74.8729 59.4714 75.6671 59.7109 76.5275 59.7094C77.3214 59.7082 78.395 59.5046 78.9936 58.9356C78.9988 58.9304 79.0026 58.925 79.0054 58.9191C79.0123 58.9153 79.0197 58.912 79.0267 58.9081C79.1039 58.8671 79.0442 58.7586 78.9685 58.7735Z" fill="#A35031"/>
    <path d="M96.808 92.9465C94.7521 90.441 92.2196 90.4269 89.3405 90.5588L87.1778 92.2176C85.6582 95.0817 87.3648 96.3682 89.7974 96.777C91.0429 96.9796 91.9774 96.8073 93.0758 97.6667C94.0511 98.4017 94.3271 99.2986 95.6697 99.0427C96.6041 98.8701 98.1083 98.281 98.47 97.16C98.9345 95.7085 97.6157 93.8843 96.808 92.9465Z" fill="#FFDEBF"/>
    <g opacity="0.64">
      <path d="M94.225 98.15C92.6042 97.3499 91.1199 95.6688 91.9067 93.5922C91.1728 94.8889 89.8855 95.6279 88.546 95.2036C87.2927 94.7507 86.9918 93.4604 87.2248 92.1815L87.1778 92.2174C85.6582 95.0815 87.3648 96.368 89.7974 96.7768C91.0429 96.9794 91.9774 96.807 93.0758 97.6665C94.0511 98.4015 94.3271 99.2984 95.6697 99.0425C96.2048 98.9433 96.9266 98.7077 97.5135 98.3143C96.4672 98.7038 95.2833 98.6298 94.225 98.15Z" fill="#FFC494"/>
    </g>
    <path d="M94.9731 99.251C96.0647 99.5168 97.274 99.2532 98.3569 99.1241L99.9968 98.667C100.697 98.6035 101.248 98.3875 101.662 98.0705C101.804 98.1494 101.993 98.1798 102.214 98.1407C102.697 98.0558 102.964 97.7112 102.928 97.3504C102.909 97.1488 102.798 96.9849 102.621 96.8942C102.912 96.7808 103.091 96.5391 103.107 96.2578C103.124 95.9694 102.965 95.7208 102.673 95.6096C102.894 95.4283 103.003 95.1732 102.976 94.9112C102.95 94.6617 102.807 94.4627 102.578 94.3607C102.767 94.0978 102.81 93.7699 102.699 93.4713C102.576 93.1424 102.302 92.94 101.96 92.9458C102.142 92.5886 102.135 92.2117 101.948 91.9175C101.657 91.4604 101.043 91.3781 100.427 91.8481C100.193 92.0265 100.028 92.2321 99.9286 92.4441C98.1054 92.3576 96.0564 94.6165 94.6794 95.3347C92.9926 96.2139 92.9958 98.6889 94.9731 99.251Z" fill="#FFDEBF"/>
    <path opacity="0.64" d="M96.1984 97.4992C96.3471 97.3188 96.8355 97.2762 96.9313 97.4347C97.9478 98.766 99.3251 98.5618 100.32 97.7221C101.538 96.6126 100.981 94.9063 100.535 93.5247C101.686 94.5099 101.414 96.1217 101.527 97.4489C101.514 98.0184 102.25 98.0444 102.836 97.7515C102.721 97.9406 102.508 98.0889 102.214 98.1405C101.992 98.1796 101.804 98.1493 101.662 98.0703C101.248 98.3874 100.697 98.6033 99.9967 98.6668L98.3568 99.1239C97.2738 99.253 96.0646 99.5166 94.973 99.2508C94.3827 99.0828 93.9697 98.7441 93.7236 98.3286C93.9587 98.5237 94.2265 98.668 94.499 98.7346C95.2462 98.8364 95.7595 98.1226 96.1984 97.4992Z" fill="#FFC494"/>
    <path d="M76.8413 90.4534C73.9621 90.5852 71.441 90.8305 69.6191 93.5133C68.8992 94.5212 67.75 96.4585 68.343 97.8607C68.8042 98.9449 70.3551 99.3936 71.3013 99.48C72.6613 99.6129 72.8555 98.6942 73.7606 97.8731C74.7773 96.9164 75.7233 97.0034 76.9454 96.6872C79.3312 96.0582 80.915 94.6208 79.144 91.9076L76.8413 90.4534Z" fill="#FFDEBF"/>
    <g opacity="0.64">
      <path d="M79.144 91.9076L79.0942 91.8761C79.4413 93.1283 79.2576 94.4408 78.0504 95.0062C76.7545 95.5515 75.4059 94.933 74.5586 93.7086C75.529 95.7046 74.2017 97.5146 72.6596 98.4597C71.6488 99.034 70.4763 99.2153 69.3992 98.9233C70.0196 99.2618 70.7593 99.4305 71.3013 99.48C72.6613 99.6129 72.8555 98.6942 73.7606 97.873C74.7773 96.9164 75.7233 97.0034 76.9454 96.6872C79.3312 96.0582 80.915 94.6208 79.144 91.9076Z" fill="#FFC494"/>
    </g>
    <path d="M72.0137 99.6242C70.9503 99.9885 69.7224 99.8364 68.6323 99.8066L66.9581 99.5015C66.2552 99.502 65.6869 99.3375 65.246 99.0595C65.1114 99.151 64.9268 99.1987 64.7023 99.1798C64.2143 99.1391 63.9173 98.8207 63.9201 98.4579C63.9219 98.2554 64.017 98.082 64.1858 97.9757C63.8856 97.889 63.6853 97.6647 63.6435 97.386C63.6009 97.1004 63.7369 96.8381 64.018 96.7009C63.782 96.5404 63.6502 96.2965 63.6532 96.0332C63.6564 95.7823 63.7818 95.5709 64.0005 95.4484C63.7882 95.2039 63.7164 94.8815 63.8 94.5736C63.8919 94.235 64.1472 94.0084 64.4884 93.9828C64.2753 93.6438 64.2486 93.2677 64.4084 92.9578C64.6572 92.476 65.2612 92.3381 65.9166 92.7496C66.1655 92.9057 66.3484 93.0959 66.4665 93.2976C68.2742 93.0451 70.5181 95.1073 71.9539 95.6966C73.7127 96.4188 73.9324 98.8839 72.0137 99.6242Z" fill="#FFDEBF"/>
    <path opacity="0.64" d="M70.6357 97.9916C70.4716 97.8257 69.9809 97.8276 69.9 97.9945C69.0074 99.4134 67.6172 99.3352 66.5513 98.5901C65.2387 97.5963 65.6394 95.8463 65.9596 94.4297C64.902 95.5161 65.3182 97.0963 65.3243 98.4284C65.3887 98.9942 64.6579 99.0874 64.0486 98.8494C64.1796 99.0271 64.4053 99.1552 64.7023 99.18C64.9268 99.1988 65.1114 99.151 65.246 99.0596C65.6869 99.3375 66.2552 99.5021 66.9581 99.5016L68.6323 99.8067C69.7224 99.8365 70.9503 99.9886 72.0137 99.6244C72.5864 99.4032 72.9673 99.0282 73.1748 98.5921C72.9584 98.8077 72.7045 98.9758 72.4392 99.0671C71.7044 99.2361 71.1288 98.5724 70.6357 97.9916Z" fill="#FFC494"/>
    <path d="M79.5893 94.818C80.1217 93.2224 75.6624 90.3665 75.6624 90.3665C75.2457 89.2676 75.5595 88.1344 75.5595 88.1344C84.5256 84.6285 90.8261 87.6158 90.8261 87.6158C90.8261 87.6158 91.8406 88.8604 90.9053 90.5728C90.9053 90.5728 87.9536 92.0059 86.969 94.8634C86.969 94.8634 85.8361 95.7581 83.1901 95.6373C80.5442 95.5167 79.5893 94.818 79.5893 94.818Z" fill="#EFF9FE"/>
    <path d="M75.4555 88.8269C75.4826 88.4127 75.5595 88.1344 75.5595 88.1344C84.5256 84.6285 90.8261 87.6158 90.8261 87.6158C90.8261 87.6158 91.0679 87.8078 91.145 88.1746C89.936 87.7107 83.6543 85.704 75.4555 88.8269Z" fill="#D7F0FC"/>
    <path d="M91.0966 90.1679C91.0419 90.3021 90.9795 90.4373 90.9053 90.5728C90.9053 90.5728 87.9536 92.0059 86.9689 94.8635C86.9689 94.8635 86.8202 94.9734 86.5283 95.1163C87.6712 91.6477 90.3615 90.3357 91.0966 90.1679Z" fill="#D7F0FC"/>
    <path d="M75.4554 88.8269C78.159 87.7972 80.6383 87.3287 82.7909 87.1796C81.0731 87.402 79.2541 87.8462 78.3007 89.3418C77.7827 90.2901 79.5758 90.7606 80.4204 91.0906C79.3186 92.304 79.8065 94.27 81.1109 95.0099C82.2669 95.6656 83.4979 95.6319 84.7442 95.5748C84.2878 95.635 83.7703 95.6639 83.1901 95.6373C81.2826 95.5504 80.4472 95.2137 79.9049 94.9739C80.7423 93.3393 76.6542 90.8229 75.5971 90.1753C75.4474 89.6843 75.431 89.2004 75.4554 88.8269Z" fill="#D7E9F2"/>
    <path d="M79.905 94.9739C79.6952 94.8806 79.5893 94.818 79.5893 94.818C80.1217 93.2224 75.6624 90.3665 75.6624 90.3665C75.6382 90.303 75.6167 90.2391 75.5971 90.1753C76.6541 90.8228 80.7423 93.3392 79.905 94.9739Z" fill="#D7F0FC"/>
    <path d="M124.128 69.9196C124.033 69.9225 123.937 69.8903 123.86 69.8217C123.702 69.6802 123.689 69.4372 123.83 69.2791C123.89 69.2122 129.595 62.8271 130.931 60.0645L130.247 59.7163C130.057 59.62 129.982 59.3887 130.078 59.1995C130.175 59.0103 130.406 58.9349 130.595 59.0312L131.604 59.5443C131.78 59.6341 131.86 59.8433 131.787 60.0276C130.733 62.7064 124.661 69.5038 124.403 69.7918C124.33 69.8735 124.23 69.9165 124.128 69.9196Z" fill="#DEDFDD"/>
    <path d="M125.166 68.2991C124.91 68.1107 124.621 68.0682 124.433 68.325C123.085 70.1603 120.604 72.4869 117.968 74.5738C114.96 76.9554 113.331 77.6399 113.022 77.6046C112.996 77.5963 112.365 77.366 111.075 74.0779C110.623 72.9257 110.243 71.7858 110.034 71.135C109.582 71.0629 109.126 70.9525 108.734 70.7623C108.735 70.8132 108.742 70.8646 108.757 70.9158C108.779 70.9891 109.305 72.7297 110.019 74.5431C111.383 78.0054 112.2 78.598 112.76 78.7273C112.827 78.7428 112.904 78.7546 112.994 78.7574C113.373 78.7686 113.998 78.6179 115.225 77.902C116.19 77.3391 117.357 76.5234 118.601 75.5431C121.347 73.3795 123.939 70.9457 125.362 69.0075C125.55 68.7508 125.423 68.4875 125.166 68.2991Z" fill="#2B5865"/>
    <path d="M106.808 97.0908C100.51 97.0908 95.8449 94.7037 93.0409 92.7012C89.9988 90.5287 88.4634 88.3775 88.3995 88.287C88.2465 88.0703 88.2983 87.7704 88.515 87.6175C88.7317 87.4646 89.0316 87.5163 89.1845 87.733C89.1992 87.7538 90.7096 89.863 93.6307 91.9417C96.3157 93.8523 100.781 96.13 106.808 96.13C108.649 96.13 110.049 95.4984 111.088 94.1988C114.775 89.5897 112.306 78.3815 112.281 78.2687C112.223 78.0099 112.386 77.7528 112.644 77.6945C112.902 77.6364 113.16 77.7988 113.218 78.0576C113.326 78.5361 115.811 89.833 111.838 94.799C110.622 96.3199 108.93 97.0908 106.808 97.0908Z" fill="#2B5865"/>
    <path d="M91.7322 85.8795C90.3922 86.1232 89.0769 86.5025 87.813 87.0099C87.533 87.1223 87.2054 87.3188 87.2329 87.6193C87.2591 87.9059 87.5915 88.047 87.874 88.1022C88.8437 88.2918 89.8441 88.1891 90.8262 88.0807C91.2275 88.0364 91.6343 87.9901 92.0102 87.8423C92.3861 87.6944 92.7337 87.4309 92.8946 87.0605L91.7322 85.8795Z" fill="#F6C498"/>
    <path d="M88.4487 84.1763C87.6665 83.0641 86.1007 82.8112 84.9576 83.6133C83.8093 84.415 83.5169 85.9671 84.2988 87.0807C85.0845 88.1985 86.6498 88.4528 87.7964 87.6496C88.9399 86.8487 89.2337 85.2943 88.4487 84.1763Z" fill="#C6C5C3"/>
    <path d="M87.8489 84.4489C87.3865 83.7928 86.4624 83.6426 85.7853 84.1152C85.111 84.5872 84.9372 85.5064 85.3981 86.1622C85.8624 86.8208 86.7848 86.9682 87.461 86.4951C88.1378 86.0225 88.3125 85.1067 87.8489 84.4489Z" fill="#9DACB0"/>
    <path d="M87.6792 84.4177C87.3818 83.996 86.7871 83.8983 86.3507 84.2024C85.9147 84.5074 85.8047 85.098 86.1013 85.5227C86.4001 85.9435 86.9936 86.042 87.4302 85.738C87.8664 85.4313 87.9755 84.8416 87.6792 84.4177Z" fill="#C3C3B6"/>
    <path d="M87.2818 85.9762C87.2741 85.9813 87.2663 85.988 87.2587 85.9932C86.999 86.1872 86.8066 86.3896 86.9914 86.6254C87.5565 87.343 88.2264 88.2846 88.76 88.9775C88.9413 89.2146 89.1586 88.9397 89.4193 88.7448C89.6763 88.5486 89.8967 88.4357 89.7127 88.1992C89.1795 87.5059 88.4841 86.6325 87.9205 85.9126C87.7395 85.6832 87.5352 85.7975 87.2818 85.9762Z" fill="#9DACB0"/>
    <path d="M102.223 91.7473C100.45 91.229 98.4721 91.4532 96.8598 92.3552C96.4261 92.5979 96.0107 92.8903 95.532 93.0237C95.0384 93.1614 94.5148 93.1196 94.0042 93.0768C93.4477 93.0302 92.8911 92.9834 92.3346 92.9368C91.7877 92.8909 91.1091 92.7363 90.993 92.1999C90.904 91.7891 91.2175 91.3358 91.03 90.9596C90.9191 90.7368 90.6675 90.6248 90.5015 90.4395C90.2407 90.1481 90.2347 89.6622 90.4885 89.3647C89.9806 89.0892 89.7956 88.387 90.0213 87.8551C90.2471 87.3233 90.8067 86.9789 91.3807 86.9139C89.9205 86.4699 88.3244 86.4851 86.8727 86.9565C86.4995 87.0778 86.1221 87.2303 85.7304 87.2062C85.3388 87.1821 84.9264 86.9125 84.899 86.5212C86.6354 85.3068 88.7433 84.6311 90.8622 84.6098C93.319 84.585 95.6956 85.4097 98.0136 86.2243L103.413 88.022L102.223 91.7473Z" fill="#FFDEBF"/>
    <g opacity="0.64">
      <path d="M85.9245 87.2043C86.2474 87.1802 86.5616 87.0576 86.8728 86.9567C88.3244 86.4852 89.9206 86.4701 91.3808 86.914C91.2671 86.9268 91.154 86.9512 91.0439 86.9853C91.5048 86.9493 91.9898 86.9848 92.4228 86.9202C90.5452 85.33 87.9516 86.4423 85.9245 87.2043Z" fill="#FFC494"/>
    </g>
    <g opacity="0.64">
      <path d="M91.8604 89.2488C91.4078 89.2351 90.9219 88.7044 90.5838 89.0497C90.5222 89.1288 90.4501 89.2098 90.38 89.2956C90.4144 89.3208 90.4504 89.3441 90.4884 89.3647C90.3836 89.4876 90.3239 89.6428 90.3072 89.803C90.7073 89.4213 91.3186 89.3094 91.8604 89.2488Z" fill="#FFC494"/>
    </g>
    <g opacity="0.64">
      <path d="M92.3162 90.8834C91.8272 90.8072 91.3752 90.8835 91.0837 91.1358C91.1233 91.4153 90.9827 91.7239 90.977 92.0202C91.0119 91.9268 91.0524 91.8427 91.097 91.7736C91.3563 91.3876 91.8757 91.1558 92.3162 90.8834Z" fill="#FFC494"/>
    </g>
    <g opacity="0.64">
      <path d="M96.9577 91.3799C96.1582 91.7668 95.7951 92.8189 94.8699 93.101C94.8528 93.1067 94.8355 93.1117 94.8182 93.1173C95.0598 93.1135 95.2993 93.0887 95.532 93.0238C96.0107 92.8903 96.4261 92.598 96.8598 92.3553C98.472 91.4533 100.45 91.2292 102.223 91.7474L102.369 91.291C100.543 90.8614 98.699 90.6234 96.9577 91.3799Z" fill="#FFC494"/>
    </g>
    <path d="M99.7096 86.641L99.3705 91.6444L101.464 91.8698L101.786 86.8645L99.7096 86.641Z" fill="#7CC1CB"/>
    <path d="M129.284 72.2766C128.076 71.3164 126.068 71.578 125.122 72.8051L113.966 88.0211L100.704 86.3498L100.149 92.6251L115.391 94.2808C115.506 94.2952 115.62 94.3022 115.734 94.3022C116.581 94.3022 117.391 93.9077 117.921 93.2196L130.408 77.694C131.353 76.4669 130.493 73.2367 129.284 72.2766Z" fill="#F5FBFD"/>
  </g>
  <defs>
    <clipPath id="clip0_22_5720">
      <rect width="165" height="165" fill="white" transform="matrix(-1 0 0 1 165 0)"/>
    </clipPath>
  </defs>
</svg>