<svg xmlns="http://www.w3.org/2000/svg" width="102" height="102" viewBox="0 0 102 102" fill="none">
  <g clip-path="url(#clip0_2_1570)">
    <rect width="102" height="102" rx="51" fill="white"/>
    <path opacity="0.11" d="M50.4129 145.098C49.0243 145.593 39.6396 122.825 29.451 94.2453C19.2622 65.665 12.1281 42.0953 13.5169 41.6005C14.905 41.1054 24.2902 63.8729 34.4788 92.4528C44.6675 121.033 51.8011 144.603 50.4129 145.098Z" fill="black"/>
    <path d="M74.5909 120.609C79.9583 124.704 92.4752 126.127 96.824 128.421C97.7803 127.043 99.5474 119.256 100.093 117.767C94.7926 117.715 90.9178 111.139 84.0455 107.651C81.3716 106.294 77.0819 106.013 74.2306 107.539C71.3858 109.061 74.188 116.952 74.5909 120.609Z" fill="#FFC19F"/>
    <path d="M79.9834 87.744C78.7849 90.8238 78.2341 94.0939 78.8147 95.9375C79.7581 98.9316 81.562 101.184 84.7458 101.293C87.0784 101.373 90.621 99.9651 94.5994 96.3477C93.2932 94.3323 89.5467 87.6041 86.5518 84.9828C85.6777 87.0654 81.3325 87.5424 79.9834 87.744Z" fill="#FFC19F"/>
    <path opacity="0.2" d="M83.4878 96.1614C85.6234 99.1245 90.7127 99.0847 93.3424 96.5842C92.6667 95.9966 90.8514 88.7949 88.2562 87.0333C85.21 86.0879 84.1436 90.0737 83.2464 89.465C83.9308 90.9513 85.2089 94.0002 83.4878 96.1614Z" fill="#93270D"/>
    <path d="M87.9628 88.5162C86.308 90.166 85.5869 92.0899 86.3523 92.8135C87.118 93.5365 89.0803 92.7856 90.7355 91.135C92.3907 89.485 93.1114 87.5613 92.346 86.8376C91.5802 86.1147 89.618 86.8661 87.9628 88.5162Z" fill="#FFC19F"/>
    <path d="M85.2844 86.1453C83.8597 87.9809 83.4188 89.9488 84.2996 90.5417C85.1802 91.134 87.0487 90.1264 88.4731 88.2915C89.8973 86.4561 90.3385 84.4875 89.4579 83.8951C88.5772 83.3023 86.7085 84.3099 85.2844 86.1453Z" fill="#FFC19F"/>
    <path d="M90.7166 90.7174C88.7661 92.0271 87.6868 93.8395 88.3066 94.7658C88.9262 95.6917 91.01 95.3806 92.9609 94.0703C94.9119 92.7605 95.9912 90.948 95.3715 90.0217C94.7514 89.096 92.6675 89.407 90.7166 90.7174Z" fill="#FFC19F"/>
    <path d="M91.9001 93.6941C90.0003 94.5931 88.7829 96.1191 89.1814 97.1015C89.5794 98.0839 91.4429 98.151 93.3424 97.2515C95.2427 96.3523 96.4596 94.8264 96.0611 93.8441C95.663 92.8617 93.8 92.7944 91.9001 93.6941Z" fill="#FFC19F"/>
    <path opacity="0.2" d="M88.5099 86.1631C88.8882 87.3954 88.6347 88.6426 85.5052 89.5814C83.509 90.1807 81.1771 89.7093 80.853 88.4613C80.5283 87.213 83.7702 85.7014 85.9276 85.0244C88.0849 84.3471 88.2661 85.3704 88.5099 86.1631Z" fill="#93270D"/>
    <path d="M87.6958 85.1589C89.1587 87.8623 85.448 89.2368 83.1697 89.9519C80.8919 90.667 79.2483 89.9733 79.6271 88.7784C80.0784 87.3545 80.4078 85.9526 82.7496 85.4933C85.0594 85.0405 87.298 84.4235 87.6958 85.1589Z" fill="#FFC19F"/>
    <path d="M68.8411 105.069C65.9515 105.004 62.5799 104.339 60.8222 102.889C59.0035 101.388 57.316 97.7002 56.6662 92.8397C66.5495 94.1088 75.6543 94.1923 82.0761 92.1416C81.9839 93.5343 84.7297 99.5211 83.8051 101.271C80.9815 102.792 74.4365 105.195 68.8411 105.069Z" fill="#FFC19F"/>
    <path d="M63.2507 87.5245C64.6871 88.2355 65.306 93.5402 67.868 97.7111C70.6951 102.313 77.1365 107.865 79.386 115.936C77.1762 120.339 70.0811 122.556 63.4418 125.492C57.2588 128.226 47.9064 131.138 44.1871 130.85C41.3715 125.435 35.5314 109.039 33.5083 100.229C31.8318 92.925 33.0927 87.7397 37.2475 85.4428C39.4595 84.2195 47.7135 79.8353 63.2507 87.5245Z" fill="#0FA1D3"/>
    <path d="M58.2166 96.0623C60.5815 96.2092 61.8935 95.219 62.4522 94.1872C63.3376 92.5504 63.0207 89.3034 62.0808 86.4329C56.2432 85.275 48.2293 85.2242 42.9341 88.1809C42.0701 88.8364 42.3226 89.7781 43.6525 90.1317C45.8357 90.7112 48.6191 92.1029 50.341 93.0803C52.6865 94.4123 55.9196 95.9194 58.2166 96.0623Z" fill="#04739E"/>
    <path d="M62.7622 75.9376L61.8701 89.3151C62.0544 92.4491 60.708 94.8968 57.296 94.1429C52.3803 93.0574 50.1535 90.5339 44.7347 88.4645L45.5268 76.8221L62.7622 75.9376Z" fill="#FFC19F"/>
    <path opacity="0.2" d="M64.8068 88.9576C62.2482 93.5034 52.9967 93.1491 44.1431 88.1659C35.2897 83.1831 30.1867 75.4584 32.7453 70.9126C35.3036 66.3669 44.5549 66.7213 53.4083 71.704C62.2619 76.6873 67.3649 84.4114 64.8068 88.9576Z" fill="#93270D"/>
    <path d="M90.6851 61.1149C89.6515 68.1909 84.9894 71.6612 82.0045 70.3549C79.706 69.3488 79.7164 62.8982 80.1242 59.517C80.6598 55.0789 82.9837 50.901 85.2141 50.991C88.7073 51.1326 91.5241 55.3731 90.6851 61.1149Z" fill="#F4B18C"/>
    <path d="M87.499 30.9776C85.142 16.4529 71.3104 9.47724 55.2138 9.09487C40.156 8.73757 23.1912 14.3931 18.7096 30.8591C14.9402 44.7073 20.9216 66.6477 27.0034 75.468C33.9193 85.4976 47.972 90.0205 58.6911 89.8459C67.2373 89.7064 77.61 85.399 82.0448 77.7127C87.833 67.6799 89.0763 40.6957 87.499 30.9776Z" fill="#FFC19F"/>
    <path d="M57.352 62.4531C57.5139 62.4568 57.7159 62.3454 57.7477 62.1742C57.9736 60.9598 58.9209 60.1952 60.1608 60.2264C61.4076 60.2572 62.3347 61.0842 62.4685 62.2845C62.4905 62.4763 62.659 62.6142 62.8424 62.5913C63.028 62.5685 63.1604 62.394 63.1387 62.2015C62.9678 60.6644 61.7503 59.5636 60.1787 59.5242C58.6161 59.4858 57.3729 60.4978 57.0852 62.0425C57.0501 62.2332 57.1694 62.4165 57.352 62.4531Z" fill="#C4735B"/>
    <path d="M34.1584 37.9041C34.3838 37.8702 34.5974 37.7527 34.7543 37.558C36.7572 35.0713 42.7831 33.5356 46.9458 34.4258C47.46 34.5357 47.9696 34.2003 48.0823 33.6629C48.1945 33.1268 47.8587 32.6314 47.3507 32.482C42.7785 31.1344 35.7546 33.2202 33.2898 36.2839C32.9512 36.705 33.0042 37.3313 33.4084 37.6829C33.6261 37.8728 33.8984 37.9436 34.1584 37.9041Z" fill="#772400"/>
    <path d="M84.5502 39.8785C84.8067 39.936 85.0852 39.8844 85.3159 39.7107C85.7466 39.3886 85.8476 38.7679 85.5415 38.3246C83.3181 35.0982 78.462 33.247 73.9979 33.9148C73.474 33.9946 73.1064 34.498 73.1769 35.0399C73.2484 35.5842 73.7278 35.9649 74.2518 35.8813C77.9942 35.3164 82.1779 36.868 83.9831 39.4908C84.124 39.6964 84.3285 39.8284 84.5502 39.8785Z" fill="#772400"/>
    <path d="M84.9896 66.2893C85.0968 67.5824 83.4658 68.7728 81.3469 68.9487C79.2278 69.1243 77.423 68.2193 77.3158 66.9262C77.2081 65.6334 78.8391 64.4429 80.9586 64.2672C83.0776 64.0913 84.8827 64.9968 84.9896 66.2893Z" fill="#FF8A8A"/>
    <path d="M16.4992 25.9912C13.3393 34.2343 14.7931 45.4374 16.4426 52.8103C18.3028 53.3347 24.3968 55.322 27.0926 57.264C27.6148 53.7287 23.3204 40.283 27.6553 30.7872C33.0271 19.0187 48.86 16.1938 57.7862 16.7034C70.1901 17.4118 80.1373 20.6012 84.9521 28.1347C89.2151 34.8044 87.9414 46.7946 87.015 58.7028C87.6094 55.4784 88.0318 51.9413 89.1675 53.1966C90.5207 44.6469 92.9739 33.5057 88.1428 23.4555C84.2023 15.2587 72.0265 7.21658 52.1424 7.19353C33.302 7.17219 21.0265 14.1819 16.4992 25.9912Z" fill="#772400"/>
    <path d="M10.1249 59.7747C11.7534 68.8171 19.7259 73.2597 25.1135 71.9491C29.2626 70.94 28.9723 63.94 27.9552 59.0793C26.9677 54.3607 25.2372 49.6007 20.1465 48.3507C14.1683 46.8831 8.85129 52.7023 10.1249 59.7747Z" fill="#FFC19F"/>
    <path d="M16.6417 61.312C17.6394 65.2572 21.5767 67.4996 24.3413 66.7342C25.2182 66.4911 25.0829 64.1902 24.4445 61.215C23.7271 57.8723 22.7035 55.2657 20.2908 54.9952C17.6803 54.7031 15.8044 58.0001 16.6417 61.312Z" fill="#E0956C"/>
    <path d="M41.243 65.4671C41.046 66.8508 38.7338 67.6653 36.0782 67.2873C33.4233 66.9095 31.4303 65.4817 31.6274 64.098C31.8246 62.7148 34.1365 61.8998 36.7921 62.2778C39.4472 62.656 41.4402 64.0839 41.243 65.4671Z" fill="#FF8A8A"/>
    <path d="M76.1692 9.12706C75.5277 10.8139 74.4283 11.0154 72.9371 10.7532C74.37 7.28228 73.2151 3.97089 66.3722 3.24244C67.4245 7.21332 63.7949 8.1763 54.7908 6.48878C47.5702 5.13571 38.6333 6.06158 34.3779 10.3445C35.8952 10.3381 40.6241 14.6789 41.7984 15.5714C42.8841 16.3963 51.5314 26.008 64.9066 24.552C62.0474 23.9064 53.423 22.8235 46.1093 16.3113C48.1027 17.3906 51.047 18.5839 54.1456 19.6427C67.3851 24.1666 78.5561 19.2204 76.1692 9.12706Z" fill="#772400"/>
    <path d="M69.0091 51.0108C66.5361 54.6986 66.5631 58.9064 68.4314 60.6022C71.2463 63.1579 78.2046 64.21 81.0233 60.8776C83.7533 57.65 82.8975 51.4594 78.9326 48.6078C75.4607 46.1111 71.4024 47.4417 69.0091 51.0108Z" fill="#F9FEFF"/>
    <path d="M82.1094 50.6309C79.2521 44.5634 71.4094 46.1568 68.9262 51.1361C71.3977 47.45 75.6106 46.5082 78.8203 48.8143C80.8036 50.2411 82.1283 52.6651 82.3651 55.2981C82.5534 57.3972 82.0015 59.7118 80.8675 61.0526C82.131 60.2044 84.2105 55.0931 82.1094 50.6309Z" fill="#772400"/>
    <path d="M69.6986 53.3002C68.6202 55.8883 69.527 58.9477 71.7235 60.1332C73.9201 61.3187 76.5749 60.1817 77.6528 57.5937C78.7312 55.0056 77.8244 51.9462 75.6278 50.7607C73.4313 49.5752 70.7764 50.7122 69.6986 53.3002Z" fill="#772400"/>
    <path d="M70.0863 52.8655C69.7872 53.5837 70.0385 54.4321 70.6482 54.7609C71.2574 55.0903 71.9938 54.7745 72.2931 54.0567C72.5922 53.3385 72.3407 52.4896 71.7316 52.1606C71.1219 51.8319 70.3854 52.1472 70.0863 52.8655Z" fill="#FEFFFE"/>
    <path d="M51.4083 49.8797C53.674 53.8496 53.0456 58.0184 50.6976 59.4632C47.1597 61.6412 39.1625 61.8038 36.4565 58.1424C33.836 54.5962 35.6805 48.5665 40.5578 46.2408C44.8276 44.2049 49.2157 46.0378 51.4083 49.8797Z" fill="#F9FEFF"/>
    <path d="M36.6872 47.8451C40.7716 42.1903 49.3908 44.7633 51.4841 50.0146C49.2202 46.0467 44.6026 44.5799 40.655 46.4601C38.2155 47.6238 36.3769 49.8595 35.7362 52.44C35.2257 54.4979 35.5193 56.8626 36.6076 58.3354C35.3028 57.3352 33.6836 52.0035 36.6872 47.8451Z" fill="#772400"/>
    <path d="M39.2341 51.4015C38.0326 53.9817 39.089 57.0506 41.5937 58.256C44.0989 59.4611 47.1039 58.3465 48.3058 55.7661C49.5079 53.1862 48.4516 50.1173 45.9464 48.9121C43.4417 47.7068 40.4362 48.8216 39.2341 51.4015Z" fill="#772400"/>
    <path d="M39.6709 50.9698C39.3375 51.6857 39.6305 52.537 40.3257 52.8714C41.0204 53.2059 41.8546 52.8965 42.1881 52.1807C42.5215 51.4648 42.2285 50.6135 41.5333 50.2791C40.838 49.9447 40.0044 50.254 39.6709 50.9698Z" fill="#FEFFFE"/>
    <path opacity="0.2" d="M49.9663 100.406C47.2316 103.031 41.95 101.965 38.1707 98.0265C34.3909 94.0877 33.5439 88.7671 36.2786 86.1425C39.0135 83.5184 44.677 84.2287 47.9708 88.5821C50.8512 92.3892 52.7012 97.7821 49.9663 100.406Z" fill="#93270D"/>
    <path d="M59.3105 78.4559C57.2491 78.1983 55.7362 76.7264 55.9308 75.1693C56.1258 73.6118 58.0465 74.0597 60.108 74.3178C62.1696 74.5759 63.5904 74.5459 63.3954 76.1033C63.201 77.6609 61.3716 78.7142 59.3105 78.4559Z" fill="#701608"/>
    <path d="M51.0226 109.213C43.16 107.098 38.962 103.843 36.1468 101.127C33.4851 98.558 32.5896 94.7769 33.7705 91.5693C35.1764 87.7501 39.5529 86.3956 44.8734 89.0173C48.5301 90.8195 51.6462 94.7045 54.8126 98.7836C54.8126 98.7836 54.0002 107.37 51.0226 109.213Z" fill="#FFC19F"/>
    <path opacity="0.19" d="M46.0824 89.6986C47.1507 90.2028 52.6128 94.9787 53.8624 97.6181C55.0415 100.109 51.1842 102.358 50.3457 99.7328C49.5077 97.1079 46.7858 91.9492 46.0824 89.6986Z" fill="#91160D"/>
    <path opacity="0.25" d="M65.4285 73.7266L65.3464 73.8445C65.1027 74.1181 64.9206 74.532 64.6855 74.953C65.0088 74.2707 65.3033 73.5451 65.0317 72.8783C64.8309 72.3813 64.3712 72.0194 63.5776 71.7301C62.6142 71.3764 60.936 72.9056 60.5757 73.7412C60.5383 73.7965 58.9433 73.4916 57.6279 75.153C57.2653 75.6109 56.8954 79.9161 57.0317 81.7627C57.4799 87.8249 59.6914 90.1388 60.4151 90.9717C62.4318 92.8025 64.0307 93.0143 65.9404 91.7049C67.2899 90.7783 68.6275 89.1552 69.6861 87.5678C70.8017 85.8953 71.6109 84.2578 71.7942 83.5127C72.0409 82.5154 71.6314 81.2579 70.8998 80.7641C70.7061 80.6349 70.5006 80.5658 70.2834 80.5684C70.3276 80.4011 70.3656 80.2237 70.3897 80.0491C70.534 79.0444 69.5884 78.0696 68.9151 77.6637C68.63 77.4917 68.3612 77.3926 68.1181 77.3653L68.178 77.2334C68.6652 76.1253 68.1454 74.8808 67.4523 74.1912C66.8546 73.6021 66.1489 73.4021 65.5599 73.6674L65.4285 73.7266Z" fill="#91160D"/>
    <path d="M60.2788 102.978C58.5716 105.387 55.7149 108.69 52.2209 109.274C49.1852 109.781 44.5991 105.202 43.2119 100.35C49.8038 96.3968 51.4186 93.9078 60.4228 83.1883C61.5282 84.2274 66.1635 87.6373 67.0199 89.573C65.7471 92.7574 63.0083 99.1264 60.2788 102.978Z" fill="#FFC19F"/>
    <path d="M58.4358 75.3803C59.2992 74.3761 61.2853 73.8303 61.5961 75.1706C61.8455 76.2466 58.4834 82.9991 57.7207 82.2621C57.4032 80.5351 57.5723 76.3845 58.4358 75.3803Z" fill="#FFAE8A"/>
    <path d="M67.9251 78.3181C68.4667 77.9316 70.2053 79.3259 70.0567 80.3763C69.945 81.1643 69.4567 82.0466 70.1217 81.5645C70.8546 81.0334 71.767 82.5834 71.4686 83.7898C71.119 85.2023 68.3985 89.9201 65.8149 91.6914C64.1703 92.8188 62.8226 92.7414 60.9077 90.9999C59.5647 89.4452 58.0636 86.7861 57.7144 82.1041C58.5253 79.2699 60.4257 74.7905 61.4911 73.1051C61.7848 72.4687 62.8661 72.3378 63.5674 72.5945C65.1286 73.166 64.9484 73.9272 64.3981 75.1242C63.7773 76.4746 63.0823 78.1374 62.7069 79.6628C63.496 79.2981 64.9447 75.9754 65.92 74.5166C66.9687 74.0505 68.5101 76.0013 67.8817 77.4284C67.278 78.8007 66.2795 80.7344 65.8558 81.6806C66.4338 80.9759 67.399 79.3351 67.9251 78.3181Z" fill="#FFC19F"/>
    <path d="M60.0254 82.3203C60.0254 82.3203 60.0983 82.3443 60.1612 82.4056C60.2241 82.4664 60.2536 82.5413 60.2536 82.5413C60.2536 82.5413 60.1811 82.517 60.1177 82.4559C60.0549 82.395 60.0254 82.3203 60.0254 82.3203Z" fill="#FFC19F"/>
  </g>
  <rect x="0.5" y="0.5" width="101" height="101" rx="50.5" stroke="#EDEBEB"/>
  <defs>
    <clipPath id="clip0_2_1570">
      <rect width="102" height="102" rx="51" fill="white"/>
    </clipPath>
  </defs>
</svg>