<svg xmlns="http://www.w3.org/2000/svg" width="116" height="144" viewBox="0 0 116 144" fill="none">
  <g clip-path="url(#clip0_22_4659)">
    <path opacity="0.23" d="M72.798 140.15C86.3657 140.15 97.3646 138.215 97.3646 135.829C97.3646 133.443 86.3657 131.509 72.798 131.509C59.2302 131.509 48.2314 133.443 48.2314 135.829C48.2314 138.215 59.2302 140.15 72.798 140.15Z" fill="#AA9E79"/>
    <path d="M71.9492 118.724L71.7253 127.607L75.1314 127.693L75.3553 118.81L71.9492 118.724Z" fill="#999999"/>
    <path d="M73.9956 118.779L73.7717 127.662L75.1341 127.697L75.358 118.813L73.9956 118.779Z" fill="#666666"/>
    <path d="M73.1232 118.755L72.8996 127.638L72.5065 127.628L72.638 118.743L73.1232 118.755Z" fill="#7B7B7B"/>
    <path d="M70.373 119.697C70.3316 121.338 71.6655 121.826 73.3245 121.867L73.9422 121.883C75.6014 121.925 76.9579 121.505 76.9992 119.863L77.1797 112.697C77.221 111.056 75.9093 109.691 74.2501 109.65L73.6324 109.634C71.9732 109.592 70.5946 110.889 70.5533 112.531L70.373 119.697Z" fill="#666666"/>
    <path d="M73.6325 109.634L74.2502 109.65C74.3873 109.653 74.521 109.669 74.6528 109.69L74.387 120.25C74.008 120.949 73.3393 121.479 72.5766 121.811C71.2838 121.644 70.3381 121.082 70.373 119.697L70.5534 112.531C70.5948 110.889 71.9733 109.592 73.6325 109.634Z" fill="#808080"/>
    <path opacity="0.53" d="M70.4652 116.035L70.5534 112.531C70.5947 110.889 71.9733 109.592 73.6325 109.634L74.2502 109.65C74.3298 109.652 74.4082 109.659 74.4858 109.667C74.5414 109.673 74.5962 109.681 74.6509 109.689C74.6515 109.689 74.6522 109.689 74.6528 109.69V109.69C76.1159 109.922 77.2177 111.192 77.1797 112.697L77.1107 115.439C74.9513 116.202 72.6987 116.315 70.4652 116.035Z" fill="#808080"/>
    <path d="M75.1421 127.2L85.8982 131.62C85.8982 131.62 87.5996 132.739 87.3567 134.507L87.2958 135.155L74.9598 134.625L75.1421 127.2Z" fill="#666666"/>
    <path d="M71.7057 127.176L60.246 130.493C60.246 130.493 58.9312 131.404 58.8116 132.436C58.6921 133.468 58.9312 135.168 58.9312 135.168L59.9471 135.535L72.4976 133.832L72.8561 127.153L71.7057 127.176Z" fill="#999999"/>
    <path d="M72.638 127.144L61.2619 130.921C61.2619 130.921 59.9472 131.832 59.8276 132.864C59.7081 133.896 59.9471 135.596 59.9471 135.596L73.5136 134.261L73.8721 127.582L72.638 127.144Z" fill="#7B7B7B"/>
    <path d="M78.2427 135.761C78.1831 134.628 73.8613 128.86 72.6445 127.257L72.6463 127.138L75.1082 127.194C75.1082 127.194 81.3734 134.003 82.0692 135.321C82.765 136.64 81.9301 137.833 81.9301 137.833L78.0082 138.02C78.1262 137.507 78.2882 136.622 78.2427 135.761Z" fill="#999999"/>
    <path d="M72.499 134.33L72.6446 127.257C73.8614 128.86 78.1831 134.628 78.2428 135.761C78.2883 136.622 78.1264 137.507 78.0084 138.02L77.9645 138.022L72.499 134.33Z" fill="#757575"/>
    <path d="M84.135 108.802C84.5007 108.802 84.8681 108.675 85.1666 108.418C92.1911 102.347 91.8759 92.3606 91.8591 91.9386C91.8242 91.0673 91.0886 90.388 90.2187 90.4242C89.3475 90.459 88.6695 91.1934 88.7043 92.0646C88.7075 92.1503 88.9588 100.967 83.1022 106.029C82.4426 106.599 82.3699 107.596 82.9401 108.255C83.2522 108.617 83.6923 108.802 84.135 108.802Z" fill="#A67C52"/>
    <path d="M87.7086 98.6216C87.7544 98.4731 87.7989 98.3255 87.8406 98.1791C88.8418 98.5463 89.8205 98.9828 90.8586 99.1647C90.8126 99.323 90.764 99.483 90.7137 99.6435C89.6732 99.5035 88.7064 99.001 87.7086 98.6216Z" fill="#845D40"/>
    <path d="M87.3516 99.6684C87.4296 99.4575 87.5049 99.247 87.5742 99.0384C88.5726 99.4066 89.5291 99.9194 90.5691 100.09C90.5189 100.239 90.4656 100.39 90.4115 100.541C89.3625 100.382 88.3672 99.9896 87.3516 99.6684Z" fill="#845D40"/>
    <path d="M87.8352 101.038C87.5327 100.93 87.2337 100.813 86.9341 100.699C87.0216 100.5 87.1063 100.301 87.1854 100.102C88.204 100.417 89.1995 100.808 90.2463 100.985C90.1817 101.154 90.1142 101.323 90.0445 101.492C89.2952 101.402 88.5486 101.295 87.8352 101.038Z" fill="#845D40"/>
    <path d="M87.1846 101.806C86.9683 101.718 86.7537 101.626 86.5391 101.537C86.6071 101.402 86.6739 101.267 86.7376 101.131C87.0596 101.253 87.3818 101.377 87.7113 101.487C88.4143 101.723 89.1334 101.835 89.859 101.929C89.7888 102.089 89.7155 102.25 89.6403 102.41C88.8062 102.269 87.9713 102.126 87.1846 101.806Z" fill="#845D40"/>
    <path d="M83.1021 106.029C84.19 105.089 85.0624 104.018 85.7679 102.899C86.775 103.299 87.7919 103.666 88.8378 103.948C87.9199 105.532 86.7248 107.071 85.1666 108.418C84.8681 108.675 84.5008 108.802 84.135 108.802C83.6923 108.802 83.2521 108.617 82.94 108.255C82.3698 107.596 82.4424 106.599 83.1021 106.029Z" fill="#845D40"/>
    <path d="M86.0147 102.499C86.1199 102.321 86.2209 102.141 86.3181 101.961C86.7084 102.127 87.0989 102.296 87.507 102.42C88.139 102.612 88.7846 102.729 89.4321 102.842C89.3182 103.071 89.1984 103.3 89.0737 103.528C88.0309 103.253 87.0175 102.893 86.0147 102.499Z" fill="#845D40"/>
    <path d="M87.9635 97.7306C88.0129 97.5421 88.0591 97.3559 88.1022 97.1722C89.0815 97.6134 90.0523 98.0813 91.0891 98.3163C91.056 98.4475 91.021 98.5802 90.9851 98.7136C89.9434 98.5443 88.9635 98.1004 87.9635 97.7306Z" fill="#845D40"/>
    <path d="M88.2041 96.7149C88.2342 96.5728 88.2633 96.4321 88.29 96.2938C89.2715 96.7486 90.2395 97.242 91.2719 97.5425C91.2484 97.6498 91.224 97.7581 91.1986 97.8671C90.1584 97.6386 89.1829 97.1593 88.2041 96.7149Z" fill="#845D40"/>
    <path d="M88.376 95.8238C88.7497 93.6558 88.7055 92.1003 88.7042 92.0646C88.6694 91.1935 89.3474 90.4591 90.2186 90.4242C91.0886 90.3879 91.8242 91.0673 91.859 91.9386C91.8664 92.1285 91.9343 94.2578 91.3658 97.095C90.33 96.7925 89.3579 96.2764 88.376 95.8238Z" fill="#845D40"/>
    <g opacity="0.39">
      <path d="M83.1021 106.029C88.9588 100.967 88.7075 92.1502 88.7042 92.0645C88.6695 91.1934 89.3474 90.459 90.2186 90.4241C91.0887 90.3878 91.8242 91.0672 91.859 91.9385C91.865 92.09 91.9095 93.4742 91.6391 95.4672C91.1839 95.0661 90.5644 94.9051 90.4654 95.2021C88.769 100.049 86.8757 105.089 82.7423 107.966C82.4021 107.329 82.5331 106.521 83.1021 106.029Z" fill="#623B29"/>
    </g>
    <path d="M60.4037 104.559L90.4237 104.454C90.4237 104.454 91.225 105.608 91.1786 107.254C91.1512 108.223 90.885 109.267 90.7265 109.73C90.4248 111.749 83.7124 113.363 75.4745 113.363C67.1305 113.363 60.9647 111.93 60.2143 109.652C60.0215 109.141 59.7748 108.274 59.7706 107.439C59.7627 105.873 60.4037 104.559 60.4037 104.559Z" fill="#884930"/>
    <path d="M60.4037 104.559L81.8946 104.484C77.6381 105.789 73.1891 106.357 68.8155 107.531C65.9842 108.303 67.3385 110.727 68.0704 112.918C63.6648 112.329 60.718 111.181 60.2142 109.652C60.0214 109.141 59.7747 108.274 59.7705 107.439C59.7627 105.873 60.4037 104.559 60.4037 104.559Z" fill="#753E27"/>
    <path d="M75.4538 108.586C83.8247 108.586 90.6107 106.984 90.6107 105.008C90.6107 103.032 83.8247 101.43 75.4538 101.43C67.0829 101.43 60.297 103.032 60.297 105.008C60.297 106.984 67.0829 108.586 75.4538 108.586Z" fill="#C69C6D"/>
    <path d="M60.3526 104.895C60.3526 106.846 67.0896 108.428 75.4003 108.428C83.711 108.428 90.448 106.846 90.448 104.895C90.448 102.944 83.711 101.362 75.4003 101.362C67.0896 101.362 60.3526 102.944 60.3526 104.895Z" fill="#926647"/>
    <path opacity="0.58" d="M60.3526 104.895C60.3526 102.944 67.0896 101.362 75.4003 101.362C79.0646 101.362 82.4223 101.67 85.0322 102.181C85.754 102.78 86.1874 103.475 85.5039 104.073C80.8858 108.283 74.5496 106.85 68.9344 108.086C63.8598 107.518 60.3526 106.303 60.3526 104.895Z" fill="#623B29"/>
    <path d="M84.9272 91.8771C84.4788 93.1765 85.7974 94.7128 87.7138 95.4206C88.9918 96.0723 89.6302 96.4017 90.9052 97.0679C92.9768 97.8318 95.0359 97.1924 95.4804 95.8579C97.1827 90.7154 98.3572 85.4684 99.0091 80.0807C99.1667 78.7474 97.7821 77.2093 95.6231 76.9466C94.264 77.0307 93.5834 77.0676 92.2194 77.1317C90.2172 76.9002 88.4839 77.7341 88.256 79.0362C87.5392 83.4197 86.4327 87.6889 84.9272 91.8771Z" fill="#926647"/>
    <g opacity="0.58">
      <path d="M84.9272 91.8771C86.4327 87.6889 87.5393 83.4197 88.2559 79.0361C88.4754 77.7817 90.0921 76.9624 92.0002 77.1109C92.232 77.4529 92.4184 77.8584 92.5703 78.2132C93.3221 80.6188 92.871 83.1747 91.5179 85.2795C90.6159 86.7829 88.962 87.8354 89.413 89.7898C89.9056 92.0066 91.3043 94.7271 90.2249 96.713C89.3583 96.2618 88.7433 95.9458 87.7137 95.4206C85.7973 94.7128 84.4788 93.1765 84.9272 91.8771Z" fill="#623B29"/>
    </g>
    <path d="M91.6682 95.9539C94.5249 90.2408 97.0808 83.4752 94.9759 77.3109C94.9263 77.1868 94.85 77.0849 94.7559 76.9991C95.0192 76.9835 95.3018 76.9664 95.6229 76.9465C97.7821 77.2092 99.1666 78.7474 99.009 80.0806C98.357 85.4683 97.1826 90.7153 95.4803 95.8578C95.0357 97.1923 92.9766 97.8318 90.905 97.0678C90.8122 97.0191 90.7235 96.973 90.6369 96.9276C91.0622 96.7855 91.4217 96.4884 91.6682 95.9539Z" fill="#884930"/>
    <path d="M46.7831 113.058C49.7656 115.924 57.6832 117.935 57.6832 117.935C57.6832 117.935 59.4058 116.475 59.338 113.748C60.3183 110.292 63.6154 106.841 63.6154 106.841C79.8367 105.876 77.2336 100.683 77.2336 100.683L65.8013 99.4629C65.8013 99.4629 59.7395 98.4518 54.9465 106.357C53.2956 109.081 52.6192 110.542 52.6192 110.542C52.3952 110.409 47.9889 109.07 46.1895 111.327C45.664 112.257 46.7831 113.058 46.7831 113.058Z" fill="#FFDEBF"/>
    <path opacity="0.89" d="M46.1895 111.327C47.2671 109.975 49.2788 109.913 50.7682 110.11C52.5387 111.446 55.6186 111.509 57.4433 110.295C59.9111 108.705 61.0863 106.054 61.2037 103.51C61.3183 102.372 59.9794 101.739 58.7137 101.905C62.4213 98.8998 65.8012 99.4628 65.8012 99.4628L77.2335 100.683C77.2335 100.683 79.8366 105.876 63.6153 106.841C63.6153 106.841 60.3181 110.292 59.3379 113.748C59.4058 116.475 57.6831 117.935 57.6831 117.935C57.6831 117.935 49.7655 115.923 46.783 113.058C46.783 113.058 45.664 112.257 46.1895 111.327Z" fill="#FFDEBF"/>
    <path d="M51.4583 111.371C51.7949 111.272 52.2431 111.373 52.5799 111.174C52.7921 110.939 52.7546 110.726 52.6324 110.514C52.7053 110.36 53.092 109.558 53.8817 108.168C55.0645 110.146 58.1646 110.799 60.6554 110.799C60.1117 111.724 59.6251 112.735 59.3379 113.748C59.3387 113.78 59.3381 113.811 59.3384 113.843C56.5477 113.626 53.8677 112.539 51.4583 111.371Z" fill="#F2F2F2"/>
    <path d="M48.9289 110.054C50.6874 109.899 52.4785 110.458 52.6192 110.542C52.6192 110.542 52.624 110.532 52.6324 110.514C52.7546 110.726 52.7921 110.939 52.5799 111.174C52.2431 111.373 51.7949 111.272 51.4583 111.371C53.8677 112.539 56.5476 113.626 59.3384 113.843C59.3555 115.614 58.6195 116.837 58.1233 117.459C54.7242 116.665 51.7471 114.975 48.6765 113.431C49.2785 112.357 49.2047 111.208 48.9289 110.054Z" fill="#A67C52"/>
    <path d="M46.1895 111.327C46.8585 110.488 47.888 110.146 48.9289 110.054C49.2048 111.208 49.2787 112.357 48.6766 113.431C51.7472 114.975 54.7243 116.665 58.1234 117.459C57.8729 117.773 57.6831 117.935 57.6831 117.935C57.6831 117.935 49.7655 115.923 46.783 113.058C46.783 113.058 45.664 112.257 46.1895 111.327Z" fill="#C69C6D"/>
    <path d="M77.729 99.5129C77.8743 99.739 80.9349 106.363 68.7737 106.73L63.1315 107.305C63.1315 107.305 63.7171 101.369 60.1292 100.71C62.1108 99.2803 65.6452 98.1195 65.6452 98.1195C65.6452 98.1195 75.4669 95.9884 77.729 99.5129Z" fill="#A67C52"/>
    <path d="M61.0245 99.9024C61.2484 100.036 65.2765 100.127 65.1087 107.442L63.2399 107.571C63.2399 107.571 63.4162 102.521 59.4578 101.316C58.7862 100.849 61.0245 99.9024 61.0245 99.9024Z" fill="#B79E58"/>
    <path d="M51.8076 115.851C55.2194 118.559 63.6604 119.937 63.6604 119.937C63.6604 119.937 65.2883 118.267 64.9173 115.442C65.5545 111.767 68.5974 107.888 68.5974 107.888C85.3314 105.432 82.0573 100.275 82.0573 100.275L70.0543 100.033C70.0543 100.033 63.6499 99.5264 59.5446 108.163C58.1304 111.138 57.5893 112.717 57.5893 112.717C57.3422 112.598 52.6202 111.603 51.0007 114.108C50.5576 115.12 51.8076 115.851 51.8076 115.851Z" fill="#FFDEBF"/>
    <path opacity="0.89" d="M65.6505 104.758C65.1434 105.532 64.1386 106.035 63.1536 105.595C62.5273 105.254 62.2986 104.713 62.0516 104.191C65.8359 99.6998 70.0543 100.033 70.0543 100.033L82.0573 100.275C82.0573 100.275 85.3313 105.432 68.5974 107.888C68.5974 107.888 68.2508 108.33 67.7676 109.057C67.7044 107.457 66.9392 105.868 65.6505 104.758Z" fill="#FFDEBF"/>
    <path d="M56.4755 113.681C56.814 113.548 57.2903 113.613 57.6182 113.376C57.8125 113.113 57.7502 112.895 57.6 112.686C57.6587 112.52 57.9718 111.653 58.6385 110.139C60.0843 112.086 63.3746 112.487 65.9604 112.263C65.4977 113.272 65.104 114.365 64.9173 115.442C64.9217 115.476 64.9245 115.508 64.9283 115.541C62.0072 115.566 59.1052 114.677 56.4755 113.681Z" fill="#F2F2F2"/>
    <path d="M53.7044 112.541C55.5131 112.222 57.434 112.642 57.5893 112.717C57.5893 112.717 57.5931 112.706 57.6 112.686C57.7503 112.895 57.8125 113.113 57.6182 113.376C57.2903 113.613 56.814 113.548 56.4755 113.681C59.1052 114.677 62.0072 115.566 64.9283 115.541C65.141 117.378 64.5116 118.713 64.0651 119.404C60.449 118.884 57.1722 117.397 53.8145 116.069C54.3211 114.9 54.118 113.714 53.7044 112.541Z" fill="#A67C52"/>
    <path d="M51.0007 114.108C51.6029 113.177 52.6339 112.729 53.7044 112.541C54.1179 113.714 54.321 114.9 53.8145 116.069C57.1722 117.397 60.4489 118.884 64.065 119.404C63.8395 119.752 63.6603 119.937 63.6603 119.937C63.6603 119.937 55.2193 118.559 51.8075 115.851C51.8075 115.851 50.5576 115.12 51.0007 114.108Z" fill="#C69C6D"/>
    <path d="M82.4426 99.0155C82.6184 99.2375 86.5253 105.84 73.9404 107.31L68.1463 108.413C68.1463 108.413 67.3694 101.651 63.572 101.289C65.4716 99.6266 69.7444 98.652 69.7444 98.652C69.7444 98.652 79.7061 95.5593 82.4426 99.0155Z" fill="#A67C52"/>
    <path d="M63.5719 101.289C65.4715 99.6267 69.7443 98.6521 69.7443 98.6521C69.7443 98.6521 79.706 95.5593 82.4425 99.0156C82.5042 99.0935 83.0247 99.9575 83.1314 101.109C80.3807 102.425 77.1392 102.558 74.1184 102.1C72.8682 103.919 70.5949 105.169 68.3218 104.828C68.3218 105.624 68.89 106.533 68.2081 107.101C68.1265 107.171 68.0401 107.229 67.9498 107.277C67.5395 105.335 66.384 101.557 63.5719 101.289Z" fill="#936846"/>
    <path d="M64.1418 100.392C64.3889 100.51 69.5826 100.769 70.2139 108.378L68.288 108.68C68.288 108.68 66.9257 103.083 62.6838 102.187C61.9351 101.762 64.1418 100.392 64.1418 100.392Z" fill="#B79E58"/>
    <path d="M64.1418 100.392C64.3445 100.489 67.8728 100.682 69.4846 104.943C68.8328 104.977 68.293 104.619 67.7536 104.26C67.7536 104.918 67.5999 105.576 67.2725 106.124C66.4219 104.521 64.972 102.67 62.6838 102.187C61.9351 101.762 64.1418 100.392 64.1418 100.392Z" fill="#AC844E"/>
    <path d="M69.6758 105.51C73.4507 105.175 75.6864 104.571 77.0108 103.969C76.6778 103.858 76.0451 103.58 75.8459 103.026C75.6936 102.603 75.8278 102.115 76.245 101.576C76.2834 101.526 76.3549 101.517 76.4044 101.556C76.454 101.594 76.4631 101.666 76.4247 101.715C76.0585 102.188 75.9357 102.603 76.0597 102.949C76.2857 103.579 77.2593 103.806 77.2692 103.808C77.2841 103.811 77.2976 103.818 77.3095 103.826C78.1009 103.425 78.5073 103.033 78.7151 102.733C79.0448 102.256 78.958 101.921 78.9536 101.905C78.9361 101.845 78.9702 101.782 79.03 101.764C79.09 101.746 79.1535 101.78 79.1715 101.84C79.1768 101.858 79.2969 102.28 78.9137 102.845C78.2323 103.851 76.08 105.169 69.6958 105.737C69.6925 105.737 69.689 105.737 69.6857 105.737C69.6274 105.737 69.5778 105.693 69.5726 105.634C69.567 105.571 69.6132 105.516 69.6758 105.51Z" fill="#C69C6D"/>
    <path d="M61.8789 97.3092C61.8789 97.3092 63.1193 95.2735 68.4185 88.6369C73.9001 81.3723 76.3995 83.3358 76.3995 83.3358C76.3995 83.3358 78.7768 84.7596 75.2533 89.2976C71.7298 93.8358 66.3314 99.1223 66.3314 99.1223C66.3314 99.1223 65.357 100.612 63.3788 100.324C63.3788 100.324 62.2186 103.274 61.3098 102.647C60.401 102.02 61.5957 100.438 61.5957 100.438C61.5957 100.438 60.4229 102.291 59.9806 102.146C59.2509 101.906 59.9947 99.923 59.9947 99.923C59.9947 99.923 59.0662 101.899 58.4954 101.593C57.9246 101.287 57.9409 99.5746 58.863 98.5003C59.4383 97.916 60.0622 97.0139 61.8789 97.3092Z" fill="#FFDEBF"/>
    <g opacity="0.89">
      <path d="M62.2613 99.3564C62.8489 99.4598 63.4364 99.2532 63.6714 98.943C65.1597 96.849 65.224 94.4605 65.7029 92.088C66.4608 91.1079 67.3582 89.9649 68.4185 88.6369C73.9001 81.3723 76.3995 83.3358 76.3995 83.3358C76.3995 83.3358 78.7768 84.7596 75.2533 89.2976C71.7298 93.8358 66.3314 99.1223 66.3314 99.1223C66.3314 99.1223 65.357 100.612 63.3788 100.324C63.3788 100.324 62.2186 103.274 61.3098 102.647C61.1159 102.513 61.0185 102.336 60.9839 102.14C61.7942 101.366 62.36 100.398 62.2613 99.3564Z" fill="#FFDEBF"/>
      <path d="M61.3987 100.735C61.5082 100.554 61.5957 100.438 61.5957 100.438C61.5957 100.438 61.5194 100.558 61.3987 100.735Z" fill="#FFDEBF"/>
    </g>
    <path d="M73.0252 93.4483L66.5273 90.2173C66.5273 90.2173 72.3395 81.259 75.7128 82.4889C79.0861 83.7187 76.7748 87.8507 76.7748 87.8507L73.0252 93.4483Z" fill="#008AAA"/>
    <path d="M73.4365 85.1652C72.7417 84.5478 72.8338 83.7208 73.2489 83.0399C73.5122 82.9023 73.78 82.7748 74.0519 82.6572C76.5052 81.5948 78.62 82.085 79.8584 82.5995C77.781 83.1008 75.9785 84.4894 74.0048 85.2788C73.7775 85.3926 73.5501 85.1652 73.4365 85.1652Z" fill="#FFDEBF"/>
    <path opacity="0.89" d="M73.0514 83.4391C73.1036 83.3024 73.1705 83.1685 73.2489 83.0399C73.5122 82.9023 73.78 82.7748 74.0519 82.6572C76.5052 81.5948 78.62 82.085 79.8584 82.5995C78.9608 82.8161 78.1146 83.1986 77.2837 83.6267C75.8925 83.7826 74.4667 83.6822 73.0514 83.4391Z" fill="#FFDEBF"/>
    <path d="M65.826 97.2893C66.9925 88.6066 69.7193 84.8824 73.2489 83.0399C72.8338 83.7208 72.7417 84.5478 73.4364 85.1652C73.5501 85.1652 73.7773 85.3926 74.0047 85.2789C75.9784 84.4894 77.7809 83.1009 79.8583 82.5997C80.5972 82.9068 81.0242 83.2227 81.0242 83.2227C81.0242 83.2227 83.2177 84.1417 82.9044 87.3227C82.591 90.5034 83.2177 98.2083 83.2177 98.2083C83.2177 98.2083 84.3145 100.329 84.1578 101.177C84.0011 102.025 71.3998 102.19 66.9227 99.1979C64.8076 97.7841 65.826 97.2893 65.826 97.2893Z" fill="#009DB7"/>
    <path d="M72.4136 85.1652C72.3342 84.5304 72.4219 83.8958 72.7136 83.3384C72.8899 83.2337 73.0682 83.1342 73.2489 83.04C72.8338 83.7209 72.7417 84.5479 73.4365 85.1653C73.5502 85.1653 73.7774 85.3927 74.0047 85.279C75.9785 84.4895 77.781 83.101 79.8583 82.5997C80.1844 82.7353 80.4496 82.8725 80.6444 82.9835C78.4945 83.1378 76.7279 85.1445 74.6867 85.961C73.7775 86.1881 72.6409 86.1881 72.4136 85.1652Z" fill="#008AAA"/>
    <path d="M65.935 97.7814C69.3447 93.9169 73.4365 91.3028 76.9599 87.4384C78.3238 85.9608 80.256 85.2789 82.3019 85.6199C82.5016 85.6533 82.6912 85.7365 82.8629 85.856C82.9362 86.281 82.9593 86.7664 82.9046 87.3227C82.8287 88.0919 82.8081 89.1262 82.8201 90.2519C81.5391 93.0993 80.2495 96.1964 77.1873 97.4405C77.2613 99.1424 76.4195 100.555 75.1334 101.459C71.9762 101.124 68.7633 100.428 66.923 99.1978C66.2323 98.7361 65.8769 98.373 65.71 98.0926C65.7769 97.9868 65.8505 97.8827 65.935 97.7814Z" fill="#048FA6"/>
    <path opacity="0.89" d="M64.8715 101.769C64.8788 101.76 64.8832 101.755 64.8832 101.755C64.8832 101.755 64.8785 101.76 64.8715 101.769Z" fill="#FFDEBF"/>
    <path d="M66.0605 99.3471C66.0605 99.3471 67.5018 97.2732 73.4867 90.5962C79.7109 83.2662 82.1069 85.5144 82.1069 85.5144C82.1069 85.5144 84.4228 87.1822 80.4329 91.7546C76.4428 96.327 70.4696 101.567 70.4696 101.567C70.4696 101.567 69.3466 103.08 67.3442 102.642C67.3442 102.642 65.9084 105.69 65.03 104.965C64.1516 104.24 65.508 102.643 65.508 102.643C65.508 102.643 64.1513 104.529 63.7103 104.345C62.9829 104.042 63.9111 101.99 63.9111 101.99C63.9111 101.99 62.7943 104.022 62.2351 103.66C61.6761 103.297 61.8364 101.483 62.8709 100.407C63.5095 99.8264 64.2241 98.9123 66.0605 99.3471Z" fill="#FFDEBF"/>
    <path opacity="0.89" d="M66.9068 101.938C67.7448 102.048 68.583 102.375 69.3014 101.829C71.5763 99.7537 73.7315 97.5689 75.8866 95.3844C74.4628 94.4853 73.2382 93.4043 71.6654 92.6412C72.2056 92.0301 72.8097 91.3512 73.4866 90.5962C79.7108 83.2662 82.1068 85.5143 82.1068 85.5143C82.1068 85.5143 84.4227 87.1821 80.4328 91.7545C76.4427 96.327 70.4695 101.567 70.4695 101.567C70.4695 101.567 69.3465 103.08 67.3441 102.642C67.3441 102.642 65.9734 105.55 65.0912 105.007C66.3243 104.607 66.9068 103.122 66.9068 101.938Z" fill="#FFDEBF"/>
    <path d="M77.8025 96.0034L71.4168 92.144C71.4168 92.144 78.1218 83.0415 81.4745 84.5707C84.8269 86.1 82.1129 90.3235 82.1129 90.3235L77.8025 96.0034Z" fill="#008AAA"/>
    <path d="M62.9353 60.4842C64.6211 55.5156 67.6377 50.1036 72.6949 48.0629C80.5913 44.7802 89.9074 48.9502 94.3435 55.6932C98.4665 61.8357 98.7582 70.9302 93.2527 76.318C94.338 77.3934 94.9224 79.0652 94.4323 80.5358C93.3352 83.6805 89.1038 83.9313 86.9549 81.9348C81.33 84.0847 73.6387 83.8708 68.791 81.0682C62.048 77.1643 56.1923 67.0499 62.9353 60.4842Z" fill="#FFDEBF"/>
    <g opacity="0.89">
      <path d="M72.6949 48.0629C80.5913 44.7802 89.9074 48.9502 94.3436 55.6932C98.3383 61.6447 98.7363 70.3673 93.7495 75.8049C92.9911 75.674 92.1382 75.8755 91.432 76.289C91.4242 76.2901 91.4163 76.291 91.4086 76.292C89.9754 76.5125 89.4241 77.6149 88.3217 78.2764C91.188 74.0869 87.3294 69.8975 87.6601 65.7081C87.7703 64.0544 88.9831 62.2904 90.5266 60.9674C85.2346 59.9752 80.1632 58.3215 75.9739 54.573C74.1788 52.8725 72.3855 50.6858 72.3249 48.222C72.4474 48.1674 72.5701 48.1133 72.6949 48.0629Z" fill="#FFDEBF"/>
    </g>
    <g opacity="0.89">
      <path d="M92.7317 77.7251C93.3881 77.8891 93.3728 78.542 93.3219 79.1831C92.8151 78.2524 91.4848 77.9317 90.637 78.4968C90.5267 78.607 90.637 78.9378 90.637 79.0479C90.9677 79.4892 91.6292 79.3788 91.7394 79.8197C91.8497 80.2608 91.8497 80.9222 91.1882 80.7018C90.4164 80.3711 89.9755 79.4892 90.1959 78.7174C89.0936 79.9302 90.0857 80.7018 90.9677 81.6941C90.4164 81.6941 89.6448 82.1351 89.4243 81.8043C87.8807 79.5993 90.3061 77.0635 92.7317 77.7251Z" fill="#FFDEBF"/>
    </g>
    <g opacity="0.89">
      <path d="M65.759 75.7808C66.5076 76.2313 67.2743 76.5378 68.058 76.7048C67.1779 77.5311 66.1716 76.6686 65.759 75.7808Z" fill="#FFDEBF"/>
    </g>
    <path d="M85.4553 58.2479C88.5422 59.1299 90.0857 59.5709 92.8052 60.1589C90.0547 62.6432 88.9654 63.9698 89.4977 68.3172C89.7639 70.003 90.7875 72.4947 91.2382 74.1478C91.5043 75.1237 87.8667 79.8261 92.2142 76.1884C92.2823 76.1315 93.7225 76.7209 93.3677 76.7209C93.3677 76.7209 97.9246 73.3837 99.1668 69.0362C100.409 64.6887 97.6264 60.1294 97.6264 60.1294C98.6024 56.7579 94.9367 50.1632 89.9075 48.1517C89.9075 48.1517 84.6469 45.9001 79.7224 45.606C74.798 45.3121 74.5775 42.9601 74.5775 42.9601C74.5775 42.9601 73.4015 44.5037 73.8426 46.0471C73.8426 46.0471 72.5196 46.2675 72.1521 45.459C71.8581 45.7531 70.682 47.1495 72.9606 50.016C72.9606 50.016 78.1499 56.1606 85.4553 58.2479Z" fill="#562911"/>
    <g opacity="0.89">
      <path d="M70.2955 65.5465C70.1161 65.5268 69.9019 65.8569 69.7402 65.663C69.2773 65.2892 69.1341 64.7985 69.0282 64.1646C69.6362 64.3226 70.2057 64.9606 70.2955 65.5465Z" fill="#FFDEBF"/>
    </g>
    <path opacity="0.89" d="M79.6045 67.4933C79.2413 68.5019 78.36 69.0984 77.6371 68.8202C76.9128 68.5441 76.6203 67.5025 76.9829 66.4936C77.3456 65.4832 78.2268 64.8899 78.9506 65.1665C79.6742 65.4418 79.9665 66.485 79.6045 67.4933Z" fill="#FFDEBF"/>
    <path d="M79.4857 67.4162C79.1224 68.4249 78.2413 69.0212 77.5182 68.7431C76.794 68.4671 76.5014 67.4254 76.864 66.4165C77.2267 65.4061 78.1079 64.8129 78.8318 65.0894C79.5553 65.3647 79.8478 66.4079 79.4857 67.4162Z" fill="white"/>
    <path d="M77.3337 68.06C77.8245 68.2273 78.4391 67.807 78.7017 67.1257C78.9662 66.4418 78.7833 65.754 78.2895 65.5898C77.8008 65.4223 77.1884 65.8417 76.9223 66.525C76.6591 67.2048 76.8419 67.894 77.3337 68.06Z" fill="#883E28"/>
    <path d="M77.3187 67.6697C77.6093 67.7684 77.9718 67.5199 78.1292 67.1157C78.2856 66.7115 78.1761 66.3055 77.8852 66.207C77.5943 66.1082 77.2314 66.356 77.074 66.76C76.9188 67.1655 77.028 67.5729 77.3187 67.6697Z" fill="#4D1700"/>
    <path d="M78.1025 67.076C78.2223 67.1362 78.3823 67.0319 78.4609 66.84C78.5382 66.6471 78.5048 66.4422 78.3837 66.3817C78.2654 66.3203 78.1045 66.426 78.0261 66.6171C77.9482 66.8091 77.9825 67.015 78.1025 67.076Z" fill="white"/>
    <path opacity="0.61" d="M77.6501 67.1416C77.7099 67.4586 77.8057 67.785 78.0086 67.9696C77.7864 68.0936 77.5482 68.133 77.3336 68.0601C77.327 68.0581 77.3212 68.0551 77.3147 68.0523C77.264 67.6937 77.2799 67.3094 77.6501 67.1416Z" fill="#883E28"/>
    <path opacity="0.89" d="M67.7614 61.1685C67.6513 62.175 66.9392 62.9214 66.1706 62.8306C65.4012 62.7419 64.8668 61.8539 64.9765 60.8475C65.0856 59.8395 65.7985 59.0961 66.5675 59.1853C67.336 59.2733 67.8706 60.1626 67.7614 61.1685Z" fill="#FFDEBF"/>
    <path d="M67.6277 61.1248C67.5175 62.1313 66.8055 62.8776 66.0368 62.7868C65.2674 62.6982 64.7331 61.8103 64.8426 60.8037C64.9518 59.7957 65.6647 59.0523 66.4336 59.1416C67.2022 59.2296 67.7367 60.1189 67.6277 61.1248Z" fill="white"/>
    <path d="M65.6934 62.2027C66.2101 62.2448 66.7055 61.7203 66.7967 61.0366C66.889 60.35 66.5463 59.7614 66.0275 59.7229C65.5129 59.6804 65.0193 60.2036 64.9252 60.8899C64.833 61.5723 65.1762 62.1622 65.6934 62.2027Z" fill="#883E28"/>
    <path d="M65.5851 61.8488C65.8909 61.8732 66.1831 61.5634 66.2388 61.1573C66.2933 60.7513 66.0895 60.4043 65.7833 60.38C65.4773 60.3556 65.1846 60.6648 65.1289 61.0708C65.0758 61.4774 65.2796 61.8258 65.5851 61.8488Z" fill="#4D1700"/>
    <path d="M66.2033 61.1269C66.3339 61.1549 66.4643 61.0231 66.4943 60.8295C66.523 60.6352 66.4414 60.4551 66.3093 60.4272C66.1797 60.3977 66.049 60.5311 66.0189 60.7239C65.9893 60.9175 66.0721 61.0982 66.2033 61.1269Z" fill="white"/>
    <path opacity="0.61" d="M65.7798 61.2897C65.9141 61.5665 66.0856 61.8438 66.3269 61.9669C66.141 62.131 65.9193 62.2211 65.6934 62.2028C65.6865 62.2027 65.6801 62.2011 65.6732 62.2001C65.5377 61.8831 65.4609 61.5275 65.7798 61.2897Z" fill="#883E28"/>
    <path d="M83.3658 64.2075C83.1335 63.7934 83.0908 63.3482 82.9196 62.915C82.6974 62.3509 82.2356 62.1306 81.7688 61.7373C81.6763 61.6589 81.7093 61.5255 81.8276 61.5009C83.306 61.1885 83.9836 63.4164 83.4284 64.2091C83.4162 64.226 83.3789 64.2302 83.3658 64.2075Z" fill="#754C28"/>
    <path d="M66.7962 56.3743C66.6417 55.9534 66.9488 55.642 67.2938 55.4527C67.6142 55.2774 68.2377 55.1338 68.5315 55.4336C68.5824 55.4847 68.5465 55.5682 68.4938 55.5983C68.2421 55.742 67.8878 55.7299 67.6139 55.8249C67.3195 55.9268 67.0261 56.1045 66.8517 56.3798C66.8389 56.4009 66.8041 56.3973 66.7962 56.3743Z" fill="#754C28"/>
    <path d="M72.9785 73.8599C71.4902 75.345 69.1504 76.3615 66.626 75.0388C65.24 74.3125 64.3477 73.1656 63.81 71.8958C66.8797 70.8317 70.5397 71.5708 72.9785 73.8599Z" fill="#F05B80"/>
    <path d="M65.9146 65.5079C68.2076 66.7396 72.6788 69.1293 74.1332 69.821C74.3371 69.918 74.473 70.079 74.5491 70.2856C71.2223 70.0018 67.9654 68.1556 65.9146 65.5079Z" fill="white"/>
    <path d="M64.5269 64.7608C64.5269 64.7608 65.0749 65.0568 65.9146 65.5079C67.9653 68.1556 71.2223 70.0018 74.5491 70.2857C74.8494 71.1013 74.2025 72.6387 72.9784 73.8599C70.5397 71.5708 66.8796 70.8317 63.81 71.8958C62.3591 68.4695 63.4961 64.1462 64.5269 64.7608Z" fill="#C52A47"/>
    <path opacity="0.23" d="M37.5229 134.278C37.8332 134.013 37.9976 133.74 37.9976 133.461C37.9976 131.11 26.4904 129.204 12.2954 129.204C-1.89952 129.204 -13.4068 131.11 -13.4068 133.461C-13.4068 135.812 -1.89952 137.717 12.2954 137.717C12.811 137.717 13.3227 137.714 13.8308 137.71C15.487 139.109 21.6604 140.15 29.0242 140.15C37.657 140.15 44.6553 138.72 44.6553 136.957C44.6553 135.834 41.8154 134.847 37.5229 134.278Z" fill="#AA9E79"/>
    <path d="M11.6147 115.247L8.01595 115.263L8.05724 124.648L11.656 124.632L11.6147 115.247Z" fill="#999999"/>
    <path d="M9.44856 115.258L8.00914 115.264L8.0495 124.65L9.48892 124.644L9.44856 115.258Z" fill="#666666"/>
    <path d="M10.3687 115.252L10.4096 124.637L10.8249 124.635L10.8814 115.25L10.3687 115.252Z" fill="#7B7B7B"/>
    <path d="M13.2523 116.306C13.2597 118.041 11.8405 118.526 10.0876 118.534L9.43493 118.537C7.68216 118.544 6.25877 118.071 6.25118 116.337L6.21835 108.766C6.21096 107.031 7.62581 105.619 9.37867 105.612L10.0316 105.609C11.7844 105.601 13.2119 107.001 13.2191 108.735L13.2523 116.306Z" fill="#666666"/>
    <path d="M10.0316 105.609L9.37868 105.612C9.23391 105.612 9.09231 105.626 8.95282 105.645L9.0014 116.803C9.38616 117.549 10.0806 118.124 10.879 118.49C12.2474 118.342 13.2587 117.77 13.2523 116.307L13.2191 108.736C13.2119 107.001 11.7844 105.601 10.0316 105.609Z" fill="#808080"/>
    <path opacity="0.53" d="M13.2355 112.438L13.2191 108.735C13.2119 107.001 11.7844 105.601 10.0316 105.609L9.37867 105.612C9.29467 105.612 9.21173 105.617 9.12965 105.625C9.07061 105.63 9.01263 105.637 8.95493 105.645C8.95407 105.645 8.95349 105.645 8.95282 105.645V105.645C7.40261 105.858 6.21106 107.175 6.21836 108.766L6.23074 111.662C8.49432 112.516 10.8707 112.685 13.2355 112.438Z" fill="#808080"/>
    <path d="M8.0511 124.125L-3.4043 128.555C-3.4043 128.555 -5.22561 129.7 -5.00788 131.573L-4.95806 132.258L8.08037 131.97L8.0511 124.125Z" fill="#666666"/>
    <path d="M11.6804 124.175L23.7088 127.93C23.7088 127.93 25.0772 128.92 25.1807 130.013C25.2842 131.105 24.9944 132.896 24.9944 132.896L23.9134 133.261L10.698 131.187L10.4661 124.126L11.6804 124.175Z" fill="#999999"/>
    <path d="M10.6965 124.121L22.6264 128.36C22.6264 128.36 23.9948 129.35 24.0983 130.443C24.2018 131.536 23.9121 133.326 23.9121 133.326L9.61568 131.617L9.38365 124.556L10.6965 124.121Z" fill="#7B7B7B"/>
    <path d="M4.58866 133.097C4.67641 131.902 9.36706 125.906 10.6874 124.24L10.6877 124.115L8.087 124.119C8.087 124.119 1.32111 131.172 0.557526 132.549C-0.20625 133.926 0.649205 135.205 0.649205 135.205L4.78642 135.488C4.67314 134.944 4.52185 134.005 4.58866 133.097Z" fill="#999999"/>
    <path d="M10.6854 131.712L10.6874 124.24C9.36706 125.906 4.67641 131.902 4.58866 133.097C4.52175 134.005 4.67314 134.944 4.78642 135.487L4.83289 135.491L10.6854 131.712Z" fill="#757575"/>
    <path d="M-1.04068 104.499C-1.4268 104.491 -1.81233 104.35 -2.12155 104.071C-9.40584 97.5056 -8.85326 86.9672 -8.82648 86.5219C-8.77032 85.6027 -7.9786 84.9013 -7.06075 84.9588C-6.14174 85.0149 -5.442 85.8052 -5.49739 86.7242C-5.50286 86.8148 -5.96232 96.1201 0.110931 101.594C0.795028 102.21 0.850036 103.264 0.233332 103.949C-0.104205 104.323 -0.573165 104.509 -1.04068 104.499Z" fill="#A67C52"/>
    <path d="M0.110954 101.594C-1.01695 100.577 -1.91465 99.4274 -2.63503 98.2303C-3.70725 98.6295 -4.78927 98.9948 -5.8998 99.2701C-4.96562 100.963 -3.73711 102.615 -2.12153 104.07C-1.81231 104.35 -1.42687 104.491 -1.04066 104.499C-0.573142 104.509 -0.104182 104.323 0.23345 103.948C0.849962 103.264 0.79505 102.21 0.110954 101.594Z" fill="#845D40"/>
    <g opacity="0.39">
      <path d="M0.110909 101.594C-5.96234 96.12 -5.50288 86.8147 -5.49741 86.7241C-5.44202 85.8051 -6.14176 85.0148 -7.06077 84.9588C-7.97863 84.9013 -8.77034 85.6026 -8.8265 86.5218C-8.8361 86.6819 -8.91338 88.1425 -8.67155 90.2529C-8.18224 89.8394 -7.52416 89.6831 -7.42653 89.9989C-5.74163 95.1542 -3.85293 100.519 0.448255 103.647C0.821598 102.982 0.700926 102.125 0.110909 101.594Z" fill="#623B29"/>
    </g>
    <path d="M24.1126 100.541L-7.58597 99.7692C-7.58597 99.7692 -8.45717 100.971 -8.4446 102.71C-8.43682 103.734 -8.17887 104.842 -8.02133 105.334C-7.74735 107.473 -0.694613 109.325 8.00452 109.506C16.8159 109.69 23.358 108.312 24.2006 105.923C24.4153 105.387 24.6948 104.477 24.7178 103.596C24.7607 101.943 24.1126 100.541 24.1126 100.541Z" fill="#884930"/>
    <path d="M24.1125 100.541L1.42035 99.9884C5.88637 101.46 10.5717 102.158 15.1648 103.494C18.1372 104.371 16.6538 106.902 15.8331 109.2C20.498 108.674 23.635 107.527 24.2008 105.923C24.4155 105.387 24.695 104.477 24.718 103.596C24.7606 101.943 24.1125 100.541 24.1125 100.541Z" fill="#753E27"/>
    <path d="M24.2156 101.017C24.172 103.104 16.9711 104.647 8.13153 104.463C-0.708433 104.279 -7.83902 102.437 -7.79544 100.351C-7.75195 98.2641 -0.550992 96.7217 8.28888 96.9058C17.1283 97.0898 24.2588 98.9306 24.2156 101.017Z" fill="#C69C6D"/>
    <path d="M24.1589 100.896C24.116 102.957 16.9673 104.479 8.19115 104.296C-0.584693 104.113 -7.66431 102.295 -7.62159 100.234C-7.57848 98.1744 -0.429462 96.6522 8.34657 96.8351C17.1226 97.0178 24.202 98.8361 24.1589 100.896Z" fill="#926647"/>
    <path opacity="0.58" d="M24.1589 100.896C24.2019 98.8361 17.1226 97.0178 8.34656 96.8351C4.47719 96.7546 0.92442 97.0056 -1.84268 97.4877C-2.61817 98.1046 -3.09059 98.8289 -2.38249 99.4752C2.40157 104.023 9.12416 102.648 15.0265 104.077C20.3977 103.589 24.1282 102.383 24.1589 100.896Z" fill="#623B29"/>
    <path d="M25.9175 127.776L24.702 127.039L24.8234 129.709C25.0233 129.698 26.456 129.183 26.456 129.183L25.9175 127.776Z" fill="#4A211C"/>
    <path d="M23.4062 126.253L23.6384 129.149C23.6384 129.149 24.3552 129.728 24.8177 129.709C24.8194 129.709 24.8215 129.709 24.8233 129.709L24.702 127.039L23.4062 126.253Z" fill="#5E2F2A"/>
    <path d="M32.8301 129.205C31.8456 128.341 31.0112 127.281 30.4691 126.089C29.9269 124.898 29.4482 123.361 29.8669 122.147L29.8875 122.08C30.8482 119.125 37.4271 98.8629 37.6168 97.6995C37.8216 96.4443 35.8631 94.4069 34.6565 94.7827C33.4499 95.1586 29.8645 99.5848 29.8645 99.5848C29.8645 99.5848 28.7861 102.043 28.0097 105.925C27.6079 107.935 26.4993 119.283 26.2915 121.429C26.1715 122.134 26.1303 122.487 25.5406 123.119C24.9014 123.803 24.4333 124.265 23.8927 125.029C23.3521 125.793 23.2916 126.584 23.5961 127.47C23.952 128.505 25.0232 129.079 25.9528 129.659C27.6318 130.708 28.8486 132.22 30.6461 133.049C32.4436 133.878 33.6 134.666 35.4709 133.02L35.5719 132.928C35.6602 132.85 35.7955 132.694 35.8369 132.584C36.1852 131.655 34.0334 130.261 32.8301 129.205Z" fill="#FDDCBE"/>
    <g opacity="0.89">
      <path d="M29.8672 122.147L29.8879 122.08C29.8959 122.055 29.9044 122.029 29.9132 122.002C30.7608 116.032 32.3087 110.141 33.248 103.968C33.5089 101.794 31.6422 100.25 29.7896 99.7644C29.5322 100.396 28.664 102.655 28.01 105.925C27.6081 107.935 26.4995 119.284 26.2918 121.43C26.1718 122.134 26.1306 122.487 25.5409 123.119C24.9016 123.803 24.4335 124.265 23.8929 125.029C23.3524 125.794 23.2919 126.584 23.5964 127.47C23.9523 128.505 25.0234 129.079 25.9531 129.66C26.9854 130.304 27.8432 131.124 28.7685 131.852C29.1266 131.232 29.3414 130.557 29.312 129.792C29.312 127.66 29.4671 125.557 29.72 123.467C29.6883 123.007 29.7254 122.559 29.8672 122.147Z" fill="#FDDCBE"/>
    </g>
    <path d="M32.8304 129.205C32.4575 128.878 32.1062 128.522 31.784 128.142C31.717 128.609 31.556 129.033 31.1788 129.339C30.5614 129.739 29.7516 129.488 29.1777 129.112C27.5473 127.723 24.1685 125.985 25.2021 123.479C24.7259 123.984 24.3334 124.406 23.8928 125.029C23.3522 125.794 23.2918 126.584 23.5963 127.47C23.9521 128.505 25.0233 129.079 25.953 129.66C27.6319 130.708 28.8487 132.22 30.6461 133.049C31.4466 133.418 32.2767 133.916 33.1757 133.977C34.0659 134.038 35.2854 133.492 35.7568 132.711C36.1609 132.042 35.3089 131.303 34.8676 130.898C34.2164 130.301 33.4943 129.788 32.8304 129.205Z" fill="#5E2F2A"/>
    <path d="M16.6491 96.8649C16.6491 96.8649 29.0457 100.511 32.0936 100.949C35.6437 101.46 37.4203 97.3245 36.4981 95.605C35.576 93.8854 20.3966 85.274 17.8394 85.2757C15.2821 85.2773 13.1961 94.6942 16.6491 96.8649Z" fill="#FDDCBE"/>
    <g opacity="0.8">
      <path d="M35.7544 94.8433C32.4972 92.1553 20.1253 85.2742 17.8392 85.2757C15.282 85.2773 13.1961 94.6942 16.6489 96.8649C16.6489 96.8649 24.5292 99.1825 29.2687 100.344C29.4077 99.9202 29.5841 99.5215 29.792 99.168C31.0232 97.0134 33.2416 95.0457 35.7544 94.8433Z" fill="#FEDCC6"/>
    </g>
    <path d="M9.7596 103.868C9.7596 103.868 23.9397 106.717 27.4012 107.047C31.4332 107.431 33.1836 102.908 32.0316 100.796C30.8796 98.6844 13.2156 88.8924 10.3356 89.0844C7.4556 89.2764 5.7276 101.372 9.7596 103.868Z" fill="#FDDCBE"/>
    <path opacity="0.89" d="M22.592 103.68C24.288 101.448 26.3163 98.1385 29.2938 98.5339C23.9449 94.9235 12.5942 88.9337 10.3356 89.0843C7.4556 89.2763 5.7276 101.372 9.7596 103.868C9.7596 103.868 16.8169 105.286 22.1895 106.237C21.9642 105.379 21.9756 104.502 22.592 103.68Z" fill="#FDDCBE"/>
    <path d="M42.9392 64.0457C44.0284 63.9066 46.1524 63.4156 47.391 62.7852C48.6922 62.1375 48.7674 61.7218 49.5668 60.5393C50.0785 59.839 51.2296 57.8325 49.8799 57.4737C49.9626 56.882 50.1615 56.0757 49.7596 55.6456C49.3078 55.1629 48.7684 55.3779 48.4834 54.7333C48.4388 54.5718 48.3491 54.3072 48.1427 54.1425C47.8799 53.9301 47.518 53.7947 47.4352 53.4972C47.3009 53.0131 47.7628 52.3746 48.2115 51.7226C48.8804 50.7501 52.6265 46.9991 51.6219 46.2665C51.0311 45.8357 45.1888 51.8866 44.2893 52.9632C42.7617 54.954 41.9134 56.5637 40.8246 58.774L39.7503 60.2652L36.0057 63.5834L39.3057 67.4031L42.9392 64.0457Z" fill="#FDDCBE"/>
    <path opacity="0.8" d="M46.4763 60.8525C46.2505 60.9016 46.0107 60.8962 45.7558 60.8135C45.094 60.6 45.0775 59.9102 45.3106 59.3279C45.3078 59.3282 45.3052 59.3294 45.3029 59.3289C45.0413 59.3279 44.7746 59.3014 44.5731 59.128C44.3029 58.8936 44.3318 58.4524 44.3789 58.1197C44.5178 57.1333 45.0257 56.0798 45.5202 55.2189C45.5816 55.1119 45.739 55.1796 45.6865 55.2952C45.3044 56.1437 44.8497 56.9575 44.6063 57.8594C44.5117 58.212 44.4021 58.7228 44.679 59.0031C44.8402 59.1683 45.1153 59.1726 45.3345 59.1746C45.3503 59.1749 45.3737 59.1591 45.3998 59.1353C45.4077 59.1198 45.4147 59.104 45.4224 59.0892C45.4404 59.058 45.4651 59.0407 45.492 59.0338C45.6256 58.8697 45.7904 58.6139 45.8354 58.5558C45.9927 58.3565 46.1489 58.1554 46.3056 57.9551C46.63 57.5373 46.9546 57.1164 47.2995 56.715C47.3475 56.6605 47.4233 56.7271 47.3799 56.7848C46.9906 57.3115 46.5825 57.8271 46.1818 58.346C46.0581 58.5067 45.8454 58.8933 45.6252 59.1308C45.6235 59.1445 45.6194 59.1593 45.6109 59.1748C45.2695 59.7858 45.2265 60.5456 46.0284 60.6698C47.1378 60.8429 47.6714 59.6042 48.4225 58.983C48.4788 58.9363 48.5449 59.0191 48.5007 59.0722C48.0285 59.6461 47.475 60.4394 46.7825 60.7506C46.3447 61.1583 46.2567 61.6562 46.7217 62.0339C46.8977 62.1791 47.1354 62.2625 47.3671 62.2596C47.5725 62.2569 47.6847 62.1057 47.8699 62.0641C47.902 62.0576 47.9371 62.0894 47.9359 62.1214C47.927 62.382 47.5857 62.4695 47.379 62.48C47.0867 62.4956 46.8063 62.3669 46.5841 62.1967C46.11 61.8321 46.124 61.2735 46.4763 60.8525Z" fill="#FEDCC6"/>
    <path d="M42.309 56.6986L42.8555 61.3549C44.7091 61.2996 44.727 59.471 44.5622 57.4097C45.6702 57.7712 47.063 57.5866 47.2038 56.2179C44.6207 55.3538 44.0424 54.8155 42.309 56.6986Z" fill="#FEDCC6"/>
    <g opacity="0.8">
      <path d="M43.7619 56.5096C44.219 57.9331 44.7374 60.5485 42.8698 61.2862L42.8734 61.2971C44.7267 61.2412 44.7271 59.471 44.5622 57.4097C45.6606 57.7682 47.038 57.5888 47.1997 56.2523C46.4203 57.5867 44.6563 57.7152 43.7619 56.5096Z" fill="#FEDCC6"/>
    </g>
    <path d="M41.1652 65.7246L42.1703 64.7734L38.6194 60.6489L37.7771 61.4624C37.7771 61.4624 39.8517 64.9784 41.1652 65.7246Z" fill="#78CCD2"/>
    <path d="M13.087 54.3966C14.2297 53.2633 16.0685 53.2688 17.1968 54.4027C22.3141 59.5581 28.4222 65.4107 31.1409 67.6496L31.1412 67.6497C32.7425 66.183 35.4994 63.4587 38.0126 60.8957C39.0533 62.5373 40.3317 64.0114 41.7666 65.3455C41.7666 65.3455 41.7667 65.3458 41.7666 65.346C34.0343 73.233 32.9587 73.6694 32.4293 73.8825C30.4924 74.6623 28.8887 73.4026 26.4333 71.2803C25.0042 70.0465 23.1098 68.3019 20.8028 66.0962C16.9052 62.3705 13.0991 58.5423 13.0614 58.5027C11.9344 57.3661 11.9463 55.5285 13.087 54.3966Z" fill="#F5FBFD"/>
    <path d="M15.4119 56.8516C15.4574 56.25 15.494 55.6482 15.5213 55.0468L15.7494 53.1922C15.7494 53.1922 14.3487 52.6419 14.0986 52.5919L14.055 52.7203C13.4274 52.5753 12.8716 52.4854 12.1756 52.2639C12.1756 52.2639 11.2693 52.1071 9.745 52.1489L9.34622 51.2663L7.49534 52.2168L7.53038 52.332C7.47739 52.3392 7.42478 52.3461 7.37102 52.3538C7.89911 53.9405 8.42414 55.5374 8.91527 57.1457L8.17559 57.9593C8.17559 57.9593 9.65707 65.3668 9.64008 65.1965C9.62308 65.0262 11.4451 73.1488 11.4451 73.1488C11.4451 73.1488 13.9142 69.9304 13.9993 69.8624C14.0845 69.7943 15.7193 60.5648 15.7193 60.5648L15.6511 57.8232L15.4119 56.8516Z" fill="#7CC1CB"/>
    <path d="M15.4119 56.8516C15.4574 56.25 15.494 55.6482 15.5213 55.0468L15.7494 53.1922C15.7494 53.1922 14.3487 52.6419 14.0986 52.5919L14.055 52.7203C13.4274 52.5753 12.8716 52.4854 12.1756 52.2639C12.1756 52.2639 11.2693 52.1071 9.745 52.1489L9.34622 51.2663L7.49534 52.2168L7.53038 52.332C7.47739 52.3392 7.42478 52.3461 7.37102 52.3538C7.89911 53.9405 8.42414 55.5374 8.91527 57.1457L8.63716 57.4516L9.35015 59.5785L11.4748 56.7022L12.2156 57.3289L13.0837 56.5989L15.6746 58.7694L15.6511 57.8231L15.4119 56.8516Z" fill="#64B3C1"/>
    <path d="M14.3806 52.8225C14.2552 52.7916 14.1143 52.7581 13.9603 52.7239L14.9105 49.723C15.2472 48.6596 14.5024 47.4753 13.2464 47.0778C11.9916 46.6806 10.7007 47.2204 10.3638 48.2837L9.5363 50.898C10.7724 52.0943 12.5184 52.6673 14.3747 52.9417C14.3768 52.9018 14.3793 52.8622 14.3806 52.8225Z" fill="#FDDCBE"/>
    <path d="M9.53621 50.898L9.08645 52.2245C8.71128 52.2436 8.3533 52.311 7.97852 52.3657C8.19173 53.4192 8.82005 55.0253 9.62876 56.3406L10.7315 54.8335L12.2116 56.7768L13.6467 54.9856L14.0249 55.3303C14.2261 54.4098 14.3412 53.5057 14.3746 52.9416C12.5184 52.6671 10.7723 52.0941 9.53621 50.898Z" fill="#FDDCBE"/>
    <g opacity="0.89">
      <path d="M14.3806 52.8225C14.2552 52.7916 14.1143 52.7581 13.9603 52.7239L14.9105 49.723C15.2472 48.6596 14.5024 47.4753 13.2464 47.0778C11.9916 46.6806 10.7007 47.2204 10.3638 48.2837L9.5363 50.898C10.7724 52.0943 12.5184 52.6673 14.3747 52.9417C14.3768 52.9018 14.3793 52.8622 14.3806 52.8225Z" fill="#FDDCBE"/>
    </g>
    <path d="M21.9136 86.1531C19.3457 84.9316 16.9114 83.1189 15.4754 80.9468C15.1254 81.1692 14.7757 81.3949 14.4212 81.6164C7.80983 85.8142 0.479653 91.0372 -7.26793 88.5477C-7.68697 90.0737 -7.77193 91.7845 -7.30076 93.7529C-5.37241 101.81 18.9413 106.349 18.9413 106.349C19.7919 106.47 23.9232 99.7263 33.8872 93.59C34.7052 93.0862 21.9136 86.1531 21.9136 86.1531Z" fill="#286D79"/>
    <path d="M1.28 97.728C1.76 97.056 2.816 96.768 3.68 96.768C8.288 96.384 12.992 96.096 17.024 93.696C16.544 93.024 16.256 92.16 15.68 91.488C16.352 92.064 17.312 92.64 17.888 92.64C20.7201 92.1928 23.089 90.1832 24.8606 87.7794C23.1653 86.8316 21.9136 86.1531 21.9136 86.1531C19.3457 84.9316 16.9114 83.1189 15.4754 80.9468C15.1254 81.1692 14.7757 81.3949 14.4212 81.6164C7.80983 85.8142 0.479652 91.0372 -7.26793 88.5477C-7.68697 90.0737 -7.77193 91.7845 -7.30076 93.7529C-6.5368 96.9448 -2.25932 99.5844 2.62775 101.609C2.56237 101.563 2.4968 101.519 2.432 101.472C1.28 100.608 0.320004 98.976 1.28 97.728Z" fill="#245C70"/>
    <g opacity="0.21">
      <path d="M15.4753 80.9468C15.1253 81.1692 14.7756 81.3949 14.4211 81.6164C7.80975 85.8142 0.47957 91.0372 -7.26801 88.5477C-7.43966 89.1732 -7.55409 89.83 -7.59854 90.523C-4.11211 92.3273 0.0729146 93.0759 3.9109 92.2694C6.00341 91.5509 7.98677 90.3691 9.82402 88.8705C12.224 87.0465 15.2 88.2945 17.888 87.6225C19.1411 87.3815 20.0069 86.5597 20.7409 85.5461C18.6204 84.3634 16.6903 82.7845 15.4753 80.9468Z" fill="#1F6570"/>
    </g>
    <path d="M17.792 82.56C16.6524 81.5302 16.3134 81.0377 15.728 79.776C14.5931 77.197 15.6167 73.2332 16.8642 71.0851C19.3605 66.788 21.4825 62.2908 19.3635 57.4768C18.6329 55.8171 17.199 53.9513 15.5786 53.1989C15.4686 59.7311 14.3984 66.3847 11.574 72.3091C11.6218 65.4365 9.52008 58.8106 7.37112 52.3536C6.16718 52.526 4.78872 52.8254 3.29611 53.328C-1.80859 55.0475 -1.00469 58.1051 -0.664081 61.4353C-0.323281 64.7656 -1.01966 71.6391 -2.60789 75.936C-3.94651 79.558 -7.55352 84.825 -8.07989 90.576C-8.07989 90.576 -8.51189 93.648 -7.02389 96.048C-7.02389 96.048 10.8321 96.192 15.4881 93.12C15.4881 93.12 10.8321 86.208 10.9281 84.912C10.9281 84.912 15.8241 91.728 17.2161 91.872C17.2161 91.872 23.0241 88.272 23.7921 86.976C23.696 86.448 17.792 82.56 17.792 82.56Z" fill="#F5FBFD"/>
    <path d="M15.3514 78.5021C11.6895 78.3896 8.08055 77.7941 4.73601 75.936C3.48801 75.168 3.29601 73.632 3.68001 72.288C4.44801 69.12 4.64001 66.048 4.25601 62.88C3.96801 65.088 3.20001 67.104 2.33601 69.12C1.6354 67.0183 0.984812 64.5598 -0.58354 62.9362C-0.524596 66.5467 -1.23068 72.2096 -2.60799 75.936C-2.87929 76.67 -3.24457 77.4726 -3.65765 78.332C-3.40172 80.0069 -1.92197 81.3289 -0.159989 81.696C5.67787 83.1137 11.4432 82.6476 17.1361 81.9345C16.4897 81.2715 16.1822 80.7549 15.728 79.776C15.5539 79.3802 15.4309 78.9515 15.3514 78.5021Z" fill="#CBE3EE"/>
    <path d="M18.0053 62.1139L17.4003 54.552C16.845 53.9792 16.2268 53.4998 15.5786 53.1989C15.4686 59.7311 14.3984 66.3847 11.574 72.3091C11.6218 65.4365 9.52006 58.8106 7.37111 52.3536C6.72915 52.4456 6.03632 52.5752 5.30432 52.7508L5.14592 61.6234L8.82848 62.3373L6.03315 63.6487L11.5975 72.3735L17.5169 63.2736L15.5324 62.3578L18.0053 62.1139Z" fill="#E7F5FD"/>
    <path d="M8.10398 62.6772L8.82849 62.3373L5.48999 61.69L5.4346 62.3L8.10398 62.6772Z" fill="#CEE1EA"/>
    <path d="M11.4166 72.9427L11.5656 72.3236L6.19828 63.9076L5.44084 64.2626L11.4166 72.9427Z" fill="#CEE1EA"/>
    <path d="M17.7298 62.1411L15.5324 62.3578L16.516 62.8117L17.8119 62.749L17.7298 62.1411Z" fill="#CEE1EA"/>
    <path d="M9.41878 51.1137L11.2984 55.5871L8.96471 58.8543L6.94957 52.3908L9.41878 51.1137Z" fill="#78CCD2"/>
    <path d="M13.073 55.7184C13.073 55.7184 15.7624 58.3748 15.7873 58.2997C15.8124 58.2247 15.7703 53.1571 15.7703 53.1571L14.1016 52.2716L13.073 55.7184Z" fill="#78CCD2"/>
    <path d="M11.3269 76.1778C11.3269 76.6394 11.1273 77.0148 10.8805 77.0148C10.6331 77.0148 10.4331 76.6395 10.4331 76.1778C10.4331 75.7137 10.6331 75.3372 10.8805 75.3372C11.1273 75.3372 11.3269 75.7138 11.3269 76.1778Z" fill="#78B1DD"/>
    <path d="M10.9429 83.0418C10.9429 83.5034 10.7433 83.8788 10.4965 83.8788C10.2491 83.8788 10.0491 83.5035 10.0491 83.0418C10.0491 82.5777 10.2491 82.2012 10.4965 82.2012C10.7433 82.2012 10.9429 82.5778 10.9429 83.0418Z" fill="#78B1DD"/>
    <path d="M14.9918 88.2935C14.0766 87.3939 13.4687 86.2224 12.8666 85.0926L14.8973 89.1741C14.8973 89.1741 15.7439 90.1273 17.5409 89.481C19.3377 88.8351 19.3364 87.248 19.3364 87.248L19.3017 87.1784C19.2552 87.3845 19.2002 87.5758 19.1019 87.6961C18.1735 88.7813 16.3175 89.647 14.9918 88.2935Z" fill="#E7F5FD"/>
    <path d="M12.704 84.768L17.2028 82.9401C17.2028 82.9401 13.5465 85.0922 12.704 84.768Z" fill="#CBE3EE"/>
    <path d="M7.39952 90.0332C8.02726 88.506 8.01661 86.8641 8.02957 85.2748L8.192 90.935C8.192 90.935 7.70134 92.4815 4.6641 92.8515C1.62704 93.2242 0.444129 91.493 0.444129 91.493L0.441055 91.3985C0.661663 91.5936 0.883617 91.7694 1.11286 91.8422C3.24253 92.4692 6.52582 92.3013 7.39952 90.0332Z" fill="#E7F5FD"/>
    <path d="M8.01535 84.8251L0.257401 85.5239C0.257401 85.5239 7.06073 85.6806 8.01535 84.8251Z" fill="#CBE3EE"/>
    <path d="M6.55491 83.4421C6.61914 83.3757 6.71331 83.3327 6.8193 83.3284C7.01946 83.3197 7.18746 83.4499 7.19456 83.6241L7.249 85.0928C7.25485 85.2659 7.09789 85.4121 6.89706 85.4216C6.87651 85.4216 6.85732 85.4208 6.83783 85.4182L6.85885 86.0959C6.86192 86.1834 6.79079 86.2588 6.69949 86.2622C6.60839 86.2656 6.5312 86.1975 6.529 86.1082L6.45181 83.5969C6.4497 83.5278 6.49319 83.4665 6.55491 83.4421Z" fill="#776C6D"/>
    <path d="M12.6284 69.9702C12.5319 69.9884 12.4516 69.992 12.4516 69.992C12.3352 69.9893 12.2417 70.0862 12.2436 70.2136C12.2446 70.3373 12.3398 70.4383 12.4569 70.4392C12.5369 70.4423 12.6324 70.4339 12.7274 70.4152C12.749 70.4108 12.7717 70.4053 12.795 70.4014C12.6865 70.2943 12.6307 70.1288 12.6284 69.9702Z" fill="#C8AB99"/>
    <path d="M11.3744 64.371C11.3207 64.2607 11.1918 64.2163 11.0905 64.2732C10.9902 64.3291 10.9492 64.466 11.0073 64.5762C11.0271 64.6147 12.9657 68.4694 12.9693 69.7325C12.9698 69.8819 12.7791 69.9458 12.6284 69.9703C12.6307 70.1288 12.6865 70.2943 12.795 70.4014C13.0931 70.3284 13.3911 70.1404 13.3896 69.7455C13.3882 68.3677 11.4589 64.5328 11.3744 64.371Z" fill="#C6C5C3"/>
    <path d="M8.57437 71.149C8.37104 71.2622 8.10032 71.3586 7.99789 71.2374C7.30189 70.4062 6.65879 66.9723 6.47053 65.7213C6.45124 65.5831 6.32797 65.4837 6.19847 65.5021C6.07002 65.5229 5.9817 65.651 6.0033 65.788C6.03162 65.9798 6.71312 70.452 7.64759 71.5694C7.83863 71.7961 8.09063 71.8281 8.32458 71.7858C8.52033 71.7482 8.69936 71.6594 8.82781 71.5879C8.82627 71.414 8.71136 71.2647 8.57437 71.149Z" fill="#C6C5C3"/>
    <path d="M9.05389 71.1224C8.97671 71.0073 8.82906 70.9772 8.72154 71.056C8.68074 71.087 8.63092 71.1181 8.57437 71.1489C8.71136 71.2646 8.82627 71.4139 8.82791 71.5878C8.91661 71.5352 8.97853 71.4895 9.00023 71.4747C9.10746 71.3941 9.13069 71.2358 9.05389 71.1224Z" fill="#C8AB99"/>
    <path d="M7.52404 59.8911L7.5226 59.8842C6.44529 55.142 6.9657 53.1666 7.59354 52.3424C8.05079 51.745 8.60663 51.5139 8.62439 51.5134C8.80852 51.5272 8.96721 51.3766 8.9747 51.1807C8.98228 50.9815 8.83598 50.8098 8.65147 50.797C8.61825 50.7949 7.76222 50.9951 7.08897 51.8544C6.02001 53.2206 5.9458 55.9722 6.8698 60.0388C6.87498 60.0643 6.88631 60.09 6.89524 60.1124C4.79697 61.2883 5.87726 65.9199 5.92631 66.1244C5.97959 66.3433 6.18667 66.4785 6.38596 66.428C6.58987 66.3774 6.71082 66.1622 6.6609 65.9451C6.35265 64.66 5.90817 61.2176 7.50686 60.7223C9.10747 60.2299 10.6613 63.7778 11.126 65.1843C11.1902 65.3769 11.3769 65.4928 11.5579 65.4575C11.5758 65.4539 11.5926 65.4487 11.6092 65.442C11.8059 65.3721 11.9094 65.1437 11.84 64.9337C11.7644 64.704 10.0094 59.4843 7.52404 59.8911Z" fill="#2B5865"/>
    <path d="M17.2633 72.2895C17.244 73.4645 16.3196 74.4039 15.2017 74.3838C14.0807 74.3664 13.1903 73.3974 13.2089 72.2216C13.2281 71.041 14.1517 70.1006 15.2721 70.1199C16.3895 70.1391 17.282 71.1091 17.2633 72.2895Z" fill="#C6C5C3"/>
    <path d="M16.7434 72.385C16.7312 73.0785 16.1861 73.6337 15.5252 73.6235C14.8663 73.6123 14.3386 73.0388 14.3498 72.3462C14.362 71.6499 14.9073 71.0976 15.5679 71.1086C16.2286 71.1189 16.7555 71.6897 16.7434 72.385Z" fill="#9DACB0"/>
    <path d="M16.6449 72.4895C16.637 72.9354 16.2866 73.2934 15.8609 73.2873C15.4349 73.2802 15.097 72.9108 15.103 72.4632C15.1122 72.0173 15.4615 71.6593 15.8874 71.6653C16.314 71.6735 16.651 72.0427 16.6449 72.4895Z" fill="#C3C3B6"/>
    <path d="M15.171 51.7337C14.9178 51.5687 14.6654 51.5955 14.5159 51.6762C14.3109 51.7851 14.2352 52.0371 14.3438 52.2411C14.4265 52.3906 14.5882 52.4755 14.7502 52.4576C14.8538 52.5625 15.2299 53.0928 15.4718 55.3113C15.7798 58.1533 15.7666 62.6549 15.4336 68.6948C15.4196 68.9234 15.5933 69.1203 15.8243 69.1333C15.8317 69.1334 15.8336 69.1334 15.8408 69.1334C16.0629 69.1375 16.2505 68.9667 16.2647 68.742C16.8408 58.2879 16.474 52.5652 15.171 51.7337Z" fill="#2B5865"/>
    <path d="M15.6819 71.5668C15.6745 71.5669 15.6664 71.5659 15.659 71.5659C15.3997 71.5528 15.1814 71.5013 15.198 71.2429C15.2506 70.4557 15.272 69.4573 15.3148 68.703C15.3285 68.4454 15.596 68.5368 15.8563 68.55C16.1147 68.5659 16.3115 68.5399 16.2956 68.7983C16.2533 69.5528 16.1843 70.5147 16.1337 71.3028C16.1169 71.5548 15.9302 71.5719 15.6819 71.5668Z" fill="#9DACB0"/>
    <path d="M-3.57395 25.6691C-4.09936 27.2842 -5.05926 43.0405 -10.2329 36.9916C-9.79417 39.9115 -7.74131 43.3574 -4.16646 42.7351C-4.56659 45.1839 -7.12806 45.7393 -9.04221 44.9175C-5.80038 47.7581 -2.33008 49.2834 1.95882 48.2977C1.42506 48.7197 1.37072 49.496 0.77821 50.0962C4.54131 50.7245 8.96759 52.3616 12.4075 49.7131C15.8833 51.8359 21.107 56.5105 25.5113 55.1669C25.2072 54.273 25.1402 53.2592 25.2524 52.3045C26.7673 55.5755 31.4768 55.1231 34.4598 55.1012C29.1363 53.1705 29.0757 44.821 30.6601 41.1687L-3.57395 25.6691Z" fill="#552B16"/>
    <path d="M33.4555 34.2805C33.6165 33.4648 33.8167 32.6601 34.0774 31.8749C34.529 30.0144 34.7917 28.1435 34.0666 26.2054C32.7102 22.3259 29.9913 18.9472 25.8478 17.5205C18.5972 15.0226 10.5143 14.2112 4.37812 19.2062C0.321355 22.2468 -0.697397 27.6893 -0.354869 32.5834C-0.750102 32.5105 -1.15321 32.5247 -1.53385 32.6416C-3.81404 33.1701 -5.18117 35.8626 -4.29461 38.2024C-3.94143 39.3586 -3.44041 40.7206 -2.31663 41.6405C-1.38869 42.2377 -0.0586143 42.5462 0.966282 42.2589C2.12097 44.8614 3.21739 47.3187 6.26452 49.2914C12.5955 52.9154 20.7877 55.2067 27.5466 50.8617C33.168 46.9932 32.261 40.3076 33.4555 34.2805Z" fill="#FDDCBE"/>
    <path opacity="0.89" d="M3.58661 38.0677C3.97426 35.7592 4.71874 33.509 5.28437 31.2304C10.0431 36.5967 18.7228 33.8542 22.8168 29.0628C22.546 31.7586 20.883 35.1314 17.6265 34.9478C23.486 37.0299 30.5684 32.9238 32.62 27.2438C33.3344 28.7629 33.7785 30.3681 34.0412 31.9922C34.0532 31.9537 34.0645 31.9151 34.0775 31.875C34.529 30.0145 34.7917 28.1436 34.0666 26.2055C32.7102 22.326 29.9913 18.9473 25.8479 17.5206C18.5972 15.0227 10.5144 14.2113 4.37813 19.2063C0.321361 22.2469 -0.697391 27.6894 -0.354863 32.5835C-0.393647 32.5746 -0.433583 32.5733 -0.473999 32.5687C1.50504 33.7589 2.91826 35.8843 3.58661 38.0677Z" fill="#FDDCBE"/>
    <path opacity="0.89" d="M20.8582 41.5371C20.4858 41.9183 20.1467 42.3603 20.3092 42.8885C20.4572 43.0954 21.0793 42.6531 21.4646 42.5348C21.3382 42.1243 21.0375 41.8397 20.8582 41.5371Z" fill="#FDDCBE"/>
    <path opacity="0.89" d="M15.0612 48.7295C15.1271 49.2018 15.2841 49.624 15.6721 49.9249C16.1746 50.1937 16.5798 50.035 17.0266 49.674C16.1002 49.7852 15.4451 49.3812 15.0612 48.7295Z" fill="#FDDCBE"/>
    <path d="M32.6033 40.4978C37.2157 36.5967 37.9906 29.112 37.9906 29.112C39.6613 16.3247 31.8066 16.6489 31.8066 16.6489C27.9489 7.55702 12.9029 10.0255 12.9029 10.0255C-6.26819 12.7995 -6.86147 31.3608 -4.04828 34.5912C-0.503963 30.6324 2.6794 35.8837 2.6794 35.8837C3.11005 33.3198 5.0026 29.1998 5.0026 29.1998C6.33277 36.9768 23.2158 29.9846 25.2658 24.2136C25.2658 24.2136 22.6845 34.5722 18.2542 33.107C18.2542 33.107 27.2295 36.7762 31.989 25.5845C31.989 25.5845 34.2627 30.6986 33.3055 34.2519L32.6033 40.4978Z" fill="#552B16"/>
    <g opacity="0.3">
      <path d="M11.2891 19.3484C11.5446 19.3101 11.9838 19.453 12.1678 19.6342C13.4199 21.0132 13.3643 23.4243 15.0859 24.1057C18.5678 25.7242 23.1187 23.6821 24.9568 20.2718C21.7132 21.2816 17.7776 22.552 14.9085 19.7969C13.8048 18.7092 14.3023 16.8061 13.6738 15.7515C13.1908 14.6227 11.1501 15.2949 9.90341 14.6465C8.84088 14.1794 8.06664 13.1988 8.20431 12.029C8.22763 11.694 8.27909 11.3686 8.37317 11.0673C4.91563 12.1952 2.25595 13.9287 0.242065 15.9588C3.04287 18.7763 7.35864 19.7996 11.2891 19.3484Z" fill="#552B16"/>
    </g>
    <path opacity="0.3" d="M33.7282 31.8162C33.4679 32.6004 33.2673 33.4051 33.1057 34.2235C33.3052 33.4175 33.5337 32.6199 33.7282 31.8162Z" fill="#FDDCBE"/>
    <path d="M9.43731 33.4764C9.71561 31.4806 11.7937 29.7643 13.8338 30.1652C14.1919 30.2345 14.3031 29.6838 13.9428 29.6127C11.6169 29.1554 9.20288 31.0608 8.88253 33.3652C8.83193 33.7212 9.38739 33.8373 9.43731 33.4764Z" fill="#603813"/>
    <path d="M28.6909 31.9657C30.6951 32.1192 31.8742 33.4245 31.5573 35.1902C31.5043 35.4819 32.0358 35.4373 32.0871 35.149C32.4371 33.1957 31.0995 31.6916 28.8768 31.5238C28.55 31.4965 28.359 31.9414 28.6909 31.9657Z" fill="#603813"/>
    <path d="M28.9896 36.9306C29.1572 37.269 29.1111 37.8128 28.9416 38.1872C28.7536 38.6004 28.3194 39.0314 27.9457 38.8829C27.884 38.857 27.8549 38.7688 27.8835 38.6909C27.9982 38.377 28.2698 38.1494 28.4498 37.8877C28.6534 37.59 28.7621 37.23 28.9567 36.9346C28.9639 36.9228 28.9821 36.9174 28.9896 36.9306Z" fill="#552A14"/>
    <path d="M25.0379 39.6406C24.5123 41.1754 24.9064 42.7375 25.9151 43.1303C26.923 43.5235 28.1651 42.6013 28.688 41.0656C29.212 39.5313 28.8188 37.9694 27.8113 37.5772C26.8027 37.1855 25.5596 38.1111 25.0379 39.6406Z" fill="white"/>
    <path d="M26.41 42.7315C25.7824 42.3679 25.6368 41.2487 26.0862 40.2379C26.5363 39.2263 27.4093 38.6991 28.0383 39.0681C28.6645 39.4302 28.8085 40.5439 28.3614 41.5566C27.9137 42.5682 27.0396 43.094 26.41 42.7315Z" fill="#883F2A"/>
    <path d="M26.9667 42.2106C26.5956 41.9964 26.5101 41.3358 26.7735 40.7361C27.0418 40.1363 27.5574 39.8274 27.9302 40.0413C28.3023 40.2578 28.3895 40.9172 28.1227 41.5165C27.8569 42.1172 27.3374 42.4275 26.9667 42.2106Z" fill="#4B1C0D"/>
    <path d="M27.0629 40.6616C26.8889 40.5936 26.8453 40.3072 26.9687 40.0196C27.0925 39.732 27.3318 39.5516 27.5067 39.619C27.6808 39.6841 27.7241 39.9713 27.6012 40.2611C27.478 40.5489 27.236 40.7292 27.0629 40.6616Z" fill="white"/>
    <path opacity="0.7" d="M27.3889 41.2815C27.722 41.4853 27.8635 41.854 27.9193 42.2593C27.4603 42.7859 26.8715 42.9928 26.41 42.7315C26.398 42.7251 26.3875 42.7145 26.3756 42.7071C26.5387 42.3017 26.6272 41.8112 26.7398 41.465C26.8224 41.1993 27.1633 41.1218 27.3889 41.2815Z" fill="#883F2A"/>
    <path d="M14.6575 33.4103C14.8525 33.7375 14.8331 34.2749 14.6779 34.6498C14.505 35.0611 14.0766 35.4993 13.6815 35.3639C13.6156 35.3425 13.5784 35.2573 13.6041 35.178C13.7058 34.8657 13.977 34.6344 14.1493 34.3719C14.346 34.0721 14.4382 33.7134 14.624 33.4168C14.6312 33.4048 14.6502 33.3984 14.6575 33.4103Z" fill="#552A14"/>
    <path d="M10.6978 36.2093C10.2367 37.7346 10.7324 39.2604 11.8033 39.6116C12.8733 39.9645 14.1131 39.0157 14.5731 37.487C15.0334 35.9634 14.539 34.44 13.4688 34.0851C12.398 33.7339 11.1569 34.6833 10.6978 36.2093Z" fill="white"/>
    <path d="M12.4351 39.0248C11.7627 38.6896 11.5494 37.5945 11.9621 36.5835C12.3733 35.575 13.2534 35.0261 13.9268 35.3701C14.6 35.7027 14.8105 36.796 14.4005 37.8059C13.9908 38.815 13.1101 39.3638 12.4351 39.0248Z" fill="#883F2A"/>
    <path d="M12.9509 38.4701C12.5528 38.2685 12.4283 37.6217 12.6679 37.025C12.9138 36.4246 13.4327 36.1055 13.8328 36.302C14.2317 36.504 14.3577 37.1512 14.115 37.7479C13.8718 38.3461 13.3488 38.6698 12.9509 38.4701Z" fill="#4B1C0D"/>
    <path d="M12.7572 36.7373C12.572 36.6771 12.5113 36.3975 12.6238 36.1078C12.7372 35.8194 12.9757 35.6372 13.1615 35.6957C13.3467 35.7541 13.4064 36.0372 13.2956 36.3253C13.184 36.6116 12.9419 36.7974 12.7572 36.7373Z" fill="white"/>
    <path opacity="0.7" d="M13.3737 37.5672C13.7309 37.7584 13.8993 38.1155 13.9796 38.511C13.5313 39.0445 12.9305 39.2687 12.4352 39.0248C12.4232 39.0199 12.4128 39.0098 12.3997 39.0027C12.5461 38.5999 12.6123 38.1125 12.7093 37.7697C12.7811 37.5053 13.1304 37.4188 13.3737 37.5672Z" fill="#883F2A"/>
    <path d="M19.0387 48.0873C20.6461 47.0537 22.0372 45.3089 22.0372 45.3089C22.0372 45.3089 19.1451 45.2737 15.6092 43.4615C15.6092 43.4615 15.4495 44.0579 15.3386 44.854C16.9119 45.3986 18.1426 46.6188 19.0387 48.0873Z" fill="#C42A48"/>
    <path d="M15.3387 44.8539C15.1337 46.3309 15.1033 48.488 16.5933 48.7904C17.3635 48.9484 18.2277 48.6086 19.0387 48.0872C18.1426 46.6188 16.9119 45.3986 15.3387 44.8539Z" fill="#F2808D"/>
    <g opacity="0.89">
      <path d="M-1.53605 35.2977C-2.24309 35.263 -2.78626 35.9987 -3.06523 36.7422C-2.58254 36.139 -1.88635 35.6399 -1.27867 35.9357C-0.714961 36.1759 -0.389616 36.5675 -0.185808 37.038C-0.546672 36.7204 -0.798287 36.2412 -1.31822 36.3607C-1.81176 36.5388 -2.31739 36.9797 -2.38229 37.5619C-1.76078 36.9163 -0.596112 36.8485 -0.0285604 37.4999C0.0995035 37.6484 0.196177 37.8328 0.252241 38.0542C0.193585 38.012 0.130514 37.9741 0.0660977 37.9397C-0.329326 37.7322 -0.79435 37.7127 -0.725518 38.148C-0.678094 38.454 -0.120144 38.6846 -0.2172 39.0639C-0.325872 39.7061 -1.23307 39.5813 -1.66056 39.1766C-1.24526 39.8448 -0.380014 40.0272 0.243218 39.6736C0.256658 39.6646 0.272401 39.6515 0.287377 39.64C0.327793 39.8946 0.380688 40.1399 0.455664 40.3722C1.0453 38.4564 1.09397 35.4276 -1.53605 35.2977Z" fill="#FDDCBE"/>
    </g>
    <path d="M25.7412 134.191L24.3979 133.65L24.9577 136.315C25.157 136.271 26.5135 135.518 26.5135 135.518L25.7412 134.191Z" fill="#4A211C"/>
    <path d="M22.9657 133.072L23.6743 135.946C23.6743 135.946 24.4902 136.411 24.9522 136.316C24.9539 136.315 24.9559 136.315 24.9577 136.314L24.3979 133.649L22.9657 133.072Z" fill="#5E2F2A"/>
    <path d="M32.928 134.495C31.7962 133.787 30.783 132.858 30.0424 131.748C29.3017 130.639 28.5682 129.172 28.79 127.882L28.7998 127.811C29.2812 124.681 32.5743 103.224 32.5743 102.023C32.5743 100.727 30.2704 98.9992 29.1185 99.5751C27.9666 100.151 25.0866 105.191 25.0866 105.191C25.0866 105.191 24.4053 107.84 24.2613 111.872C24.1868 113.959 24.9334 125.555 25.0765 127.747C25.0714 128.475 25.088 128.837 24.5984 129.569C24.0677 130.362 23.6727 130.903 23.2544 131.761C22.8361 132.618 22.9049 133.423 23.3566 134.264C23.8842 135.247 25.0557 135.648 26.0859 136.08C27.9464 136.858 29.4183 138.18 31.3621 138.719C33.3059 139.258 34.5981 139.86 36.2098 137.898L36.2963 137.789C36.3723 137.696 36.4829 137.517 36.5064 137.399C36.7043 136.409 34.3115 135.36 32.928 134.495Z" fill="#FDDCBE"/>
    <path d="M32.9282 134.495C32.4995 134.227 32.0878 133.927 31.7014 133.597C31.7106 134.078 31.6183 134.531 31.2892 134.9C30.7338 135.404 29.8782 135.284 29.2394 135.001C27.3716 133.87 23.6885 132.677 24.3169 129.987C23.9209 130.573 23.5954 131.062 23.2545 131.761C22.8362 132.618 22.905 133.424 23.3567 134.265C23.8843 135.247 25.0558 135.648 26.086 136.08C27.9465 136.859 29.4184 138.18 31.3621 138.719C32.2277 138.959 33.1441 139.323 34.0584 139.237C34.9637 139.153 36.1006 138.403 36.4466 137.541C36.7432 136.801 35.7653 136.198 35.255 135.863C34.5018 135.37 33.6914 134.972 32.9282 134.495Z" fill="#5E2F2A"/>
    <path d="M15.2582 75.1519C15.2582 75.1519 16.5158 75.9418 16.6067 78.2264C16.6974 80.5133 15.6589 81.0612 15.6589 81.0612L9.48589 79.7164L15.2582 75.1519Z" fill="#92A1B6"/>
    <path d="M15.8673 80.7042C15.8673 80.7042 16.8499 80.0428 16.7243 78.3639C16.5987 76.6851 15.5769 75.3854 15.5769 75.3854C15.5769 75.3854 14.4288 76.9327 14.7852 78.5333C15.1415 80.134 15.8673 80.7042 15.8673 80.7042Z" fill="#5EA1A7"/>
    <path d="M9.486 75.8902C11.9516 76.2342 16.2707 75.3853 16.2707 75.3853C18.1505 72.2359 19.5909 68.3167 23.2546 66.4395C24.005 66.0602 25.4863 65.0602 26.1062 65.6125C26.2586 66.9529 22.6782 69.2126 21.7888 71.5064C23.2192 70.6018 25.1578 69.7954 26.9678 69.514C30.6201 69.024 27.4312 70.9275 26.2086 71.6872C25.2803 72.2842 24.2731 72.9018 23.3778 73.5685C24.1761 73.5002 29.5567 72.7525 29.7554 73.5893C29.9202 74.355 24.9669 75.6309 24.1841 75.9399C25.8178 76.6867 29.1955 75.6797 29.7502 77.0104C28.4155 78.1295 25.2155 77.5929 23.4897 78.2573C21.2241 79.1591 20.0246 80.9722 17.0526 80.1258C15.7768 79.7611 15.4785 79.8696 13.8291 79.5361C13.8291 79.5361 9.28594 79.6925 7.31122 79.2092L9.486 75.8902Z" fill="#FDDCBE"/>
    <path d="M14.2751 75.3078C14.3866 75.2049 15.6316 75.3537 15.6316 75.3537C15.6316 75.3537 14.9757 79.5875 15.8983 80.7188L12.877 80.5668C12.877 80.5668 12.3032 77.1275 14.2751 75.3078Z" fill="#78CCD2"/>
    <path d="M15.2582 75.1519L12.7641 75.023L3.74097 74.5765L2.88388 74.5437C2.88388 74.5437 5.12586 53.4351 1.52769 54.1632C-2.07327 54.8921 -3.84351 63.2355 -2.76092 78.3743C-2.5693 79.3466 -1.36278 79.987 0.307046 80.4041C3.52497 81.2078 10.8874 81.3706 13.6305 81.2766C14.8495 81.2336 15.6588 81.0611 15.6588 81.0611C13.4477 78.3967 15.2582 75.1519 15.2582 75.1519Z" fill="#F5FBFD"/>
  </g>
  <defs>
    <clipPath id="clip0_22_4659">
      <rect width="144" height="144" fill="white" transform="translate(-28)"/>
    </clipPath>
  </defs>
</svg>