<svg xmlns="http://www.w3.org/2000/svg" width="190" height="127" viewBox="0 0 190 127" fill="none">
  <path d="M85.758 10.0611C17.0182 9.44134 33.2962 87.8298 33.2962 87.8298C20.5141 126.861 85.758 125.408 85.758 125.408C85.758 125.408 151.002 126.861 138.22 87.8298C138.22 87.8298 154.498 9.44134 85.758 10.0611Z" fill="#FED9D1"/>
  <mask id="mask0_97_1435" style="mask-type:luminance" maskUnits="userSpaceOnUse" x="31" y="10" width="109" height="116">
    <path d="M85.758 10.0611C17.0182 9.44134 33.2962 87.8298 33.2962 87.8298C20.5141 126.861 85.758 125.408 85.758 125.408C85.758 125.408 151.002 126.861 138.22 87.8298C138.22 87.8298 154.498 9.44134 85.758 10.0611Z" fill="white"/>
  </mask>
  <g mask="url(#mask0_97_1435)">
    <path d="M31.8915 93.7636C31.8915 93.7636 33.9044 90.4315 41.2214 96.9972C48.5385 103.563 54.7081 119.29 81.8246 125.415C81.8246 125.415 46.6851 130.393 31.6144 114.037C16.544 97.6804 31.8915 93.7636 31.8915 93.7636Z" fill="#FBCAC6"/>
  </g>
  <mask id="mask1_97_1435" style="mask-type:luminance" maskUnits="userSpaceOnUse" x="31" y="10" width="109" height="116">
    <path d="M85.758 10.0611C17.0182 9.44134 33.2962 87.8298 33.2962 87.8298C20.5141 126.861 85.758 125.408 85.758 125.408C85.758 125.408 151.002 126.861 138.22 87.8298C138.22 87.8298 154.498 9.44134 85.758 10.0611Z" fill="white"/>
  </mask>
  <g mask="url(#mask1_97_1435)">
    <path d="M47.997 22.4645C47.997 22.4645 57.4923 37.0757 87.1141 36.3777C116.736 35.6798 116.521 6.18748 116.521 6.18748L45.0122 14.8699L47.997 22.4645Z" fill="#FBCAC6"/>
  </g>
  <path d="M86.5752 126.089C86.0495 126.089 85.7593 126.083 85.7429 126.083C85.3706 126.074 85.0754 125.766 85.0837 125.393C85.092 125.021 85.3922 124.726 85.773 124.734C85.8666 124.736 95.291 124.92 106.097 123.063C115.998 121.361 129.12 117.553 135.412 109.071C139.58 103.452 140.309 96.3759 137.579 88.0398C137.463 87.6858 137.656 87.305 138.01 87.189C138.363 87.0732 138.745 87.2659 138.861 87.6201C141.735 96.3966 140.939 103.884 136.494 109.875C133.584 113.798 129.086 117.09 123.126 119.66C118.398 121.698 112.737 123.292 106.302 124.396C97.2363 125.952 89.1307 126.089 86.5752 126.089Z" fill="#845E5D"/>
  <path d="M69.1586 124.992C69.1285 124.992 69.0981 124.99 69.0673 124.986C65.9475 124.564 62.9444 124.027 60.1415 123.388C59.7782 123.305 59.551 122.944 59.6337 122.581C59.7164 122.218 60.0777 121.99 60.4411 122.073C63.2051 122.702 66.1682 123.233 69.2482 123.65C69.6174 123.7 69.8761 124.039 69.8261 124.408C69.7803 124.747 69.4908 124.992 69.1586 124.992Z" fill="#845E5D"/>
  <path d="M60.2918 123.405C60.242 123.405 60.1917 123.4 60.1412 123.388C46.693 120.326 37.765 115.048 33.6057 107.702C30.4643 102.154 30.1263 95.4548 32.6003 87.7885C32.333 86.4087 30.6578 77.2318 30.9822 65.771C31.1884 58.4893 32.1482 51.7163 33.8352 45.6398C35.9511 38.0187 39.2235 31.4761 43.5613 26.1936C52.8581 14.8728 67.0567 9.22186 85.7639 9.38682C86.0332 9.38451 86.302 9.38316 86.5697 9.38316C102.121 9.38316 114.564 13.4853 123.553 21.5817C123.83 21.8309 123.852 22.2575 123.603 22.5343C123.353 22.811 122.927 22.8331 122.65 22.584C113.766 14.5816 101.352 10.5932 85.7642 10.7358C67.4728 10.5685 53.6324 16.0585 44.6073 27.0457C40.3919 32.1777 37.2068 38.5482 35.141 45.98C33.4821 51.9473 32.5369 58.6075 32.3317 65.7756C31.9813 78.0085 33.9367 87.5975 33.9566 87.6929C33.9807 87.8084 33.9739 87.9281 33.9371 88.0398C31.5266 95.4008 31.8098 101.793 34.7796 107.037C38.7444 114.039 47.378 119.098 60.4411 122.073C60.8043 122.156 61.0315 122.517 60.9489 122.88C60.8776 123.193 60.5997 123.405 60.2918 123.405Z" fill="#845E5D"/>
  <path d="M139.896 68.4109C139.527 68.4109 139.225 68.1131 139.222 67.7429C139.085 53.6042 136.077 41.2974 130.521 32.1528C130.328 31.8345 130.429 31.4196 130.748 31.2261C131.066 31.0324 131.481 31.1338 131.674 31.4523C137.437 40.9378 140.43 53.1433 140.571 67.7298C140.574 68.1023 140.275 68.4072 139.903 68.4109C139.9 68.4109 139.898 68.4109 139.896 68.4109Z" fill="#845E5D"/>
  <path d="M109.056 95.9236C109.056 105.647 99.2322 100.401 87.1143 100.401C74.9965 100.401 65.1731 105.647 65.1731 95.9236C65.1731 86.2006 74.9965 78.3183 87.1143 78.3183C99.2322 78.3183 109.056 86.2004 109.056 95.9236Z" fill="#8F625F"/>
  <mask id="mask2_97_1435" style="mask-type:luminance" maskUnits="userSpaceOnUse" x="65" y="78" width="45" height="24">
    <path d="M109.056 95.9236C109.056 105.647 99.2322 100.401 87.1143 100.401C74.9965 100.401 65.1731 105.647 65.1731 95.9236C65.1731 86.2006 74.9965 78.3183 87.1143 78.3183C99.2322 78.3183 109.056 86.2004 109.056 95.9236Z" fill="white"/>
  </mask>
  <g mask="url(#mask2_97_1435)">
    <path d="M87.0161 108.014C96.3535 108.014 103.923 104.195 103.923 99.4833C103.923 94.7717 96.3535 90.9522 87.0161 90.9522C77.6786 90.9522 70.1091 94.7717 70.1091 99.4833C70.1091 104.195 77.6786 108.014 87.0161 108.014Z" fill="#FBCAC6"/>
  </g>
  <path d="M119.068 76.3157C124.964 76.3157 129.743 74.9937 129.743 73.3629C129.743 71.732 124.964 70.41 119.068 70.41C113.172 70.41 108.392 71.732 108.392 73.3629C108.392 74.9937 113.172 76.3157 119.068 76.3157Z" fill="#FBCAC6"/>
  <path d="M52.4485 76.3157C58.3445 76.3157 63.1241 74.9937 63.1241 73.3629C63.1241 71.732 58.3445 70.41 52.4485 70.41C46.5526 70.41 41.7729 71.732 41.7729 73.3629C41.7729 74.9937 46.5526 76.3157 52.4485 76.3157Z" fill="#FBCAC6"/>
  <path d="M113.238 15.4727C113.238 15.4727 110.027 33.4777 84.019 33.4777C58.0113 33.4777 48.6602 5.7165 48.6602 5.7165C48.6602 5.7165 90.7938 -10.601 113.238 15.4727Z" fill="#F6D69B"/>
  <path d="M84.0191 34.1522C77.9675 34.1522 72.3041 32.6627 67.1864 29.7249C63.1019 27.3803 59.359 24.1152 56.0614 20.0202C50.4615 13.0662 48.118 6.21985 48.0211 5.93195C47.9058 5.59009 48.0802 5.21797 48.4167 5.0877C48.5231 5.04646 59.2015 0.961081 72.4912 0.14381C80.3157 -0.336994 87.5096 0.38912 93.8734 2.30251C101.857 4.70325 108.545 8.98636 113.749 15.0327C113.881 15.1863 113.938 15.3916 113.902 15.591C113.868 15.7826 113.018 20.3349 108.883 24.9265C105.092 29.1352 97.7021 34.1522 84.0191 34.1522ZM49.5275 6.11831C50.2364 7.95731 52.6287 13.6169 57.139 19.2074C60.3304 23.1631 63.9441 26.3123 67.8797 28.5673C72.7847 31.3782 78.2148 32.8032 84.0191 32.8032C94.4205 32.8032 102.654 29.7872 107.828 24.0809C111.142 20.4274 112.242 16.7255 112.505 15.6581C107.507 9.94874 101.116 5.89284 93.5038 3.6002C87.298 1.73152 80.2683 1.021 72.6095 1.48813C61.3373 2.1759 51.975 5.25209 49.5275 6.11831Z" fill="#845E5D"/>
  <path d="M86.427 28.5995C86.1979 28.5995 85.9676 28.5974 85.7344 28.5932C76.1004 28.4161 68.0005 23.2473 62.9021 18.9424C57.4017 14.2982 54.2079 9.76433 54.0748 9.57355C53.8614 9.26831 53.936 8.84801 54.2413 8.63449C54.5463 8.42098 54.9668 8.49555 55.1805 8.8008C55.2123 8.84628 58.4249 13.4026 63.7993 17.9343C68.7253 22.0878 76.5336 27.0746 85.7593 27.244C94.9508 27.4151 100.904 24.0669 104.279 21.2302C107.945 18.1488 109.458 14.9799 109.473 14.9483C109.631 14.6115 110.032 14.466 110.37 14.6236C110.707 14.7813 110.853 15.1817 110.695 15.5191C110.631 15.6575 109.07 18.9461 105.201 22.2173C101.73 25.1512 95.6806 28.5995 86.427 28.5995Z" fill="#845E5D"/>
  <path d="M89.7699 18.0045C84.2042 18.0045 77.2846 16.8731 69.9118 12.9983C69.5821 12.8249 69.4553 12.4173 69.6286 12.0874C69.8018 11.7577 70.2098 11.6309 70.5395 11.8041C80.4784 17.0274 89.556 17.104 95.4203 16.2483C101.792 15.3187 105.864 13.1193 105.905 13.0972C106.231 12.9183 106.641 13.038 106.82 13.3645C106.999 13.6909 106.88 14.1006 106.554 14.2798C106.382 14.3743 102.27 16.6023 95.6747 17.5745C93.9546 17.8279 91.9676 18.0045 89.7699 18.0045Z" fill="#845E5D"/>
  <path d="M27.8124 94.0642C33.0423 94.0642 37.282 87.4927 37.282 79.3863C37.282 71.2799 33.0423 64.7084 27.8124 64.7084C22.5825 64.7084 18.3428 71.2799 18.3428 79.3863C18.3428 87.4927 22.5825 94.0642 27.8124 94.0642Z" fill="#FED9D1"/>
  <path d="M20.081 88.5368C19.8251 88.5368 19.5805 88.3903 19.4672 88.1425C18.2906 85.5685 17.6687 82.5405 17.6687 79.3861C17.6687 75.3373 18.692 71.5217 20.5501 68.6417C22.4671 65.6704 25.0465 64.0339 27.813 64.0339C30.1224 64.0339 32.293 65.1639 34.09 67.3018C34.3298 67.5868 34.293 68.0125 34.0078 68.2521C33.7227 68.492 33.297 68.455 33.0575 68.1698C31.5249 66.3466 29.7115 65.3829 27.813 65.3829C22.9633 65.3829 19.0178 71.6647 19.0178 79.3863C19.0178 82.3486 19.5975 85.1827 20.6944 87.5819C20.8493 87.9207 20.7002 88.321 20.3614 88.4759C20.2701 88.5171 20.1748 88.5368 20.081 88.5368Z" fill="#845E5D"/>
  <path d="M27.8127 94.7387C26.21 94.7387 24.6793 94.1964 23.2633 93.1269C22.9661 92.9024 22.9072 92.4794 23.1317 92.1822C23.3564 91.8849 23.779 91.8261 24.0765 92.0504C25.2528 92.9392 26.51 93.3897 27.8127 93.3897C29.836 93.3897 31.8177 92.2508 33.3931 90.1827C33.6188 89.8863 34.042 89.8293 34.3383 90.055C34.6347 90.2806 34.6918 90.7038 34.4661 91.0002C32.6298 93.4109 30.2668 94.7387 27.8127 94.7387Z" fill="#845E5D"/>
  <path d="M146.246 94.0642C151.476 94.0642 155.716 87.4927 155.716 79.3863C155.716 71.2799 151.476 64.7084 146.246 64.7084C141.016 64.7084 136.776 71.2799 136.776 79.3863C136.776 87.4927 141.016 94.0642 146.246 94.0642Z" fill="#FED9D1"/>
  <path d="M146.246 94.7387C142.27 94.7387 138.752 91.3721 137.067 85.9528C136.956 85.597 137.155 85.2191 137.511 85.1085C137.867 84.9981 138.245 85.1966 138.355 85.5523C139.836 90.3133 142.933 93.3897 146.246 93.3897C151.095 93.3897 155.041 87.1077 155.041 79.3861C155.041 78.8467 155.021 78.3031 154.983 77.7702C154.955 77.3987 155.235 77.0755 155.606 77.0484C155.978 77.02 156.301 77.3002 156.328 77.672C156.369 78.2374 156.39 78.8141 156.39 79.3861C156.39 83.4349 155.367 87.2509 153.509 90.1307C151.592 93.1022 149.012 94.7387 146.246 94.7387Z" fill="#845E5D"/>
  <path d="M152.942 69.682C152.721 69.682 152.504 69.5731 152.375 69.373C150.715 66.7998 148.538 65.3829 146.246 65.3829C144.194 65.3829 142.19 66.551 140.603 68.6724C140.38 68.9705 139.958 69.0321 139.659 68.8086C139.361 68.5854 139.3 68.1628 139.523 67.8645C141.37 65.3944 143.758 64.0339 146.246 64.0339C149.012 64.0339 151.592 65.6704 153.509 68.6417C153.711 68.9547 153.621 69.3723 153.308 69.574C153.195 69.6469 153.068 69.682 152.942 69.682Z" fill="#845E5D"/>
  <path d="M31.6149 71.9825C31.6149 71.9825 26.7747 68.1299 23.67 72.5533C20.5653 76.9767 23.59 90.3139 27.6425 90.0663C31.6949 89.8187 33.9295 82.6843 33.9295 82.6843C33.9295 82.6843 35.2448 74.5509 31.6149 71.9825Z" fill="#FBCAC6"/>
  <path d="M142.427 71.1201C142.427 71.1201 147.267 67.2675 150.371 71.6909C153.476 76.1143 150.451 89.4516 146.399 89.204C142.347 88.9563 140.112 81.8219 140.112 81.8219C140.112 81.8219 138.796 73.6885 142.427 71.1201Z" fill="#FBCAC6"/>
  <path d="M92.561 100.463C92.561 100.463 93.5239 96.3223 100.553 97.0926C106.891 97.7871 108.323 99.5197 109.056 102.293C109.788 105.065 109.441 117.186 107.679 117.026C105.918 116.866 105.908 106.013 103.346 104.893C100.785 103.772 92.3968 103.57 92.561 100.463Z" fill="white"/>
  <path d="M100.391 59.2158C100.391 59.2158 104.837 55.6415 108.05 57.2373C111.262 58.8331 116.947 63.8198 117.645 60.8278C118.344 57.8359 115.252 53.1005 115.252 53.1005C115.252 53.1005 100.691 55.4097 100.391 59.2158Z" fill="#FBCAC6"/>
  <path d="M116.521 57.5618C116.521 62.2402 112.728 55.507 108.05 55.507C103.372 55.507 99.5791 62.2404 99.5791 57.5618C99.5791 52.8835 103.372 49.0908 108.05 49.0908C112.728 49.0908 116.521 52.8835 116.521 57.5618Z" fill="#8F625F"/>
  <path d="M71.6264 59.2158C71.6264 59.2158 67.1811 55.6415 63.9683 57.2373C60.7555 58.8331 55.0706 63.8198 54.3724 60.8278C53.6743 57.8359 56.766 53.1005 56.766 53.1005C56.766 53.1005 71.3272 55.4097 71.6264 59.2158Z" fill="#FBCAC6"/>
  <path d="M55.4966 57.5618C55.4966 62.2402 59.2893 55.507 63.9676 55.507C68.6461 55.507 72.4386 62.2404 72.4386 57.5618C72.4386 52.8835 68.646 49.0908 63.9676 49.0908C59.2893 49.0908 55.4966 52.8835 55.4966 57.5618Z" fill="#8F625F"/>
  <path d="M122.403 57.758C121.9 58.1145 121.33 57.4067 121.785 56.9899C132.05 47.5758 152.999 31.9827 179.285 31.8121C214.003 31.5872 154.42 35.061 122.403 57.758Z" fill="white"/>
  <path d="M51.3191 57.2977C51.702 57.5692 52.1358 57.0302 51.7899 56.713C43.9747 49.5458 28.0262 37.6749 8.01496 37.545C-18.4167 37.3737 26.9446 40.0182 51.3191 57.2977Z" fill="white"/>
  <path d="M79.4023 69.5652H92.5586C92.5586 69.5652 87.1206 60.342 79.4023 69.5652Z" fill="#FBCAC6"/>
</svg>